<?xml version="1.0" standalone="no"?>
<!DOCTYPE svg PUBLIC "-//W3C//DTD SVG 1.1//EN" "http://www.w3.org/Graphics/SVG/1.1/DTD/svg11.dtd" >
<svg xmlns="http://www.w3.org/2000/svg" xmlns:xlink="http://www.w3.org/1999/xlink" version="1.1">
<metadata>
Created by FontForge 20161003 at Fri Jun  8 20:27:45 2018
 By www-data
Copyright (c) 2016 by B_a_ej Ostoja Lniski Typoforge Studio. All rights reserved.
</metadata>
<defs>
<font id="CervoNeueBlack" horiz-adv-x="582" >
  <font-face 
    font-family="CervoNeueBlack"
    font-weight="900"
    font-stretch="normal"
    units-per-em="1000"
    panose-1="1 0 0 0 0 0 0 0 0 0"
    ascent="800"
    descent="-200"
    x-height="560"
    cap-height="750"
    bbox="-659.273 -316.261 1039.25 1091.5"
    underline-thickness="50"
    underline-position="-175"
    unicode-range="U+0020-25CA"
  />
<missing-glyph horiz-adv-x="515" 
d="M422 800v-1030h-326v1030h326zM343 731h-170v-34h67v-38h-68v-34h171v34h-68v38h68v34zM275 598h-103v-107h171v35h-68v72zM240 563v-37h-34v37h34zM343 463h-171v-34h68v-38h-68v-34h103v72h68v34zM343 401h-34v-68h-137v-35h171v103zM343 276h-103v-58h35v24h34v-49
h-103v83h-34v-117h171v117zM343 98h-171v-117h171v117zM309 64v-49h-103v49h103zM343 -43h-171v-34h72l-72 -48v-34h171v34h-105l72 48h33v34z" />
    <glyph glyph-name=".notdef" horiz-adv-x="515" 
d="M422 800v-1030h-326v1030h326zM343 731h-170v-34h67v-38h-68v-34h171v34h-68v38h68v34zM275 598h-103v-107h171v35h-68v72zM240 563v-37h-34v37h34zM343 463h-171v-34h68v-38h-68v-34h103v72h68v34zM343 401h-34v-68h-137v-35h171v103zM343 276h-103v-58h35v24h34v-49
h-103v83h-34v-117h171v117zM343 98h-171v-117h171v117zM309 64v-49h-103v49h103zM343 -43h-171v-34h72l-72 -48v-34h171v34h-105l72 48h33v34z" />
    <glyph glyph-name=".null" horiz-adv-x="0" 
 />
    <glyph glyph-name="nonmarkingreturn" horiz-adv-x="333" 
 />
    <glyph glyph-name="space" unicode=" " horiz-adv-x="225" 
 />
    <glyph glyph-name="exclam" unicode="!" horiz-adv-x="273" 
d="M72 271l-15 458q0 21 21 21h138q21 0 21 -21l-15 -458q0 -21 -21 -21h-108q-21 0 -21 21zM147 -10q-19 0 -41.5 9.5t-39 33.5t-16.5 53q0 18 9.5 40.5t34 39t53.5 16.5q18 0 40.5 -9.5t39 -33.5t16.5 -53q0 -18 -9.5 -40.5t-33.5 -39t-53 -16.5z" />
    <glyph glyph-name="quotedbl" unicode="&#x22;" horiz-adv-x="377" 
d="M40 514l-10 216q0 5 2 12.5t18 7.5h94q11 0 16 -4.5t4 -15.5l-10 -216q-1 -20 -19 -20h-76q-18 0 -19 20zM223 514l-10 216q0 5 2 12.5t18 7.5h94q11 0 16 -4.5t4 -15.5l-10 -216q-1 -20 -19 -20h-76q-18 0 -19 20z" />
    <glyph glyph-name="numbersign" unicode="#" horiz-adv-x="699" 
d="M648 595q21 0 21 -21v-138q0 -21 -21 -21h-77l-14 -82h53q21 0 21 -21v-138q0 -21 -21 -21h-85l-24 -134q-1 -4 -4.5 -11.5t-18.5 -7.5h-137q-11 0 -16 6.5t-3 16.5l23 130h-70l-24 -134q-1 -4 -4.5 -11.5t-18.5 -7.5h-137q-11 0 -16 6.5t-3 16.5l23 130h-44
q-21 0 -21 21v138q0 21 21 21h76l15 82h-53q-21 0 -21 21v138q0 21 21 21h85l24 136q1 4 4.5 11.5t19.5 7.5h137q11 0 15.5 -6t2.5 -17l-23 -132h70l24 136q1 4 4.5 11.5t19.5 7.5h137q11 0 15.5 -6t2.5 -17l-23 -132h44zM377 333l15 82h-71l-14 -82h70z" />
    <glyph glyph-name="dollar" unicode="$" horiz-adv-x="554" 
d="M519 198q0 -53 -24 -97t-65.5 -69t-84.5 -35v-62q0 -21 -21 -21h-86q-21 0 -21 21v62q-77 18 -124.5 76.5t-47.5 147.5q0 18 13 18h134q17 0 18 -16q2 -21 10.5 -41.5t24.5 -31t36 -10.5q24 0 39 13t18 34q4 25 -13.5 51.5t-82.5 71t-99.5 74.5t-56 65.5t-26.5 63
t-5 46.5q0 55 22 95.5t57.5 65.5t82.5 35v56q0 21 21 21h86q21 0 21 -21v-60q46 -12 81 -42t51 -75.5t16 -94.5q0 -18 -13 -18h-134q-17 0 -18 16q-8 72 -50 72q-23 0 -34.5 -16t-6.5 -37q3 -15 19.5 -34t69.5 -57t73 -54.5t37.5 -33.5t35 -40t32.5 -58.5t15 -80.5z" />
    <glyph glyph-name="percent" unicode="%" horiz-adv-x="661" 
d="M166 488q-55 0 -95.5 40.5t-40.5 95.5t40.5 95.5t95.5 40.5t95.5 -40.5t40.5 -95.5t-40.5 -95.5t-95.5 -40.5zM592 750q8 0 12 -4.5t2.5 -9.5t-2.5 -7l-393 -708q-3 -5 -8 -13t-19 -8h-115q-8 0 -12 4.5t-2.5 9.5t2.5 7l393 708q3 5 8 13t19 8h115zM166 587q15 0 26.5 11
t11.5 26t-11.5 26t-26.5 11t-26.5 -11t-11.5 -26t11.5 -26t26.5 -11zM495 -10q-55 0 -95.5 40.5t-40.5 95.5t40.5 95.5t95.5 40.5t95.5 -40.5t40.5 -95.5t-40.5 -95.5t-95.5 -40.5zM495 89q15 0 26.5 11t11.5 26t-11.5 26t-26.5 11t-26.5 -11t-11.5 -26t11.5 -26t26.5 -11z
" />
    <glyph glyph-name="ampersand" unicode="&#x26;" horiz-adv-x="546" 
d="M495 372q21 0 21 -21v-96q0 -21 -21 -21h-24q-4 0 -11.5 -2t-7.5 -17v-17q0 -44 -10.5 -79.5t-31.5 -62.5t-60.5 -46.5t-94.5 -19.5q-66 0 -112.5 27t-72 79t-25.5 130v20q0 80 52 135q-52 54 -52 133v10q0 78 25.5 130t72 79t112.5 27q84 0 135.5 -45.5t61.5 -134.5
q2 -18 -13 -18h-117q-13 0 -17 13q-4 14 -15 24.5t-27 10.5q-19 0 -33.5 -14.5t-14.5 -43.5v-32q0 -29 14.5 -43.5t33.5 -14.5q21 0 21 -21v-118q0 -21 -21 -21q-19 0 -33.5 -14.5t-14.5 -43.5v-46q0 -29 16.5 -43.5t37.5 -14.5q22 0 39 14.5t17 43.5v153q0 21 21 21h149z
" />
    <glyph glyph-name="quotesingle" unicode="'" horiz-adv-x="194" 
d="M40 514l-10 216q0 5 2 12.5t18 7.5h94q11 0 16 -4.5t4 -15.5l-10 -216q-1 -20 -19 -20h-76q-18 0 -19 20z" />
    <glyph glyph-name="parenleft" unicode="(" horiz-adv-x="371" 
d="M250 588v-532q0 -61 60 -61q21 0 21 -21v-109q0 -21 -21 -21q-122 0 -176 49.5t-54 162.5v532q0 71 20.5 116.5t69 71t140.5 24.5q21 0 21 -21v-109q0 -21 -21 -21q-60 0 -60 -61z" />
    <glyph glyph-name="parenright" unicode=")" horiz-adv-x="371" 
d="M121 588q0 61 -60 61q-21 0 -21 21v109q0 21 21 21q77 1 126 -18t76.5 -64t27.5 -130v-532q0 -113 -54 -162.5t-176 -49.5q-21 0 -21 21v109q0 21 21 21q60 0 60 61v532z" />
    <glyph glyph-name="asterisk" unicode="*" horiz-adv-x="502" 
d="M460 559q20 -11 7 -28l-64 -85q-16 -20 -29 -8l-59 59l12 -86q1 -10 -4.5 -15.5t-16.5 -5.5h-110q-11 0 -16.5 5.5t-4.5 15.5l12 86l-59 -59q-13 -12 -29 8l-64 85q-13 17 7 28l79 44l-79 44q-20 11 -7 28l64 85q16 20 29 8l59 -59l-12 86q-1 10 4.5 15.5t16.5 5.5h110
q11 0 16.5 -5.5t4.5 -15.5l-12 -86l59 59q13 12 29 -8l64 -85q13 -17 -7 -28l-79 -44z" />
    <glyph glyph-name="plus" unicode="+" horiz-adv-x="530" 
d="M479 423q21 0 21 -21v-82q0 -21 -21 -21h-133q-4 0 -11.5 -2t-7.5 -17v-133q0 -21 -21 -21h-82q-21 0 -21 21v133q0 4 -2 11.5t-17 7.5h-133q-21 0 -21 21v82q0 21 21 21h133q4 0 11.5 2t7.5 17v132q0 21 21 21h82q21 0 21 -21v-132q0 -4 2 -11.5t17 -7.5h133z" />
    <glyph glyph-name="comma" unicode="," horiz-adv-x="254" 
d="M106 -23q0 2 -3 8.5t-29 24.5t-32.5 32.5t-6.5 30.5q0 17 8.5 37.5t31.5 35.5t50 15q28 0 52 -16t38 -44.5t13 -67t-19 -79.5q-15 -32 -41 -65t-52 -55q-3 -2 -9 -5.5t-15 3.5l-36 30q-2 2 -4.5 6.5t3.5 14.5q3 4 20 27.5t25 38.5t6 28z" />
    <glyph glyph-name="hyphen" unicode="-" horiz-adv-x="342" 
d="M291 351q21 0 21 -21v-82q0 -21 -21 -21h-240q-21 0 -21 21v82q0 21 21 21h240z" />
    <glyph glyph-name="period" unicode="." horiz-adv-x="274" 
d="M147 -10q-19 0 -41.5 9.5t-39 33.5t-16.5 53q0 18 9.5 40.5t34 39t53.5 16.5q19 0 41.5 -9.5t39 -33.5t16.5 -53q0 -18 -9.5 -40.5t-34 -39t-53.5 -16.5z" />
    <glyph glyph-name="slash" unicode="/" horiz-adv-x="567" 
d="M503 780q8 0 11.5 -5.5t0.5 -15.5l-283 -854q-7 -21 -27 -21h-141q-8 0 -11.5 5.5t-0.5 15.5l283 854q7 21 27 21h141z" />
    <glyph glyph-name="zero" unicode="0" 
d="M291 -10q-46 0 -91 14t-79.5 48.5t-55 90.5t-20.5 137v190q0 64 14.5 117.5t44.5 92t77.5 59.5t109.5 21q46 0 91 -14t79.5 -48.5t55 -90.5t20.5 -137v-190q0 -64 -14.5 -117.5t-44.5 -92t-77.5 -59.5t-109.5 -21zM291 156q32 0 49 26t17 97v191q0 72 -17 98t-49 26
t-49 -26t-17 -98v-191q0 -71 17 -97t49 -26z" />
    <glyph glyph-name="one" unicode="1" horiz-adv-x="437" 
d="M356 750q21 0 21 -21v-708q0 -21 -21 -21h-138q-21 0 -21 21v463l-61 -61q-15 -15 -30 0l-88 88q-15 15 0 30l196 196q13 13 24 13h118z" />
    <glyph glyph-name="two" unicode="2" horiz-adv-x="484" 
d="M61 0q-21 0 -21 21v150q0 64 21 112t49 81t84 83t69 77t13 48t-12 33.5t-30 12.5q-35 0 -41 -45q-1 -13 -17 -13h-117q-13 0 -13 18q0 60 25 100t69 61t102 21q42 0 74 -10.5t59 -29.5t48 -57t20 -95q-1 -25 -8 -53t-22.5 -55t-38 -53t-67.5 -66t-60 -56t-25 -31
t-16 -30.5t-6 -31.5v-13q0 -4 2 -11.5t17 -7.5h204q21 0 21 -21v-118q0 -21 -21 -21h-362z" />
    <glyph glyph-name="three" unicode="3" horiz-adv-x="497" 
d="M242 -10q-84 0 -135.5 45.5t-61.5 134.5q-2 18 13 18h117q13 0 17 -13q4 -14 15 -24.5t27 -10.5q19 0 33.5 14.5t14.5 43.5v46q0 29 -14.5 43.5t-33.5 14.5h-41q-21 0 -21 21v118q0 21 21 21h41q19 0 33.5 14.5t14.5 43.5v32q0 29 -14.5 43.5t-32.5 14.5q-16 0 -27 -10.5
t-16 -26.5q-4 -13 -17 -13h-117q-15 0 -13 18q4 39 19 74.5t41.5 59.5t61 36t75.5 12q66 0 112.5 -27t72 -79t25.5 -130v-10q0 -79 -52 -133q52 -55 52 -135v-20q0 -78 -25.5 -130t-72 -79t-112.5 -27z" />
    <glyph glyph-name="four" unicode="4" horiz-adv-x="520" 
d="M469 320q21 0 21 -21v-118q0 -21 -21 -21h-10q-4 0 -11.5 -2t-7.5 -17v-120q0 -21 -21 -21h-138q-21 0 -21 21v120q0 4 -2 11.5t-17 7.5h-210q-21 0 -21 21v104q0 22 13 45l249 407q8 13 24 13h123q21 0 21 -21v-390q0 -4 2 -11.5t17 -7.5h10zM260 339v105l-75 -124h56
q4 0 11.5 2t7.5 17z" />
    <glyph glyph-name="five" unicode="5" horiz-adv-x="499" 
d="M289 530q47 2 84 -23t59 -75.5t22 -127.5v-78q0 -78 -25.5 -130t-72 -79t-112.5 -27q-84 0 -135.5 45.5t-61.5 134.5q-2 18 13 18h117q13 0 17 -13q4 -14 15 -24.5t27 -10.5q19 0 33.5 14.5t14.5 43.5v134q0 29 -14.5 43.5t-33.5 14.5q-16 0 -27 -10.5t-15 -24.5
q-4 -13 -17 -13h-110q-21 0 -21 21l-1 366q0 21 21 21h347q21 0 21 -21v-118q0 -21 -21 -21h-203q-4 0 -11.5 -2t-7.5 -17v-91q37 47 98 50z" />
    <glyph glyph-name="six" unicode="6" horiz-adv-x="526" 
d="M302 498q29 3 60 -5t58 -30t44 -62t17 -97v-78q0 -46 -13 -90t-42 -76t-71 -51t-92 -19q-39 0 -77.5 13t-70.5 41.5t-51 74.5t-19 107v298q0 78 25.5 130t72 79t112.5 27q84 0 135.5 -45.5t61.5 -134.5q2 -18 -13 -18h-117q-13 0 -17 13q-4 14 -15 24.5t-27 10.5
q-19 0 -33.5 -14.5t-14.5 -43.5v-96q36 36 87 42zM311 198v94q0 29 -14.5 43.5t-33.5 14.5t-33.5 -14.5t-14.5 -43.5v-94q0 -29 14.5 -43.5t33.5 -14.5t33.5 14.5t14.5 43.5z" />
    <glyph glyph-name="seven" unicode="7" horiz-adv-x="441" 
d="M390 750q21 0 21 -21v-100q0 -18 -6 -39l-138 -569q-6 -21 -27 -21h-146q-7 0 -11 5.5t-1 15.5l133 557q3 12 -7 12h-157q-21 0 -21 21v118q0 21 21 21h339z" />
    <glyph glyph-name="eight" unicode="8" horiz-adv-x="526" 
d="M263 -10q-45 0 -85 12t-69.5 38t-46.5 68t-17 98v20q0 28 10.5 66.5t61.5 93.5q-37 38 -49.5 73t-12.5 75v10q0 70 25 117t71.5 73t111.5 26t111.5 -26t71.5 -73t25 -117v-10q0 -40 -12.5 -75t-49.5 -73q51 -55 61.5 -93.5t10.5 -66.5v-20q0 -42 -11.5 -82t-38 -70
t-68.5 -47t-100 -17zM263 467q19 0 33.5 14.5t14.5 43.5v32q0 29 -14.5 43.5t-33.5 14.5t-33.5 -14.5t-14.5 -43.5v-32q0 -29 14.5 -43.5t33.5 -14.5zM263 140q19 0 33.5 14.5t14.5 43.5v46q0 32 -14.5 47.5t-33.5 15.5t-33.5 -15.5t-14.5 -47.5v-46q0 -29 14.5 -43.5
t33.5 -14.5z" />
    <glyph glyph-name="nine" unicode="9" horiz-adv-x="526" 
d="M224 252q-29 -2 -60 6t-58 29.5t-44 61.5t-17 97v78q0 46 13 90t42 76t71 51t92 19q39 0 77.5 -13t70.5 -41.5t51 -74.5t19 -107v-298q0 -78 -25.5 -130t-72 -79t-112.5 -27q-84 0 -135.5 45.5t-61.5 134.5q-2 18 13 18h117q13 0 17 -13q4 -14 15 -24.5t27 -10.5
q19 0 33.5 14.5t14.5 43.5v96q-38 -38 -87 -42zM215 552v-94q0 -29 14.5 -43.5t33.5 -14.5t33.5 14.5t14.5 43.5v94q0 29 -14.5 43.5t-33.5 14.5t-33.5 -14.5t-14.5 -43.5z" />
    <glyph glyph-name="colon" unicode=":" horiz-adv-x="273" 
d="M147 284q-19 0 -41.5 9.5t-39 33.5t-16.5 53q0 18 9.5 40.5t34 39t53.5 16.5q18 0 40.5 -9.5t39 -33.5t16.5 -53q0 -18 -9.5 -40.5t-33.5 -39t-53 -16.5zM147 -10q-19 0 -41.5 9.5t-39 33.5t-16.5 53q0 18 9.5 40.5t34 39t53.5 16.5q18 0 40.5 -9.5t39 -33.5t16.5 -53
q0 -18 -9.5 -40.5t-33.5 -39t-53 -16.5z" />
    <glyph glyph-name="semicolon" unicode=";" horiz-adv-x="263" 
d="M137 284q-19 0 -41.5 9.5t-39 33.5t-16.5 53q0 18 9.5 40.5t34 39t53.5 16.5q18 0 40.5 -9.5t39 -33.5t16.5 -53q0 -18 -9.5 -40.5t-33.5 -39t-53 -16.5zM111 -23q0 2 -3 8.5t-29 24.5t-32.5 32.5t-6.5 30.5q0 17 8.5 37.5t31.5 35.5t50 15q28 0 52 -16t38 -44.5t13 -67
t-19 -79.5q-15 -32 -41 -65t-52 -55q-3 -2 -9 -5.5t-15 3.5l-36 30q-2 2 -4.5 6.5t3.5 14.5q3 4 20 27.5t25 38.5t6 28z" />
    <glyph glyph-name="less" unicode="&#x3c;" horiz-adv-x="378" 
d="M334 295l-86 -57q-4 -3 -4 -8t4 -8l86 -57q4 -3 9 -8.5t5 -21.5v-125q0 -7 -5.5 -9.5t-13.5 3.5l-291 211q-8 6 -8 15t8 15l291 211q8 6 13.5 3.5t5.5 -9.5v-125q0 -5 -1 -13.5t-13 -16.5z" />
    <glyph glyph-name="equal" unicode="=" horiz-adv-x="429" 
d="M378 523q21 0 21 -21v-82q0 -21 -21 -21h-327q-21 0 -21 21v82q0 21 21 21h327zM378 323q21 0 21 -21v-82q0 -21 -21 -21h-327q-21 0 -21 21v82q0 21 21 21h327z" />
    <glyph glyph-name="greater" unicode="&#x3e;" horiz-adv-x="378" 
d="M44 295q-14 9 -14 30v125q0 7 5.5 9.5t13.5 -3.5l291 -211q8 -6 8 -15t-8 -15l-291 -211q-8 -6 -13.5 -3.5t-5.5 9.5v125q0 21 14 30l86 57q4 3 4 8t-4 8z" />
    <glyph glyph-name="question" unicode="?" horiz-adv-x="476" 
d="M243 759q30 0 64 -8.5t65 -30t52.5 -58.5t21.5 -91q0 -19 -4.5 -42t-18.5 -48.5t-46 -60.5t-43.5 -50t-19 -29.5t-14 -34.5t-8.5 -45q-1 -21 -21 -21h-98q-21 0 -21 21q0 51 10.5 90.5t25.5 64.5t44.5 57.5t35 45.5t5.5 25q0 22 -14 35.5t-35 13.5q-35 0 -67 -38
q-15 -19 -31 -5l-79 78q-3 3 -6 9.5t6 20.5q16 24 44.5 47.5t66.5 38.5t85 15zM222 -10q-19 0 -41.5 9.5t-39 33.5t-16.5 53q0 18 9.5 40.5t34 39t53.5 16.5q18 0 40.5 -9.5t39 -33.5t16.5 -53q0 -18 -9.5 -40.5t-33.5 -39t-53 -16.5z" />
    <glyph glyph-name="at" unicode="@" horiz-adv-x="1120" 
d="M564 759q122 0 227 -59t171 -169t75 -242q3 -44 2 -98.5t-11.5 -109t-30 -98t-48.5 -73.5t-61.5 -44t-59.5 -17q-53 -7 -95 4t-69.5 36.5t-41.5 62t-14 79.5v36q-40 -18 -71 -23q-50 -8 -96.5 6.5t-81.5 46.5t-55.5 77t-22.5 94q-2 50 15.5 97t50.5 83t78.5 56.5
t96.5 20.5q44 0 86 -18v4q0 6 5.5 10.5t15.5 4.5h98q21 0 21 -21v-465q0 -20 8 -38.5t26 -27.5t38 -6q38 6 61 51t30.5 116t1.5 144q-7 78 -33.5 144t-71.5 114t-107 74t-137 26t-142 -27.5t-116.5 -76.5t-76.5 -115t-27 -139t27 -139.5t75.5 -115t114.5 -76t140 -27.5
q21 0 21 -21v-80q0 -21 -21 -21q-122 0 -232 60t-178.5 173t-68.5 247q0 46 12.5 106t46 121.5t83 111t111.5 83t123 46t108 12.5zM543 183q31 0 65 16v161q-34 15 -65 15q-20 0 -44 -9.5t-41 -33.5t-17 -53q0 -19 10 -41.5t35.5 -38.5t56.5 -16z" />
    <glyph glyph-name="A" unicode="A" horiz-adv-x="564" 
d="M21 20l179 710q1 6 5.5 13t21.5 7h110q12 0 18 -4t9 -16l179 -710q3 -10 -2 -15t-13 -5h-141q-19 0 -24 20l-14 54q-1 4 -3.5 9t-16.5 5h-94q-4 0 -10.5 -1t-9.5 -13l-14 -54q-5 -20 -24 -20h-141q-8 0 -13 5t-2 15zM246 259q-1 -5 1.5 -8t6.5 -3h56q4 0 6.5 3t1.5 8
l-30 146q-1 5 -6 5t-6 -5z" />
    <glyph glyph-name="B" unicode="B" horiz-adv-x="541" 
d="M71 0q-21 0 -21 21v708q0 21 21 21h235q29 0 61 -10.5t60.5 -35.5t48.5 -62.5t20 -81.5v-7q0 -47 -23 -92t-59 -69q46 -23 74 -73t28 -106v-6q0 -40 -15 -78t-42.5 -67t-67 -45.5t-85.5 -16.5h-235zM249 472h28q17 0 30.5 16.5t13.5 40.5v4q0 25 -13 41t-31 16h-28
q-4 0 -11.5 -2t-7.5 -22v-75q0 -4 2 -11.5t17 -7.5zM249 160h25q26 0 44 21t18 53v4q0 33 -17.5 53.5t-44.5 20.5h-25q-4 0 -11.5 -2t-7.5 -17v-114q0 -4 2 -11.5t17 -7.5z" />
    <glyph glyph-name="C" unicode="C" horiz-adv-x="573" 
d="M291 -10q-46 0 -91 14t-79.5 48.5t-55 90.5t-20.5 137v190q0 64 14.5 117.5t44.5 92t77.5 59.5t109.5 21q43 0 86 -12.5t76.5 -41.5t54 -74t20.5 -103q0 -18 -13 -18h-144q-17 0 -18 16q-4 36 -21.5 51.5t-40.5 15.5q-32 0 -49 -26t-17 -98v-190q0 -72 17 -98t49 -26
q23 0 40.5 15.5t21.5 51.5q1 16 18 16h144q13 0 13 -18q0 -46 -14.5 -87.5t-44 -74t-75 -51t-103.5 -18.5z" />
    <glyph glyph-name="D" unicode="D" horiz-adv-x="587" 
d="M286 750q49 0 96 -14t86.5 -52.5t56.5 -98.5t17 -125v-170q0 -65 -17 -125t-56.5 -98.5t-86.5 -52.5t-96 -14h-215q-21 0 -21 21v708q0 21 21 21h215zM362 284v182q0 67 -19.5 95.5t-66.5 28.5h-27q-4 0 -11.5 -2t-7.5 -17v-392q0 -4 2 -11.5t17 -7.5h27q41 0 63.5 24.5
t22.5 99.5z" />
    <glyph glyph-name="E" unicode="E" horiz-adv-x="457" 
d="M230 571v-95q0 -4 2 -11.5t17 -7.5h142q21 0 21 -21v-118q0 -21 -21 -21h-142q-4 0 -11.5 -2t-7.5 -17v-99q0 -4 2 -11.5t17 -7.5h142q21 0 21 -21v-118q0 -21 -21 -21h-320q-21 0 -21 21v708q0 21 21 21h320q21 0 21 -21v-118q0 -21 -21 -21h-142q-4 0 -11.5 -2
t-7.5 -17z" />
    <glyph glyph-name="F" unicode="F" horiz-adv-x="446" 
d="M395 750q21 0 21 -21v-118q0 -21 -21 -21h-146q-4 0 -11.5 -2t-7.5 -17v-95q0 -4 2 -11.5t17 -7.5h96q21 0 21 -21v-118q0 -21 -21 -21h-96q-4 0 -11.5 -2t-7.5 -17v-257q0 -21 -21 -21h-138q-21 0 -21 21v708q0 21 21 21h324z" />
    <glyph glyph-name="G" unicode="G" horiz-adv-x="573" 
d="M508 447q20 0 20 -20v-206q0 -46 -14.5 -87.5t-44 -74t-75 -51t-103.5 -18.5q-46 0 -91 14t-79.5 48.5t-55 90.5t-20.5 137v190q0 64 14.5 117.5t44.5 92t77.5 59.5t109.5 21q43 0 86 -12.5t76.5 -41.5t54 -74t20.5 -103q0 -18 -13 -18h-144q-17 0 -18 16
q-4 36 -21.5 51.5t-40.5 15.5q-32 0 -49 -26t-17 -98v-190q0 -55 15 -89.5t54 -34.5q31 0 48 22.5t17 54.5v54q0 20 -20 20h-40q-20 0 -20 20v100q0 20 20 20h209z" />
    <glyph glyph-name="H" unicode="H" horiz-adv-x="586" 
d="M515 750q21 0 21 -21v-708q0 -21 -21 -21h-138q-21 0 -21 21v257q0 4 -2 11.5t-17 7.5h-88q-4 0 -11.5 -2t-7.5 -17v-257q0 -21 -21 -21h-138q-21 0 -21 21v708q0 21 21 21h138q21 0 21 -21v-253q0 -4 2 -11.5t17 -7.5h88q4 0 11.5 2t7.5 17v253q0 21 21 21h138z" />
    <glyph glyph-name="I" unicode="I" horiz-adv-x="280" 
d="M50 21v708q0 21 21 21h138q21 0 21 -21v-708q0 -21 -21 -21h-138q-21 0 -21 21z" />
    <glyph glyph-name="J" unicode="J" horiz-adv-x="360" 
d="M51 0q-21 0 -21 21v118q0 21 21 21h49q15 0 25 10.5t10 27.5v531q0 21 21 21h138q21 0 21 -21v-546q0 -40 -15.5 -74t-43 -58.5t-63 -37.5t-73.5 -13h-69z" />
    <glyph glyph-name="K" unicode="K" horiz-adv-x="563" 
d="M406 406l140 -389q5 -17 -7 -17h-154q-19 0 -24 11l-91 247q-2 5 -7 5t-7 -5l-17 -40q-9 -19 -9 -36v-161q0 -21 -21 -21h-138q-21 0 -21 21v708q0 21 21 21h138q21 0 21 -21v-245q0 -4 4.5 -5t6.5 4l98 256q4 11 25 11h153q13 0 7 -17l-118 -305q-4 -10 0 -22z" />
    <glyph glyph-name="L" unicode="L" horiz-adv-x="416" 
d="M365 160q21 0 21 -21v-118q0 -21 -21 -21h-294q-21 0 -21 21v708q0 21 21 21h138q21 0 21 -21v-550q0 -4 2 -11.5t17 -7.5h116z" />
    <glyph glyph-name="M" unicode="M" horiz-adv-x="680" 
d="M71 0q-21 0 -21 21v708q0 21 21 21h93q5 0 11.5 -3t11.5 -18l147 -378q1 -4 6 -4t6 4l147 378q4 10 8.5 15.5t14.5 5.5h93q21 0 21 -21v-708q0 -21 -21 -21h-138q-21 0 -21 21v180q0 5 -5 6t-7 -4l-71 -183q-2 -4 -6.5 -12t-19.5 -8h-2q-4 0 -12 2.5t-14 17.5l-71 183
q-2 5 -7 4t-5 -6v-180q0 -21 -21 -21h-138z" />
    <glyph glyph-name="N" unicode="N" horiz-adv-x="597" 
d="M526 750q21 0 21 -21v-708q0 -21 -21 -21h-103q-5 0 -14 2.5t-17 18.5l-151 299q-2 4 -6.5 3.5t-4.5 -5.5v-297q0 -21 -21 -21h-138q-21 0 -21 21v708q0 21 21 21h103q21 0 31 -21l151 -299q2 -4 6.5 -3.5t4.5 5.5v297q0 21 21 21h138z" />
    <glyph glyph-name="O" unicode="O" 
d="M291 -10q-46 0 -91 14t-79.5 48.5t-55 90.5t-20.5 137v190q0 64 14.5 117.5t44.5 92t77.5 59.5t109.5 21q46 0 91 -14t79.5 -48.5t55 -90.5t20.5 -137v-190q0 -64 -14.5 -117.5t-44.5 -92t-77.5 -59.5t-109.5 -21zM291 156q32 0 49 26t17 97v191q0 72 -17 98t-49 26
t-49 -26t-17 -98v-191q0 -71 17 -97t49 -26z" />
    <glyph glyph-name="P" unicode="P" horiz-adv-x="546" 
d="M71 0q-21 0 -21 21v708q0 21 21 21h218q47 0 89 -18t73 -51.5t48 -79t17 -98.5v-22q0 -39 -11.5 -81.5t-43 -83.5t-78.5 -61.5t-94 -20.5h-40q-4 0 -11.5 -2t-7.5 -17v-194q0 -21 -21 -21h-138zM249 404h19q29 0 48.5 23t19.5 64v12q0 41 -19.5 64t-48.5 23h-19
q-4 0 -11.5 -2t-7.5 -17v-148q0 -4 2 -11.5t17 -7.5z" />
    <glyph glyph-name="Q" unicode="Q" 
d="M537 280q0 -57 -11.5 -106t-32 -81t-40.5 -49l79 -134q5 -8 1.5 -14t-10.5 -6h-143q-17 0 -25 14l-51 86h-13q-46 0 -91 14t-79.5 48.5t-55 90.5t-20.5 137v190q0 64 14.5 117.5t44.5 92t77.5 59.5t109.5 21q46 0 91 -14t79.5 -48.5t55 -90.5t20.5 -137v-190zM225 470
v-191q0 -71 17 -97t49 -26t49 26t17 97v191q0 72 -17 98t-49 26t-49 -26t-17 -98z" />
    <glyph glyph-name="R" unicode="R" horiz-adv-x="561" 
d="M544 20q3 -8 0.5 -14t-9.5 -6h-148q-19 0 -25 14l-85 220h-28q-4 0 -11.5 -2t-7.5 -17v-194q0 -21 -21 -21h-138q-21 0 -21 21v708q0 21 21 21h218q47 0 89 -18t73 -51.5t48 -79t17 -98.5v-22q0 -60 -22 -110.5t-60 -83.5zM230 423q0 -4 2 -11.5t17 -7.5h19q29 0 48.5 23
t19.5 64v12q0 41 -19.5 64t-48.5 23h-19q-4 0 -11.5 -2t-7.5 -17v-148z" />
    <glyph glyph-name="S" unicode="S" horiz-adv-x="564" 
d="M519 198q0 -40 -15 -78.5t-48 -67.5t-79 -45.5t-96 -16.5q-49 0 -92.5 15.5t-75.5 45.5t-50 73.5t-18 96.5q0 18 13 18h134q17 0 18 -16q2 -21 10.5 -41.5t24.5 -31t36 -10.5q24 0 39 13t18 34q4 25 -13.5 51.5t-82.5 71t-99.5 74.5t-56 65.5t-26.5 63t-5 46.5
q0 42 15 79t43 64.5t69 42.5t91 15q40 0 80 -11t71 -38t50 -70t19 -102q0 -18 -13 -18h-134q-17 0 -18 16q-8 72 -50 72q-23 0 -34.5 -16t-6.5 -37q3 -15 19.5 -34t69.5 -57t73 -54.5t37.5 -33.5t35 -40t32.5 -58.5t15 -80.5z" />
    <glyph glyph-name="T" unicode="T" horiz-adv-x="502" 
d="M451 750q21 0 21 -21v-118q0 -21 -21 -21h-91q-4 0 -11.5 -2t-7.5 -17v-550q0 -21 -21 -21h-138q-21 0 -21 21v550q0 4 -2 11.5t-17 7.5h-91q-21 0 -21 21v118q0 21 21 21h400z" />
    <glyph glyph-name="U" unicode="U" 
d="M516 750q21 0 21 -21v-396v-53q0 -64 -14.5 -117.5t-44.5 -92t-77.5 -59.5t-109.5 -21q-46 0 -91 14t-79.5 48.5t-55 90.5t-20.5 137v104v345q0 21 21 21h138q21 0 21 -21v-392v-58q0 -71 17 -97t49 -26t49 26t17 97v109v341q0 21 21 21h138z" />
    <glyph glyph-name="V" unicode="V" horiz-adv-x="558" 
d="M357 730q4 20 24 20h142q19 0 14 -20l-179 -710q-1 -5 -5 -12.5t-21 -7.5h-106q-12 0 -17.5 4t-8.5 16l-179 710q-5 20 14 20h142q20 0 24 -20l72 -354q1 -5 6 -5t6 5z" />
    <glyph glyph-name="W" unicode="W" horiz-adv-x="780" 
d="M191 0q-12 0 -18 4t-8 16l-144 710q-4 20 14 20h141q20 0 24 -20l51 -288q1 -5 6 -5.5t6 4.5l68 289q1 5 5 12.5t21 7.5h66q12 0 17.5 -4t8.5 -16l68 -289q1 -5 6 -4.5t6 5.5l51 288q4 20 24 20h141q18 0 14 -20l-144 -710q-2 -12 -8 -16t-18 -4h-90q-5 0 -13.5 2
t-12.5 18l-77 326q-1 5 -6 5t-6 -5l-77 -326q-3 -11 -9 -15.5t-17 -4.5h-90z" />
    <glyph glyph-name="X" unicode="X" horiz-adv-x="588" 
d="M386 20l-86 188q-1 4 -6 4t-6 -4l-86 -188q-9 -20 -26 -20h-148q-8 0 -11.5 6t0.5 14l174 360l-164 350q-4 8 -0.5 14t11.5 6h148q17 0 26 -20l76 -172q1 -4 6 -4t6 4l76 172q9 20 26 20h148q8 0 11.5 -6t-0.5 -14l-164 -350l174 -360q4 -8 0.5 -14t-11.5 -6h-148
q-17 0 -26 20z" />
    <glyph glyph-name="Y" unicode="Y" horiz-adv-x="571" 
d="M528 750q8 0 11.5 -6t0.5 -14l-164 -452v-257q0 -21 -21 -21h-138q-21 0 -21 21v257l-164 452q-3 8 0.5 14t11.5 6h142q19 0 26 -20l68 -211q1 -4 6 -4t6 4l68 211q6 20 26 20h142z" />
    <glyph glyph-name="Z" unicode="Z" horiz-adv-x="484" 
d="M445 590l-215 -418q-2 -4 -1 -8t6 -4h198q21 0 21 -21v-118q0 -21 -21 -21h-382q-21 0 -21 21v107q0 6 1 11.5t8 20.5l223 418q2 4 1 8t-6 4h-206q-21 0 -21 21v118q0 21 21 21h382q21 0 21 -21v-109q0 -9 -1.5 -14t-7.5 -16z" />
    <glyph glyph-name="bracketleft" unicode="[" horiz-adv-x="430" 
d="M250 731v-792q0 -4 2 -11.5t17 -7.5h100q21 0 21 -21v-118q0 -21 -21 -21h-268q-21 0 -21 21v1108q0 21 21 21h268q21 0 21 -21v-118q0 -21 -21 -21h-100q-4 0 -11.5 -2t-7.5 -17z" />
    <glyph glyph-name="backslash" unicode="\" horiz-adv-x="567" 
d="M64 780h141q20 0 27 -21l283 -854q3 -10 -0.5 -15.5t-11.5 -5.5h-141q-20 0 -27 21l-283 854q-3 10 0.5 15.5t11.5 5.5z" />
    <glyph glyph-name="bracketright" unicode="]" horiz-adv-x="430" 
d="M180 731q0 4 -2 11.5t-17 7.5h-100q-21 0 -21 21v118q0 21 21 21h268q21 0 21 -21v-1108q0 -21 -21 -21h-268q-21 0 -21 21v118q0 21 21 21h100q4 0 11.5 2t7.5 17v792z" />
    <glyph glyph-name="asciicircum" unicode="^" horiz-adv-x="520" 
d="M325 418l-57 98q-3 5 -8 5t-8 -5l-57 -98q-9 -14 -30 -14h-125q-7 0 -9 5.5t3 13.5l211 329q5 8 15 8t15 -8l211 -329q5 -8 3 -13.5t-9 -5.5h-125q-21 0 -30 14z" />
    <glyph glyph-name="underscore" unicode="_" horiz-adv-x="469" 
d="M418 -10q21 0 21 -21v-88q0 -21 -21 -21h-367q-21 0 -21 21v88q0 21 21 21h367z" />
    <glyph glyph-name="grave" unicode="`" horiz-adv-x="355" 
d="M293 729q15 -15 0 -30l-66 -66q-15 -15 -30 0l-140 131q-14 14 0 29l65 68q15 15 30 0z" />
    <glyph glyph-name="a" unicode="a" horiz-adv-x="511" 
d="M233 -6q-36 -9 -72 -1.5t-64.5 30t-45 58.5t-16.5 81q0 41 14 73t41.5 55.5t77 39t124.5 18.5v37q0 20 -12 32.5t-31 12.5q-18 0 -29.5 -12t-13.5 -33q-1 -13 -17 -13h-114q-13 0 -13 18q0 60 25.5 99.5t70 60t104.5 20.5q39 0 74.5 -12t63.5 -37.5t44.5 -67t16.5 -96.5
l1 -215q0 -25 1 -53t9 -69q4 -20 -20 -20h-120q-4 0 -11.5 2.5t-11.5 28.5q-33 -27 -76 -37zM249 140q17 1 30 15t13 43v58q-29 -2 -50.5 -12t-29.5 -26t-7 -32q1 -22 13.5 -34.5t30.5 -11.5z" />
    <glyph glyph-name="b" unicode="b" horiz-adv-x="511" 
d="M284 565q36 9 70.5 1t62 -30.5t43.5 -58.5t16 -79v-236q0 -32 -10.5 -65.5t-35.5 -60t-63 -39.5t-83 -2q-30 7 -54 24.5t-41 37.5l-8 -34q-5 -23 -23 -23h-97q-21 0 -21 21v708q0 21 21 21h128q21 0 21 -21v-204q34 30 74 40zM306 198v164q0 29 -14.5 43.5t-33.5 14.5
t-33.5 -14.5t-14.5 -43.5v-96v-68q0 -29 14.5 -43.5t33.5 -14.5t33.5 14.5t14.5 43.5z" />
    <glyph glyph-name="c" unicode="c" horiz-adv-x="477" 
d="M429 188q15 0 13 -18q-10 -89 -61.5 -134.5t-135.5 -45.5q-66 0 -112.5 27t-72 79t-25.5 130v108q0 78 25.5 130t72 79t112.5 27q84 0 135.5 -45.5t61.5 -134.5q2 -18 -13 -18h-117q-13 0 -17 13q-4 14 -15 24.5t-27 10.5q-19 0 -33.5 -14.5t-14.5 -43.5v-164
q0 -29 14.5 -43.5t33.5 -14.5q16 0 27 10.5t15 24.5q4 13 17 13h117z" />
    <glyph glyph-name="d" unicode="d" horiz-adv-x="511" 
d="M450 750q21 0 21 -21v-708q0 -21 -21 -21h-97q-18 0 -23 23l-8 34q-17 -20 -41 -37.5t-54 -24.5q-36 -9 -70.5 -1t-62 30.5t-43.5 58.5t-16 79v236q0 32 10.5 65.5t35.5 60t63 39.5t83 2q40 -10 74 -40v204q0 21 21 21h128zM253 140q19 0 33.5 14.5t14.5 43.5v96v68
q0 29 -14.5 43.5t-33.5 14.5t-33.5 -14.5t-14.5 -43.5v-164q0 -29 14.5 -43.5t33.5 -14.5z" />
    <glyph glyph-name="e" unicode="e" horiz-adv-x="491" 
d="M250 570q37 0 73 -11t66 -37.5t48.5 -73.5t18.5 -113v-15q0 -22 -4 -49q-1 -11 -6 -16t-15 -5h-220q-10 0 -10 -10v-42q0 -29 15.5 -43.5t34.5 -14.5q16 0 28 10.5t16 24.5q4 13 17 13h122q15 0 13 -18q-10 -89 -61.5 -134.5t-135.5 -45.5q-41 0 -84 15.5t-74.5 55
t-44 90t-12.5 105.5v48q0 55 12.5 105.5t40.5 86.5t69 55t93 19zM311 372q0 14 -6.5 28.5t-20.5 22t-28 7.5t-28 -7.5t-20.5 -22t-6.5 -28.5v-2q0 -10 10 -10h90q10 0 10 10v2z" />
    <glyph glyph-name="f" unicode="f" horiz-adv-x="371" 
d="M111 0q-21 0 -21 21v386q0 4 -2 11.5t-17 7.5h-20q-21 0 -21 21v92q0 21 21 21h22q10 0 14.5 3.5t4.5 12.5v3q0 89 56.5 130t171.5 41q21 0 21 -21v-99q0 -21 -21 -21q-30 -1 -47.5 -9.5t-17.5 -21.5v-2q0 -16 16 -16h49q21 0 21 -21v-92q0 -21 -21 -21h-41
q-4 0 -11.5 -2t-7.5 -17v-386q0 -21 -21 -21h-128z" />
    <glyph glyph-name="g" unicode="g" horiz-adv-x="511" 
d="M450 560q21 0 21 -21v-543q0 -78 -25.5 -130t-72 -79t-112.5 -27q-86 0 -141.5 46t-65.5 134q-2 18 13 18h127q13 0 17 -13q4 -14 15 -24.5t27 -10.5q19 0 33.5 14.5t14.5 43.5v67q-34 -30 -74 -40q-36 -9 -70.5 -1t-62 30.5t-43.5 58.5t-16 79v236q0 33 11 67t36.5 59.5
t64 38.5t84.5 3q26 -6 51 -21t42 -33l6 25q5 23 23 23h97zM253 140q19 0 33.5 14.5t14.5 43.5v96v68q0 29 -14.5 43.5t-33.5 14.5t-33.5 -14.5t-14.5 -43.5v-164q0 -29 14.5 -43.5t33.5 -14.5z" />
    <glyph glyph-name="h" unicode="h" horiz-adv-x="516" 
d="M284 565q36 9 70.5 1t62 -30.5t43.5 -58.5t16 -79v-377q0 -21 -21 -21h-128q-21 0 -21 21v341q0 29 -14.5 43.5t-33.5 14.5t-33.5 -14.5t-14.5 -43.5v-341q0 -21 -21 -21h-128q-21 0 -21 21v708q0 21 21 21h128q21 0 21 -21v-204q34 30 74 40z" />
    <glyph glyph-name="i" unicode="i" horiz-adv-x="250" 
d="M125 640q-19 0 -41.5 9.5t-39 33.5t-16.5 53q0 18 9.5 40.5t34 39t53.5 16.5q18 0 40.5 -9.5t39 -33.5t16.5 -53q0 -18 -9.5 -40.5t-33.5 -39t-53 -16.5zM189 560q21 0 21 -21v-518q0 -21 -21 -21h-128q-21 0 -21 21v518q0 21 21 21h128z" />
    <glyph glyph-name="j" unicode="j" horiz-adv-x="250" 
d="M125 640q-19 0 -41.5 9.5t-39 33.5t-16.5 53q0 18 9.5 40.5t34 39t53.5 16.5q18 0 40.5 -9.5t39 -33.5t16.5 -53q0 -18 -9.5 -40.5t-33.5 -39t-53 -16.5zM-20 -79q60 0 60 61v557q0 21 21 21h128q21 0 21 -21v-557q0 -113 -54 -162.5t-176 -49.5q-21 0 -21 21v109
q0 21 21 21z" />
    <glyph glyph-name="k" unicode="k" horiz-adv-x="486" 
d="M475 21q3 -9 -1 -15t-14 -6h-128q-20 0 -27 21l-46 123q-2 6 -8 6.5t-9 -5.5l-21 -50q-11 -24 -11 -38v-36q0 -21 -21 -21h-128q-21 0 -21 21v505v203q0 21 21 21h128q21 0 21 -21v-353q0 -7 6.5 -8t9.5 6l69 166q9 20 27 20h128q10 0 14.5 -6.5t1.5 -13.5l-93 -223
q-4 -10 0 -22z" />
    <glyph glyph-name="l" unicode="l" horiz-adv-x="309" 
d="M258 141q11 -1 16 -6t5 -15v-99q0 -21 -21 -21q-78 0 -124 18t-70 62.5t-24 138.5v510q0 21 21 21h128q21 0 21 -21v-530q0 -51 48 -58z" />
    <glyph glyph-name="m" unicode="m" horiz-adv-x="782" 
d="M550 565q36 9 70.5 1t62 -30.5t43.5 -58.5t16 -79v-377q0 -21 -21 -21h-128q-21 0 -21 21v341q0 29 -14.5 43.5t-33.5 14.5t-33.5 -14.5t-14.5 -43.5v-82v-259q0 -21 -21 -21h-128q-21 0 -21 21v341q0 29 -14.5 43.5t-33.5 14.5t-33.5 -14.5t-14.5 -43.5v-341
q0 -21 -21 -21h-128q-21 0 -21 21v518q0 21 21 21h97q18 0 23 -23l8 -34q17 20 41 37.5t54 24.5q36 9 71.5 0.5t59 -28.5t35.5 -40q17 22 42.5 41t57.5 27z" />
    <glyph glyph-name="n" unicode="n" horiz-adv-x="516" 
d="M284 565q36 9 70.5 1t62 -30.5t43.5 -58.5t16 -79v-377q0 -21 -21 -21h-128q-21 0 -21 21v341q0 29 -14.5 43.5t-33.5 14.5t-33.5 -14.5t-14.5 -43.5v-341q0 -21 -21 -21h-128q-21 0 -21 21v518q0 21 21 21h97q18 0 23 -23l8 -34q17 20 41 37.5t54 24.5z" />
    <glyph glyph-name="o" unicode="o" horiz-adv-x="506" 
d="M253 -10q-39 0 -77.5 13t-70.5 41.5t-51 74.5t-19 107v108q0 46 13 90t42 76t71 51t92 19q39 0 77.5 -13t70.5 -41.5t51 -74.5t19 -107v-108q0 -46 -13 -90t-42 -76t-71 -51t-92 -19zM301 362q0 29 -14.5 43.5t-33.5 14.5t-33.5 -14.5t-14.5 -43.5v-164q0 -29 14.5 -43.5
t33.5 -14.5t33.5 14.5t14.5 43.5v164z" />
    <glyph glyph-name="p" unicode="p" horiz-adv-x="511" 
d="M284 565q36 9 70.5 1t62 -30.5t43.5 -58.5t16 -79v-236q0 -32 -10.5 -65.5t-35.5 -60t-63 -39.5t-83 -2q-40 10 -74 40v-244q0 -21 -21 -21h-128q-21 0 -21 21v748q0 21 21 21h97q18 0 23 -23l8 -34q17 20 41 37.5t54 24.5zM306 198v164q0 29 -14.5 43.5t-33.5 14.5
t-33.5 -14.5t-14.5 -43.5v-96v-68q0 -29 14.5 -43.5t33.5 -14.5t33.5 14.5t14.5 43.5z" />
    <glyph glyph-name="q" unicode="q" horiz-adv-x="511" 
d="M450 560q21 0 21 -21v-748q0 -21 -21 -21h-128q-21 0 -21 21v244q-34 -30 -74 -40q-36 -9 -70.5 -1t-62 30.5t-43.5 58.5t-16 79v236q0 32 10.5 65.5t35.5 60t63 39.5t83 2q30 -7 54 -24.5t41 -37.5l8 34q5 23 23 23h97zM253 140q19 0 33.5 14.5t14.5 43.5v96v68
q0 29 -14.5 43.5t-33.5 14.5t-33.5 -14.5t-14.5 -43.5v-164q0 -29 14.5 -43.5t33.5 -14.5z" />
    <glyph glyph-name="r" unicode="r" horiz-adv-x="376" 
d="M335 570q21 0 21 -21v-119q0 -21 -21 -21q-55 0 -90 -29.5t-35 -94.5v-264q0 -21 -21 -21h-128q-21 0 -21 21v518q0 21 21 21h97q18 0 23 -23l8 -34q55 67 146 67z" />
    <glyph glyph-name="s" unicode="s" horiz-adv-x="447" 
d="M229 -10q-51 0 -91.5 18t-70 57.5t-37.5 104.5q-2 18 13 18h124q14 0 17 -13q9 -45 40 -45q12 0 21 7.5t9 18.5q1 12 -8.5 23.5t-49 30t-56 27t-34.5 22t-30 27.5t-24.5 37.5t-16.5 62.5q-6 83 47.5 133.5t135.5 50.5q33 0 66 -9.5t60.5 -31t44 -56.5t16.5 -83
q0 -18 -13 -18h-114q-16 0 -17 13q-2 16 -9.5 30t-23.5 15q-13 1 -22.5 -6.5t-10.5 -18.5q-1 -12 10.5 -24.5t59.5 -35.5t67 -35t34 -24t29 -29t23.5 -42.5t8.5 -56.5q-1 -28 -12 -57.5t-35.5 -54t-62.5 -40.5t-88 -16z" />
    <glyph glyph-name="t" unicode="t" horiz-adv-x="371" 
d="M320 0q-94 0 -141.5 22.5t-68 65.5t-20.5 113v206q0 4 -2 11.5t-17 7.5h-20q-21 0 -21 21v92q0 21 21 21h30q4 0 11.5 2t7.5 17v80q0 21 21 21h113q21 0 21 -21v-80q0 -4 2 -11.5t17 -7.5h46q21 0 21 -21v-92q0 -21 -21 -21h-41q-4 0 -11.5 -2t-7.5 -17v-206
q0 -61 60 -61q21 0 21 -21v-98q0 -21 -21 -21z" />
    <glyph glyph-name="u" unicode="u" horiz-adv-x="516" 
d="M455 560q21 0 21 -21v-518q0 -21 -21 -21h-97q-18 0 -23 23l-8 34q-17 -20 -41 -37.5t-54 -24.5q-36 -9 -70.5 -1t-62 30.5t-43.5 58.5t-16 79v377q0 21 21 21h128q21 0 21 -21v-341q0 -29 14.5 -43.5t33.5 -14.5t33.5 14.5t14.5 43.5v341q0 21 21 21h128z" />
    <glyph glyph-name="v" unicode="v" horiz-adv-x="511" 
d="M338 540q6 20 23 20h135q8 0 12 -5.5t1 -14.5l-181 -520q-2 -5 -6 -12.5t-20 -7.5h-92q-5 0 -12.5 1.5t-13.5 18.5l-183 520q-3 9 1 14.5t12 5.5h135q17 0 23 -20l78 -248q1 -5 6 -5t6 5z" />
    <glyph glyph-name="w" unicode="w" horiz-adv-x="662" 
d="M648 560q8 0 11.5 -5.5t1.5 -14.5l-134 -520q-3 -11 -9 -15.5t-17 -4.5h-88q-20 0 -26 20l-50 173q-1 5 -6 5t-6 -5l-50 -173q-6 -20 -26 -20h-88q-5 0 -13.5 2t-12.5 18l-134 520q-2 9 1.5 14.5t11.5 5.5h135q18 0 23 -20l45 -199q1 -5 6 -5t6 5l46 199q4 20 26 20h60
q21 0 26 -20l46 -199q1 -5 6 -5t6 5l45 199q5 20 23 20h135z" />
    <glyph glyph-name="x" unicode="x" horiz-adv-x="494" 
d="M491 20q5 -9 0.5 -14.5t-11.5 -5.5h-133q-17 0 -26 20l-69 150q-1 4 -5 4t-5 -4l-69 -150q-9 -20 -26 -20h-133q-7 0 -12 5t1 15l122 256q5 14 0 26l-118 238q-4 9 -0.5 14.5t10.5 5.5h134q17 0 27 -20l64 -139q1 -4 5 -4t5 4l64 139q10 20 27 20h134q7 0 10.5 -5.5
t-0.5 -14.5l-118 -238q-7 -12 0 -26z" />
    <glyph glyph-name="y" unicode="y" horiz-adv-x="491" 
d="M63 -230q-21 0 -21 21v109q0 20 21 21q41 3 59.5 15.5t25.5 33.5q11 32 14.5 51t-6.5 47l-155 472q-3 9 1 14.5t12 5.5h135q18 0 23 -20l68 -248q1 -5 6 -5t6 5l66 248q6 20 23 20h135q8 0 12 -5.5t1 -14.5l-219 -655q-38 -115 -207 -115z" />
    <glyph glyph-name="z" unicode="z" horiz-adv-x="418" 
d="M30 21v89q0 15 7 27l162 274q2 3 1 6t-5 3h-144q-21 0 -21 21v98q0 21 21 21h316q21 0 21 -21v-89q0 -15 -7 -27l-162 -274q-2 -3 -1 -6t5 -3h144q21 0 21 -21v-98q0 -21 -21 -21h-316q-21 0 -21 21z" />
    <glyph glyph-name="braceleft" unicode="{" horiz-adv-x="404" 
d="M293 402q0 -32 -11.5 -61t-40.5 -57q29 -28 40.5 -57t11.5 -61v-194q0 -61 60 -61q21 0 21 -21v-109q0 -21 -21 -21q-122 0 -176 49.5t-54 162.5v151q0 50 -19.5 68.5t-52.5 18.5q-21 0 -21 21v106q0 21 21 21q33 0 52.5 18.5t19.5 68.5v153q0 113 54 162.5t176 49.5
q21 0 21 -21v-109q0 -21 -21 -21q-60 0 -60 -61v-196z" />
    <glyph glyph-name="bar" unicode="|" horiz-adv-x="268" 
d="M100 -229v1024q0 21 21 21h26q21 0 21 -21v-1024q0 -21 -21 -21h-26q-21 0 -21 21z" />
    <glyph glyph-name="braceright" unicode="}" horiz-adv-x="404" 
d="M111 402v196q0 61 -60 61q-21 0 -21 21v109q0 21 21 21q122 0 176 -49.5t54 -162.5v-153q0 -50 19.5 -68.5t52.5 -18.5q21 0 21 -21v-106q0 -21 -21 -21q-33 0 -52.5 -18.5t-19.5 -68.5v-151q0 -113 -54 -162.5t-176 -49.5q-21 0 -21 21v109q0 21 21 21q60 0 60 61v194
q0 32 11.5 61t40.5 57q-29 28 -40.5 57t-11.5 61z" />
    <glyph glyph-name="asciitilde" unicode="~" horiz-adv-x="524" 
d="M364 329q-37 -3 -102.5 15t-68.5 18q-42 7 -64 -22q-9 -12 -21 -5l-70 44q-3 2 -6.5 6t1.5 15q12 27 36.5 45.5t49 25.5t41.5 8q37 3 102.5 -15t68.5 -18q42 -7 64 22q9 12 21 5l70 -44q3 -2 6.5 -6t-1.5 -15q-12 -27 -36.5 -45.5t-49 -25.5t-41.5 -8z" />
    <glyph glyph-name="exclamdown" unicode="&#xa1;" horiz-adv-x="293" 
d="M147 570q18 0 40.5 -9.5t39 -33.5t16.5 -53q0 -18 -9.5 -40.5t-33.5 -39t-53 -16.5q-19 0 -41.5 9.5t-39 33.5t-16.5 53q0 18 9.5 40.5t34 39t53.5 16.5zM72 289q0 21 21 21h108q21 0 21 -21l15 -458q0 -21 -21 -21h-138q-21 0 -21 21z" />
    <glyph glyph-name="cent" unicode="&#xa2;" horiz-adv-x="477" 
d="M429 188q15 0 13 -18q-8 -73 -43 -114.5t-84 -55.5v-65q0 -21 -21 -21h-86q-21 0 -21 21v61q-50 11 -83.5 41.5t-51 77t-17.5 111.5v108q0 52 14.5 102t51 83.5t86.5 44.5v55q0 21 21 21h86q21 0 21 -21v-59q49 -14 84 -55.5t43 -114.5q2 -18 -13 -18h-117q-13 0 -17 13
q-4 14 -15 24.5t-27 10.5q-19 0 -33.5 -14.5t-14.5 -43.5v-164q0 -29 14.5 -43.5t33.5 -14.5q16 0 27 10.5t15 24.5q4 13 17 13h117z" />
    <glyph glyph-name="sterling" unicode="&#xa3;" horiz-adv-x="506" 
d="M455 160q21 0 21 -21v-118q0 -21 -21 -21h-334q-21 0 -21 21v305h-49q-21 0 -21 21v86q0 21 21 21h49v113q0 40 15.5 74t43 58.5t63 37.5t73.5 13h69q21 0 21 -21v-118q0 -21 -21 -21h-49q-15 0 -25 -10.5t-10 -27.5v-98h89q21 0 21 -21v-86q0 -21 -21 -21h-89v-147
q0 -4 2 -11.5t17 -7.5h156z" />
    <glyph glyph-name="currency" unicode="&#xa4;" horiz-adv-x="412" 
d="M327 339l43 -43q15 -15 10.5 -27t-18.5 -25q-14 -14 -25 -18.5t-26 10.5l-43 43q-28 -15 -62 -15q-33 0 -62 15l-43 -43q-12 -12 -22.5 -11t-28.5 19q-14 13 -18.5 25t10.5 27l43 43q-15 27 -15 61t15 61l-43 43q-15 15 -10.5 27t18.5 25q14 14 25 18.5t26 -10.5l43 -43
q29 15 62 15q34 0 62 -15l43 43q12 12 22.5 11t28.5 -19q14 -13 18.5 -25t-10.5 -27l-43 -43q15 -27 15 -61t-15 -61zM206 363q15 0 26.5 11t11.5 26t-11.5 26t-26.5 11t-26.5 -11t-11.5 -26t11.5 -26t26.5 -11z" />
    <glyph glyph-name="yen" unicode="&#xa5;" horiz-adv-x="571" 
d="M540 730l-164 -452v-31h74q21 0 21 -21v-6q0 -21 -21 -21h-74v-60h74q21 0 21 -21v-6q0 -21 -21 -21h-74v-70q0 -21 -21 -21h-138q-21 0 -21 21v70h-75q-21 0 -21 21v6q0 21 21 21h75v60h-75q-21 0 -21 21v6q0 21 21 21h75v31l-164 452q-3 8 0.5 14t11.5 6h142
q19 0 26 -20l68 -211q1 -4 6 -4t6 4l68 211q6 20 26 20h142q8 0 11.5 -6t0.5 -14z" />
    <glyph glyph-name="brokenbar" unicode="&#xa6;" horiz-adv-x="268" 
d="M147 816q21 0 21 -21v-364q0 -21 -21 -21h-26q-21 0 -21 21v364q0 21 21 21h26zM147 156q21 0 21 -21v-364q0 -21 -21 -21h-26q-21 0 -21 21v364q0 21 21 21h26z" />
    <glyph glyph-name="section" unicode="&#xa7;" horiz-adv-x="564" 
d="M519 198q0 -68 -37 -118q17 -23 27 -53t10 -59q0 -40 -15 -78.5t-48 -67.5t-79 -45.5t-96 -16.5q-49 0 -92.5 15.5t-75.5 45.5t-50 73.5t-18 96.5q0 18 13 18h134q17 0 18 -16q2 -21 10.5 -41.5t24.5 -31t36 -10.5q24 0 38.5 13t18.5 34t-5.5 39.5t-29.5 37t-68.5 52
t-70.5 51t-40 35.5t-32.5 39.5t-25.5 50.5t-11 67q0 32 10 64.5t27 55.5q-37 50 -37 110q0 42 15 79t43 64.5t69 42.5t91 15q40 0 80 -11t71 -38t50 -70t19 -102q0 -18 -13 -18h-134q-17 0 -18 16q-8 72 -50 72q-23 0 -34.5 -16t-6.5 -37q3 -15 19.5 -34t69.5 -57t73 -54.5
t37.5 -33.5t35 -40t32.5 -58.5t15 -80.5zM177 326q3 -15 22 -34t90 -61.5t102 -64.5q6 10 7 21q3 18 -6.5 35t-31.5 35.5t-85 55t-89 53.5q-3 -3 -7.5 -13t-1.5 -27z" />
    <glyph glyph-name="dieresis" unicode="&#xa8;" horiz-adv-x="496" 
d="M139 639q-36 0 -62.5 26.5t-26.5 62.5q0 17 9 37.5t31.5 35.5t48.5 15q17 0 38 -9t36 -31t15 -48q0 -36 -26.5 -62.5t-62.5 -26.5zM357 639q-36 0 -62.5 26.5t-26.5 62.5q0 17 9 37.5t31.5 35.5t48.5 15q17 0 38 -9t36 -31t15 -48q0 -36 -26.5 -62.5t-62.5 -26.5z" />
    <glyph glyph-name="copyright" unicode="&#xa9;" horiz-adv-x="878" 
d="M439 -9q-77 0 -147.5 30t-123.5 83t-83 123.5t-30 147.5t30 147.5t83 123.5t123.5 83t147.5 30t147.5 -30t123.5 -83t83 -123.5t30 -147.5t-30 -147.5t-83 -123.5t-123.5 -83t-147.5 -30zM439 73q60 0 115 23.5t96 65t64.5 97t23.5 116.5t-23.5 116.5t-64.5 97t-96 65
t-115 23.5t-115 -23.5t-96 -65t-64.5 -97t-23.5 -116.5t23.5 -116.5t64.5 -97t96 -65t115 -23.5zM451 135q-50 0 -95.5 18.5t-79.5 52t-52.5 77.5t-18.5 92t18.5 92t52.5 77.5t79.5 52t95.5 18.5q37 0 74 -12t67 -31q14 -9 1 -27l-48 -83q-7 -13 -27 -5q-25 11 -57 11
q-42 0 -71 -27t-29 -66t29 -66t71 -27q32 0 57 11q20 8 27 -5l48 -83q13 -18 -1 -27q-30 -19 -67 -31t-74 -12z" />
    <glyph glyph-name="guillemotleft" unicode="&#xab;" horiz-adv-x="503" 
d="M221 264l-25 -26q-7 -8 0 -16l25 -26q4 -4 9 -10t5 -20v-140q0 -8 -6.5 -10.5t-12.5 4.5l-180 195q-6 7 -6 15t6 15l180 195q6 7 12.5 4.5t6.5 -10.5v-140q0 -4 -1 -11t-13 -19zM459 264l-25 -26q-7 -8 0 -16l25 -26q4 -4 9 -10t5 -20v-140q0 -8 -6.5 -10.5t-12.5 4.5
l-180 195q-6 7 -6 15t6 15l180 195q6 7 12.5 4.5t6.5 -10.5v-140q0 -4 -1 -11t-13 -19z" />
    <glyph glyph-name="logicalnot" unicode="&#xac;" horiz-adv-x="600" 
d="M426 460q21 0 21 -21v-255q0 -21 -21 -21h-82q-21 0 -21 21v133q0 4 -2 11.5t-17 7.5h-253q-21 0 -21 21v82q0 21 21 21h375z" />
    <glyph glyph-name="registered" unicode="&#xae;" horiz-adv-x="878" 
d="M439 -8q-77 0 -147.5 30t-123.5 83t-83 123.5t-30 147.5t30 147.5t83 123.5t123.5 83t147.5 30t147.5 -30t123.5 -83t83 -123.5t30 -147.5t-30 -147.5t-83 -123.5t-123.5 -83t-147.5 -30zM439 74q60 0 115 23.5t96 65t64.5 97t23.5 116.5t-23.5 116.5t-64.5 97t-96 65
t-115 23.5t-115 -23.5t-96 -65t-64.5 -97t-23.5 -116.5t23.5 -116.5t64.5 -97t96 -65t115 -23.5zM306 156q-22 0 -22 22v396q0 22 22 22h159q27 0 57.5 -15t53.5 -51t23 -77q0 -91 -64 -133l84 -143q5 -9 1.5 -15t-11.5 -6h-82q-18 0 -26 14l-77 139h-5q-5 0 -12.5 -2
t-7.5 -18v-111q0 -22 -22 -22h-71zM419 407h14q23 0 36.5 12t13.5 34q0 21 -13.5 33t-36.5 12h-14q-5 0 -12.5 -2t-7.5 -18v-51q0 -4 2 -12t18 -8z" />
    <glyph glyph-name="macron" unicode="&#xaf;" horiz-adv-x="382" 
d="M332 583q0 -21 -21 -21h-240q-21 0 -21 21v90q0 21 21 21h240q21 0 21 -21v-90z" />
    <glyph glyph-name="degree" unicode="&#xb0;" horiz-adv-x="372" 
d="M186 488q-55 0 -95.5 40.5t-40.5 95.5t40.5 95.5t95.5 40.5t95.5 -40.5t40.5 -95.5t-40.5 -95.5t-95.5 -40.5zM186 587q15 0 26.5 11t11.5 26t-11.5 26t-26.5 11t-26.5 -11t-11.5 -26t11.5 -26t26.5 -11z" />
    <glyph glyph-name="plusminus" unicode="&#xb1;" horiz-adv-x="530" 
d="M479 523q21 0 21 -21v-82q0 -21 -21 -21h-133q-4 0 -11.5 -2t-7.5 -17v-133q0 -21 -21 -21h-82q-21 0 -21 21v133q0 4 -2 11.5t-17 7.5h-133q-21 0 -21 21v82q0 21 21 21h133q4 0 11.5 2t7.5 17v132q0 21 21 21h82q21 0 21 -21v-132q0 -4 2 -11.5t17 -7.5h133zM478 132
q21 0 21 -21v-82q0 -21 -21 -21h-427q-21 0 -21 21v82q0 21 21 21h427z" />
    <glyph glyph-name="uni00B2" unicode="&#xb2;" horiz-adv-x="412" 
d="M58 189q-18 0 -18 17v123q0 59 27.5 101t81.5 81t65 51t15.5 22.5t4.5 21.5q0 17 -10 27.5t-25 10.5q-13 0 -22 -10t-11 -27q-1 -10 -14 -10h-96q-11 0 -11 14q0 49 22.5 84.5t61 50t77.5 14.5q43 0 83.5 -17.5t61.5 -55t20 -84.5q-1 -27 -11 -58t-33 -58.5t-72 -64.5
t-58.5 -53.5t-9.5 -29.5v-4q0 -3 1.5 -9t13.5 -6h152q18 0 18 -18v-96q0 -17 -18 -17h-296z" />
    <glyph glyph-name="uni00B3" unicode="&#xb3;" horiz-adv-x="423" 
d="M206 180q-39 0 -73 14.5t-57.5 47.5t-30.5 86q-2 15 10 15h96q11 0 14 -11q3 -12 13 -20.5t22 -8.5q15 0 27 12t12 36v18q0 18 -9.5 32.5t-29.5 14.5h-34q-17 0 -17 17v80q0 17 17 17h34q15 0 27 12t12 36v11q0 24 -12 36t-27 12q-12 0 -22 -9.5t-13 -21.5
q-2 -10 -14 -10h-96q-12 0 -10 14q8 54 31.5 87.5t57 48t72.5 14.5q34 0 65 -10t55 -32t38 -58t14 -84v-3q0 -58 -42 -102q42 -44 42 -111v-6q0 -56 -21 -94t-59.5 -59t-91.5 -21z" />
    <glyph glyph-name="acute" unicode="&#xb4;" horiz-adv-x="355" 
d="M57 729l141 132q15 15 30 0l65 -68q14 -15 0 -29l-140 -131q-15 -15 -30 0l-66 66q-15 15 0 30z" />
    <glyph glyph-name="paragraph" unicode="&#xb6;" horiz-adv-x="888" 
d="M837 800q21 0 21 -21v-118q0 -21 -21 -21h-54q-4 0 -11.5 -2t-7.5 -17v-850q0 -21 -21 -21h-138q-21 0 -21 21v850q0 4 -2 11.5t-17 7.5h-40q-4 0 -11.5 -2t-7.5 -17v-850q0 -21 -21 -21h-138q-21 0 -21 21v530q0 4 -2 11.5t-17 7.5h-29q-42 0 -84.5 17t-77.5 48.5
t-55.5 76.5t-20.5 98q0 51 19 96t51.5 77t73 49.5t80.5 17.5h573z" />
    <glyph glyph-name="periodcentered" unicode="&#xb7;" horiz-adv-x="293" 
d="M147 197q-19 0 -41.5 9.5t-39 33.5t-16.5 53q0 18 9.5 40.5t34 39t53.5 16.5q18 0 40.5 -9.5t39 -33.5t16.5 -53q0 -18 -9.5 -40.5t-33.5 -39t-53 -16.5z" />
    <glyph glyph-name="cedilla" unicode="&#xb8;" horiz-adv-x="299" 
d="M133 -38q19 8 43 8t46.5 -14t39.5 -41t17 -64q0 -56 -42 -93.5t-100 -37.5q-29 0 -63 14q-18 7 -12 24l24 59q6 16 22 10q15 -5 27 -5q16 0 28 13t12 30t-12.5 29t-29.5 12q-19 0 -35 -16q-3 -3 -9 -6.5t-17 2.5l-42 19q-13 6 -8 19l39 113l92 -17z" />
    <glyph glyph-name="uni00B9" unicode="&#xb9;" horiz-adv-x="371" 
d="M294 750q17 0 17 -17v-516q0 -17 -17 -17h-113q-18 0 -18 17v315l-50 -50q-12 -12 -24 0l-72 72q-12 13 0 25l160 161q10 10 20 10h97z" />
    <glyph glyph-name="guillemotright" unicode="&#xbb;" horiz-adv-x="503" 
d="M44 264q-4 4 -9 10t-5 20v140q0 8 6.5 10.5t12.5 -4.5l180 -195q6 -7 6 -15t-6 -15l-180 -195q-6 -7 -12.5 -4.5t-6.5 10.5v140q0 4 1 11t13 19l25 26q7 8 0 16zM282 264q-4 4 -9 10t-5 20v140q0 8 6.5 10.5t12.5 -4.5l180 -195q6 -7 6 -15t-6 -15l-180 -195
q-6 -7 -12.5 -4.5t-6.5 10.5v140q0 4 1 11t13 19l25 26q7 8 0 16z" />
    <glyph glyph-name="questiondown" unicode="&#xbf;" horiz-adv-x="476" 
d="M254 569q19 0 41.5 -9.5t39 -33.5t16.5 -53q0 -18 -9.5 -40.5t-34 -39t-53.5 -16.5q-18 0 -40.5 9.5t-39 33.5t-16.5 53q0 18 9.5 40.5t33.5 39t53 16.5zM233 -200q-30 0 -64 8.5t-65 30t-52.5 58.5t-21.5 91q0 19 4.5 42t18.5 48.5t46 60.5t43.5 50t19 29.5t14 34.5
t8.5 45q1 21 21 21h98q21 0 21 -21q0 -51 -10.5 -90.5t-25.5 -64.5t-44.5 -57.5t-35 -45.5t-5.5 -25q0 -22 14 -35.5t35 -13.5q35 0 67 38q15 19 31 5l79 -78q3 -3 6 -9.5t-6 -20.5q-16 -24 -44.5 -47.5t-66.5 -38.5t-85 -15z" />
    <glyph glyph-name="Agrave" unicode="&#xc0;" horiz-adv-x="564" 
d="M145 1015l43 64q7 10 13 12t15 -4l197 -132q9 -7 11 -13t-4 -15l-44 -64q-3 -4 -9.5 -10t-18.5 2l-197 132q-9 6 -10.5 12t4.5 16zM21 20l179 710q1 6 5.5 13t21.5 7h110q12 0 18 -4t9 -16l179 -710q3 -10 -2 -15t-13 -5h-141q-19 0 -24 20l-14 54q-1 4 -3.5 9t-16.5 5
h-94q-4 0 -10.5 -1t-9.5 -13l-14 -54q-5 -20 -24 -20h-141q-8 0 -13 5t-2 15zM246 259q-1 -5 1.5 -8t6.5 -3h56q4 0 6.5 3t1.5 8l-30 146q-1 5 -6 5t-6 -5z" />
    <glyph glyph-name="Aacute" unicode="&#xc1;" horiz-adv-x="564" 
d="M417 965q6 -10 4.5 -16t-10.5 -12l-197 -132q-3 -2 -10.5 -4t-17.5 12l-44 64q-6 9 -4 15t11 13l197 132q9 6 15 4t13 -12zM21 20l179 710q1 6 5.5 13t21.5 7h110q12 0 18 -4t9 -16l179 -710q3 -10 -2 -15t-13 -5h-141q-19 0 -24 20l-14 54q-1 4 -3.5 9t-16.5 5h-94
q-4 0 -10.5 -1t-9.5 -13l-14 -54q-5 -20 -24 -20h-141q-8 0 -13 5t-2 15zM246 259q-1 -5 1.5 -8t6.5 -3h56q4 0 6.5 3t1.5 8l-30 146q-1 5 -6 5t-6 -5z" />
    <glyph glyph-name="Acircumflex" unicode="&#xc2;" horiz-adv-x="564" 
d="M465 885q16 -13 0 -29l-49 -49q-14 -14 -29 0l-105 94l-105 -94q-15 -14 -29 0l-49 49q-16 16 0 29l168 150q7 6 15 6t15 -6zM21 20l179 710q1 6 5.5 13t21.5 7h110q12 0 18 -4t9 -16l179 -710q3 -10 -2 -15t-13 -5h-141q-19 0 -24 20l-14 54q-1 4 -3.5 9t-16.5 5h-94
q-4 0 -10.5 -1t-9.5 -13l-14 -54q-5 -20 -24 -20h-141q-8 0 -13 5t-2 15zM246 259q-1 -5 1.5 -8t6.5 -3h56q4 0 6.5 3t1.5 8l-30 146q-1 5 -6 5t-6 -5z" />
    <glyph glyph-name="Atilde" unicode="&#xc3;" horiz-adv-x="564" 
d="M433 878q12 -8 5 -21q-34 -57 -98 -57q-27 0 -63 16q-40 18 -62 -8q-10 -12 -21 -5l-62 40q-12 9 -5 21q34 57 98 57q27 0 63 -16q40 -18 62 8q10 12 21 5zM21 20l179 710q1 6 5.5 13t21.5 7h110q12 0 18 -4t9 -16l179 -710q3 -10 -2 -15t-13 -5h-141q-19 0 -24 20
l-14 54q-1 4 -3.5 9t-16.5 5h-94q-4 0 -10.5 -1t-9.5 -13l-14 -54q-5 -20 -24 -20h-141q-8 0 -13 5t-2 15zM246 259q-1 -5 1.5 -8t6.5 -3h56q4 0 6.5 3t1.5 8l-30 146q-1 5 -6 5t-6 -5z" />
    <glyph glyph-name="Adieresis" unicode="&#xc4;" horiz-adv-x="564" 
d="M186 800q-35 0 -60.5 25.5t-25.5 60.5q0 16 8.5 36t30.5 34.5t47 14.5q16 0 36.5 -8.5t35 -30t14.5 -46.5q0 -35 -25.5 -60.5t-60.5 -25.5zM378 800q-35 0 -60.5 25.5t-25.5 60.5q0 16 8.5 36t30.5 34.5t47 14.5q16 0 36.5 -8.5t35 -30t14.5 -46.5q0 -35 -25.5 -60.5
t-60.5 -25.5zM21 20l179 710q1 6 5.5 13t21.5 7h110q12 0 18 -4t9 -16l179 -710q3 -10 -2 -15t-13 -5h-141q-19 0 -24 20l-14 54q-1 4 -3.5 9t-16.5 5h-94q-4 0 -10.5 -1t-9.5 -13l-14 -54q-5 -20 -24 -20h-141q-8 0 -13 5t-2 15zM246 259q-1 -5 1.5 -8t6.5 -3h56q4 0 6.5 3
t1.5 8l-30 146q-1 5 -6 5t-6 -5z" />
    <glyph glyph-name="Aring" unicode="&#xc5;" horiz-adv-x="564" 
d="M282 800q-23 0 -51.5 12t-49 42.5t-20.5 66.5q0 23 12 51.5t42.5 49t66.5 20.5q23 0 51.5 -12t49 -42.5t20.5 -66.5q0 -23 -12 -51.5t-42.5 -49t-66.5 -20.5zM282 879q16 0 28.5 12.5t12.5 29.5t-12.5 29.5t-28.5 12.5q-17 0 -29.5 -12.5t-12.5 -29.5t12.5 -29.5
t29.5 -12.5zM21 20l179 710q1 6 5.5 13t21.5 7h110q12 0 18 -4t9 -16l179 -710q3 -10 -2 -15t-13 -5h-141q-19 0 -24 20l-14 54q-1 4 -3.5 9t-16.5 5h-94q-4 0 -10.5 -1t-9.5 -13l-14 -54q-5 -20 -24 -20h-141q-8 0 -13 5t-2 15zM246 259q-1 -5 1.5 -8t6.5 -3h56q4 0 6.5 3
t1.5 8l-30 146q-1 5 -6 5t-6 -5z" />
    <glyph glyph-name="AE" unicode="&#xc6;" horiz-adv-x="727" 
d="M514 590q-4 0 -11.5 -2t-7.5 -17v-95q0 -4 2 -11.5t17 -7.5h142q21 0 21 -21v-118q0 -21 -21 -21h-142q-4 0 -11.5 -2t-7.5 -17v-99q0 -4 2 -11.5t17 -7.5h142q21 0 21 -21v-118q0 -21 -21 -21h-320q-21 0 -21 21v67h-76q-4 0 -10 -1t-10 -13l-18 -54q-2 -5 -6.5 -12.5
t-17.5 -7.5h-142q-8 0 -12 5t-1 15l234 710q1 5 5.5 12.5t20.5 7.5h374q21 0 21 -21v-118q0 -21 -21 -21h-142zM277 248h38v152q-2 0 -4 -1.5t-2 -3.5l-40 -136q-2 -6 1 -8.5t7 -2.5z" />
    <glyph glyph-name="Ccedilla" unicode="&#xc7;" horiz-adv-x="573" 
d="M528 221q0 -63 -24.5 -111.5t-66.5 -78t-100 -38.5l-11 -31q19 8 43 8t46.5 -14t39.5 -41t17 -64q0 -56 -42 -93.5t-100 -37.5q-29 0 -63 14q-18 7 -12 24l24 59q6 16 22 10q15 -5 27 -5q16 0 28 13t12 30t-12.5 29t-29.5 12q-19 0 -35 -16q-3 -3 -9 -6.5t-17 2.5l-42 19
q-13 6 -8 19l24 70q-61 10 -103.5 44.5t-66.5 94t-24 147.5v190q0 64 14.5 117.5t44.5 92t77.5 59.5t109.5 21q43 0 86 -12.5t76.5 -41.5t54 -74t20.5 -103q0 -18 -13 -18h-144q-17 0 -18 16q-4 36 -21.5 51.5t-40.5 15.5q-32 0 -49 -26t-17 -98v-190q0 -72 17 -98t49 -26
q23 0 40.5 15.5t21.5 51.5q1 16 18 16h144q13 0 13 -18z" />
    <glyph glyph-name="Egrave" unicode="&#xc8;" horiz-adv-x="457" 
d="M94 1015l43 64q7 10 13 12t15 -4l197 -132q9 -7 11 -13t-4 -15l-44 -64q-3 -4 -9.5 -10t-18.5 2l-197 132q-9 6 -10.5 12t4.5 16zM230 571v-95q0 -4 2 -11.5t17 -7.5h142q21 0 21 -21v-118q0 -21 -21 -21h-142q-4 0 -11.5 -2t-7.5 -17v-99q0 -4 2 -11.5t17 -7.5h142
q21 0 21 -21v-118q0 -21 -21 -21h-320q-21 0 -21 21v708q0 21 21 21h320q21 0 21 -21v-118q0 -21 -21 -21h-142q-4 0 -11.5 -2t-7.5 -17z" />
    <glyph glyph-name="Eacute" unicode="&#xc9;" horiz-adv-x="457" 
d="M366 965q6 -10 4.5 -16t-10.5 -12l-197 -132q-3 -2 -10.5 -4t-17.5 12l-44 64q-6 9 -4 15t11 13l197 132q9 6 15 4t13 -12zM230 571v-95q0 -4 2 -11.5t17 -7.5h142q21 0 21 -21v-118q0 -21 -21 -21h-142q-4 0 -11.5 -2t-7.5 -17v-99q0 -4 2 -11.5t17 -7.5h142
q21 0 21 -21v-118q0 -21 -21 -21h-320q-21 0 -21 21v708q0 21 21 21h320q21 0 21 -21v-118q0 -21 -21 -21h-142q-4 0 -11.5 -2t-7.5 -17z" />
    <glyph glyph-name="Ecircumflex" unicode="&#xca;" horiz-adv-x="457" 
d="M414 885q16 -13 0 -29l-49 -49q-14 -14 -29 0l-105 94l-105 -94q-15 -14 -29 0l-49 49q-16 16 0 29l168 150q7 6 15 6t15 -6zM230 571v-95q0 -4 2 -11.5t17 -7.5h142q21 0 21 -21v-118q0 -21 -21 -21h-142q-4 0 -11.5 -2t-7.5 -17v-99q0 -4 2 -11.5t17 -7.5h142
q21 0 21 -21v-118q0 -21 -21 -21h-320q-21 0 -21 21v708q0 21 21 21h320q21 0 21 -21v-118q0 -21 -21 -21h-142q-4 0 -11.5 -2t-7.5 -17z" />
    <glyph glyph-name="Edieresis" unicode="&#xcb;" horiz-adv-x="457" 
d="M135 800q-35 0 -60.5 25.5t-25.5 60.5q0 16 8.5 36t30.5 34.5t47 14.5q16 0 36.5 -8.5t35 -30t14.5 -46.5q0 -35 -25.5 -60.5t-60.5 -25.5zM327 800q-35 0 -60.5 25.5t-25.5 60.5q0 16 8.5 36t30.5 34.5t47 14.5q16 0 36.5 -8.5t35 -30t14.5 -46.5q0 -35 -25.5 -60.5
t-60.5 -25.5zM230 571v-95q0 -4 2 -11.5t17 -7.5h142q21 0 21 -21v-118q0 -21 -21 -21h-142q-4 0 -11.5 -2t-7.5 -17v-99q0 -4 2 -11.5t17 -7.5h142q21 0 21 -21v-118q0 -21 -21 -21h-320q-21 0 -21 21v708q0 21 21 21h320q21 0 21 -21v-118q0 -21 -21 -21h-142
q-4 0 -11.5 -2t-7.5 -17z" />
    <glyph glyph-name="Igrave" unicode="&#xcc;" horiz-adv-x="280" 
d="M3 1015l43 64q7 10 13 12t15 -4l197 -132q9 -7 11 -13t-4 -15l-44 -64q-3 -4 -9.5 -10t-18.5 2l-197 132q-9 6 -10.5 12t4.5 16zM50 21v708q0 21 21 21h138q21 0 21 -21v-708q0 -21 -21 -21h-138q-21 0 -21 21z" />
    <glyph glyph-name="Iacute" unicode="&#xcd;" horiz-adv-x="280" 
d="M275 965q6 -10 4.5 -16t-10.5 -12l-197 -132q-3 -2 -10.5 -4t-17.5 12l-44 64q-6 9 -4 15t11 13l197 132q9 6 15 4t13 -12zM50 21v708q0 21 21 21h138q21 0 21 -21v-708q0 -21 -21 -21h-138q-21 0 -21 21z" />
    <glyph glyph-name="Icircumflex" unicode="&#xce;" horiz-adv-x="280" 
d="M323 885q16 -13 0 -29l-49 -49q-14 -14 -29 0l-105 94l-105 -94q-15 -14 -29 0l-49 49q-16 16 0 29l168 150q7 6 15 6t15 -6zM50 21v708q0 21 21 21h138q21 0 21 -21v-708q0 -21 -21 -21h-138q-21 0 -21 21z" />
    <glyph glyph-name="Idieresis" unicode="&#xcf;" horiz-adv-x="280" 
d="M44 800q-35 0 -60.5 25.5t-25.5 60.5q0 16 8.5 36t30.5 34.5t47 14.5q16 0 36.5 -8.5t35 -30t14.5 -46.5q0 -35 -25.5 -60.5t-60.5 -25.5zM236 800q-35 0 -60.5 25.5t-25.5 60.5q0 16 8.5 36t30.5 34.5t47 14.5q16 0 36.5 -8.5t35 -30t14.5 -46.5q0 -35 -25.5 -60.5
t-60.5 -25.5zM50 21v708q0 21 21 21h138q21 0 21 -21v-708q0 -21 -21 -21h-138q-21 0 -21 21z" />
    <glyph glyph-name="Eth" unicode="&#xd0;" horiz-adv-x="607" 
d="M306 750q49 0 96 -14t86.5 -52.5t56.5 -98.5t17 -125v-170q0 -65 -17 -125t-56.5 -98.5t-86.5 -52.5t-96 -14h-215q-21 0 -21 21v280q0 4 -2 11.5t-17 7.5h-10q-21 0 -21 21v72q0 21 21 21h10q4 0 11.5 2t7.5 17v276q0 21 21 21h215zM382 284v182q0 67 -19.5 95.5
t-66.5 28.5h-27q-4 0 -11.5 -2t-7.5 -17v-118q0 -4 2 -11.5t17 -7.5h46q21 0 21 -21v-72q0 -21 -21 -21h-46q-4 0 -11.5 -2t-7.5 -17v-122q0 -4 2 -11.5t17 -7.5h27q41 0 63.5 24.5t22.5 99.5z" />
    <glyph glyph-name="Ntilde" unicode="&#xd1;" horiz-adv-x="597" 
d="M449 878q12 -8 5 -21q-34 -57 -98 -57q-27 0 -63 16q-40 18 -62 -8q-10 -12 -21 -5l-62 40q-12 9 -5 21q34 57 98 57q27 0 63 -16q40 -18 62 8q10 12 21 5zM526 750q21 0 21 -21v-708q0 -21 -21 -21h-103q-5 0 -14 2.5t-17 18.5l-151 299q-2 4 -6.5 3.5t-4.5 -5.5v-297
q0 -21 -21 -21h-138q-21 0 -21 21v708q0 21 21 21h103q21 0 31 -21l151 -299q2 -4 6.5 -3.5t4.5 5.5v297q0 21 21 21h138z" />
    <glyph glyph-name="Ograve" unicode="&#xd2;" 
d="M154 1015l43 64q7 10 13 12t15 -4l197 -132q9 -7 11 -13t-4 -15l-44 -64q-3 -4 -9.5 -10t-18.5 2l-197 132q-9 6 -10.5 12t4.5 16zM291 -10q-46 0 -91 14t-79.5 48.5t-55 90.5t-20.5 137v190q0 64 14.5 117.5t44.5 92t77.5 59.5t109.5 21q46 0 91 -14t79.5 -48.5
t55 -90.5t20.5 -137v-190q0 -64 -14.5 -117.5t-44.5 -92t-77.5 -59.5t-109.5 -21zM291 156q32 0 49 26t17 97v191q0 72 -17 98t-49 26t-49 -26t-17 -98v-191q0 -71 17 -97t49 -26z" />
    <glyph glyph-name="Oacute" unicode="&#xd3;" 
d="M426 965q6 -10 4.5 -16t-10.5 -12l-197 -132q-3 -2 -10.5 -4t-17.5 12l-44 64q-6 9 -4 15t11 13l197 132q9 6 15 4t13 -12zM291 -10q-46 0 -91 14t-79.5 48.5t-55 90.5t-20.5 137v190q0 64 14.5 117.5t44.5 92t77.5 59.5t109.5 21q46 0 91 -14t79.5 -48.5t55 -90.5
t20.5 -137v-190q0 -64 -14.5 -117.5t-44.5 -92t-77.5 -59.5t-109.5 -21zM291 156q32 0 49 26t17 97v191q0 72 -17 98t-49 26t-49 -26t-17 -98v-191q0 -71 17 -97t49 -26z" />
    <glyph glyph-name="Ocircumflex" unicode="&#xd4;" 
d="M474 885q16 -13 0 -29l-49 -49q-14 -14 -29 0l-105 94l-105 -94q-15 -14 -29 0l-49 49q-16 16 0 29l168 150q7 6 15 6t15 -6zM291 -10q-46 0 -91 14t-79.5 48.5t-55 90.5t-20.5 137v190q0 64 14.5 117.5t44.5 92t77.5 59.5t109.5 21q46 0 91 -14t79.5 -48.5t55 -90.5
t20.5 -137v-190q0 -64 -14.5 -117.5t-44.5 -92t-77.5 -59.5t-109.5 -21zM291 156q32 0 49 26t17 97v191q0 72 -17 98t-49 26t-49 -26t-17 -98v-191q0 -71 17 -97t49 -26z" />
    <glyph glyph-name="Otilde" unicode="&#xd5;" 
d="M442 878q12 -8 5 -21q-34 -57 -98 -57q-27 0 -63 16q-40 18 -62 -8q-10 -12 -21 -5l-62 40q-12 9 -5 21q34 57 98 57q27 0 63 -16q40 -18 62 8q10 12 21 5zM291 -10q-46 0 -91 14t-79.5 48.5t-55 90.5t-20.5 137v190q0 64 14.5 117.5t44.5 92t77.5 59.5t109.5 21
q46 0 91 -14t79.5 -48.5t55 -90.5t20.5 -137v-190q0 -64 -14.5 -117.5t-44.5 -92t-77.5 -59.5t-109.5 -21zM291 156q32 0 49 26t17 97v191q0 72 -17 98t-49 26t-49 -26t-17 -98v-191q0 -71 17 -97t49 -26z" />
    <glyph glyph-name="Odieresis" unicode="&#xd6;" 
d="M195 800q-35 0 -60.5 25.5t-25.5 60.5q0 16 8.5 36t30.5 34.5t47 14.5q16 0 36.5 -8.5t35 -30t14.5 -46.5q0 -35 -25.5 -60.5t-60.5 -25.5zM387 800q-35 0 -60.5 25.5t-25.5 60.5q0 16 8.5 36t30.5 34.5t47 14.5q16 0 36.5 -8.5t35 -30t14.5 -46.5q0 -35 -25.5 -60.5
t-60.5 -25.5zM291 -10q-46 0 -91 14t-79.5 48.5t-55 90.5t-20.5 137v190q0 64 14.5 117.5t44.5 92t77.5 59.5t109.5 21q46 0 91 -14t79.5 -48.5t55 -90.5t20.5 -137v-190q0 -64 -14.5 -117.5t-44.5 -92t-77.5 -59.5t-109.5 -21zM291 156q32 0 49 26t17 97v191q0 72 -17 98
t-49 26t-49 -26t-17 -98v-191q0 -71 17 -97t49 -26z" />
    <glyph glyph-name="multiply" unicode="&#xd7;" horiz-adv-x="506" 
d="M360 555q15 15 30 0l58 -58q14 -15 0 -30l-94 -94q-3 -3 -7 -9.5t7 -17.5l94 -94q7 -7 7 -14.5t-7 -14.5l-58 -58q-15 -15 -30 0l-94 94q-3 3 -9.5 6.5t-17.5 -6.5l-94 -94q-14 -16 -30 0l-58 58q-14 15 0 29l95 94q3 3 6.5 10t-6.5 17l-94 94q-14 15 0 29l58 58
q15 15 30 0l93 -93q3 -3 9.5 -7t17.5 7z" />
    <glyph glyph-name="Oslash" unicode="&#xd8;" 
d="M547 751q8 0 13 -5.5t-1 -15.5l-55 -92q33 -69 33 -168v-190q0 -64 -14.5 -117.5t-44.5 -92t-77.5 -59.5t-109.5 -21q-91 0 -149 43l-7 -12q-3 -5 -9 -13t-20 -8h-72q-8 0 -13 5.5t1 15.5l55 92q-17 35 -24.5 79t-7.5 88v190q0 64 14.5 117.5t44.5 92t77.5 59.5t109.5 21
q89 0 148 -42l7 12q3 5 9 13t20 8h72zM225 470v-110l119 200q-15 34 -53 34q-32 0 -49 -26t-17 -98zM357 279v113l-120 -201q7 -16 20.5 -25.5t33.5 -9.5q32 0 49 26t17 97z" />
    <glyph glyph-name="Ugrave" unicode="&#xd9;" 
d="M160 987q-9 6 -10.5 12t4.5 16l43 64q7 10 13 12t15 -4l197 -132q9 -7 11 -13t-4 -15l-44 -64q-3 -4 -9.5 -10t-18.5 2zM516 750q21 0 21 -21v-396v-53q0 -64 -14.5 -117.5t-44.5 -92t-77.5 -59.5t-109.5 -21q-46 0 -91 14t-79.5 48.5t-55 90.5t-20.5 137v104v345
q0 21 21 21h138q21 0 21 -21v-392v-58q0 -71 17 -97t49 -26t49 26t17 97v109v341q0 21 21 21h138z" />
    <glyph glyph-name="Uacute" unicode="&#xda;" 
d="M195 813l-44 64q-6 9 -4 15t11 13l197 132q9 6 15 4t13 -12l43 -64q6 -10 4.5 -16t-10.5 -12l-197 -132q-3 -2 -10.5 -4t-17.5 12zM516 750q21 0 21 -21v-396v-53q0 -64 -14.5 -117.5t-44.5 -92t-77.5 -59.5t-109.5 -21q-46 0 -91 14t-79.5 48.5t-55 90.5t-20.5 137v104
v345q0 21 21 21h138q21 0 21 -21v-392v-58q0 -71 17 -97t49 -26t49 26t17 97v109v341q0 21 21 21h138z" />
    <glyph glyph-name="Ucircumflex" unicode="&#xdb;" 
d="M157 807l-49 49q-16 16 0 29l168 150q7 6 15 6t15 -6l168 -150q16 -13 0 -29l-49 -49q-14 -14 -29 0l-105 94l-105 -94q-15 -14 -29 0zM516 750q21 0 21 -21v-396v-53q0 -64 -14.5 -117.5t-44.5 -92t-77.5 -59.5t-109.5 -21q-46 0 -91 14t-79.5 48.5t-55 90.5t-20.5 137
v104v345q0 21 21 21h138q21 0 21 -21v-392v-58q0 -71 17 -97t49 -26t49 26t17 97v109v341q0 21 21 21h138z" />
    <glyph glyph-name="Udieresis" unicode="&#xdc;" 
d="M195 800q-35 0 -60.5 25.5t-25.5 60.5q0 16 8.5 36t30.5 34.5t47 14.5q16 0 36.5 -8.5t35 -30t14.5 -46.5q0 -35 -25.5 -60.5t-60.5 -25.5zM387 800q-35 0 -60.5 25.5t-25.5 60.5q0 16 8.5 36t30.5 34.5t47 14.5q16 0 36.5 -8.5t35 -30t14.5 -46.5q0 -35 -25.5 -60.5
t-60.5 -25.5zM516 750q21 0 21 -21v-396v-53q0 -64 -14.5 -117.5t-44.5 -92t-77.5 -59.5t-109.5 -21q-46 0 -91 14t-79.5 48.5t-55 90.5t-20.5 137v104v345q0 21 21 21h138q21 0 21 -21v-392v-58q0 -71 17 -97t49 -26t49 26t17 97v109v341q0 21 21 21h138z" />
    <glyph glyph-name="Yacute" unicode="&#xdd;" horiz-adv-x="571" 
d="M421 965q6 -10 4.5 -16t-10.5 -12l-197 -132q-3 -2 -10.5 -4t-17.5 12l-44 64q-6 9 -4 15t11 13l197 132q9 6 15 4t13 -12zM528 750q8 0 11.5 -6t0.5 -14l-164 -452v-257q0 -21 -21 -21h-138q-21 0 -21 21v257l-164 452q-3 8 0.5 14t11.5 6h142q19 0 26 -20l68 -211
q1 -4 6 -4t6 4l68 211q6 20 26 20h142z" />
    <glyph glyph-name="Thorn" unicode="&#xde;" horiz-adv-x="546" 
d="M280 660q76 0 128 -33t80 -93t28 -144v-30q0 -84 -28 -144t-80 -93t-128 -33h-31q-4 0 -11.5 -2t-7.5 -17v-50q0 -21 -21 -21h-138q-21 0 -21 21v708q0 21 21 21h138q21 0 21 -21v-50q0 -4 2 -11.5t17 -7.5h31zM336 374v2q0 72 -17 98t-49 26h-21q-4 0 -11.5 -2t-7.5 -17
v-212q0 -4 2 -11.5t17 -7.5h21q32 0 49 26t17 98z" />
    <glyph glyph-name="germandbls" unicode="&#xdf;" horiz-adv-x="554" 
d="M444 402q-3 -22 1.5 -46.5t36.5 -83.5t36 -96q16 -142 -229 -191q-5 -1 -11 1t-10 20l-22 106q-4 20 15 26q44 13 64.5 28.5t17.5 36.5q-2 16 -27.5 56t-35.5 68.5t-7 56.5q3 27 27 84t24 86q0 26 -13.5 41t-36.5 15q-34 0 -49 -33.5t-15 -101.5v-454q0 -21 -21 -21h-128
q-21 0 -21 21v503q0 76 29 128t79.5 80t115.5 28q38 0 77.5 -11t72 -34t52.5 -58.5t20 -80.5q0 -38 -20 -99t-22 -75z" />
    <glyph glyph-name="agrave" unicode="&#xe0;" horiz-adv-x="511" 
d="M368 729q15 -15 0 -30l-66 -66q-15 -15 -30 0l-140 131q-14 14 0 29l65 68q15 15 30 0zM233 -6q-36 -9 -72 -1.5t-64.5 30t-45 58.5t-16.5 81q0 41 14 73t41.5 55.5t77 39t124.5 18.5v37q0 20 -12 32.5t-31 12.5q-18 0 -29.5 -12t-13.5 -33q-1 -13 -17 -13h-114
q-13 0 -13 18q0 60 25.5 99.5t70 60t104.5 20.5q39 0 74.5 -12t63.5 -37.5t44.5 -67t16.5 -96.5l1 -215q0 -25 1 -53t9 -69q4 -20 -20 -20h-120q-4 0 -11.5 2.5t-11.5 28.5q-33 -27 -76 -37zM249 140q17 1 30 15t13 43v58q-29 -2 -50.5 -12t-29.5 -26t-7 -32
q1 -22 13.5 -34.5t30.5 -11.5z" />
    <glyph glyph-name="aacute" unicode="&#xe1;" horiz-adv-x="511" 
d="M132 729l141 132q15 15 30 0l65 -68q14 -15 0 -29l-140 -131q-15 -15 -30 0l-66 66q-15 15 0 30zM233 -6q-36 -9 -72 -1.5t-64.5 30t-45 58.5t-16.5 81q0 41 14 73t41.5 55.5t77 39t124.5 18.5v37q0 20 -12 32.5t-31 12.5q-18 0 -29.5 -12t-13.5 -33q-1 -13 -17 -13h-114
q-13 0 -13 18q0 60 25.5 99.5t70 60t104.5 20.5q39 0 74.5 -12t63.5 -37.5t44.5 -67t16.5 -96.5l1 -215q0 -25 1 -53t9 -69q4 -20 -20 -20h-120q-4 0 -11.5 2.5t-11.5 28.5q-33 -27 -76 -37zM249 140q17 1 30 15t13 43v58q-29 -2 -50.5 -12t-29.5 -26t-7 -32
q1 -22 13.5 -34.5t30.5 -11.5z" />
    <glyph glyph-name="acircumflex" unicode="&#xe2;" horiz-adv-x="511" 
d="M435 711q16 -13 0 -29l-49 -49q-14 -14 -29 0l-105 94l-105 -94q-15 -14 -29 0l-49 49q-16 16 0 29l168 150q7 6 15 6t15 -6zM233 -6q-36 -9 -72 -1.5t-64.5 30t-45 58.5t-16.5 81q0 41 14 73t41.5 55.5t77 39t124.5 18.5v37q0 20 -12 32.5t-31 12.5q-18 0 -29.5 -12
t-13.5 -33q-1 -13 -17 -13h-114q-13 0 -13 18q0 60 25.5 99.5t70 60t104.5 20.5q39 0 74.5 -12t63.5 -37.5t44.5 -67t16.5 -96.5l1 -215q0 -25 1 -53t9 -69q4 -20 -20 -20h-120q-4 0 -11.5 2.5t-11.5 28.5q-33 -27 -76 -37zM249 140q17 1 30 15t13 43v58q-29 -2 -50.5 -12
t-29.5 -26t-7 -32q1 -22 13.5 -34.5t30.5 -11.5z" />
    <glyph glyph-name="atilde" unicode="&#xe3;" horiz-adv-x="511" 
d="M418 759q13 -7 5 -21q-20 -38 -52 -60.5t-63 -22.5q-24 0 -50 9t-28 10q-42 13 -62 -13q-5 -7 -10 -8t-11 3l-70 40q-7 4 -8 9t3 12q20 38 52 60.5t63 22.5q24 0 50 -9t28 -10q42 -13 62 13q5 7 10 8t11 -3zM233 -6q-36 -9 -72 -1.5t-64.5 30t-45 58.5t-16.5 81
q0 41 14 73t41.5 55.5t77 39t124.5 18.5v37q0 20 -12 32.5t-31 12.5q-18 0 -29.5 -12t-13.5 -33q-1 -13 -17 -13h-114q-13 0 -13 18q0 60 25.5 99.5t70 60t104.5 20.5q39 0 74.5 -12t63.5 -37.5t44.5 -67t16.5 -96.5l1 -215q0 -25 1 -53t9 -69q4 -20 -20 -20h-120
q-4 0 -11.5 2.5t-11.5 28.5q-33 -27 -76 -37zM249 140q17 1 30 15t13 43v58q-29 -2 -50.5 -12t-29.5 -26t-7 -32q1 -22 13.5 -34.5t30.5 -11.5z" />
    <glyph glyph-name="adieresis" unicode="&#xe4;" horiz-adv-x="511" 
d="M143 639q-36 0 -62.5 26.5t-26.5 62.5q0 17 9 37.5t31.5 35.5t48.5 15q17 0 38 -9t36 -31t15 -48q0 -36 -26.5 -62.5t-62.5 -26.5zM361 639q-36 0 -62.5 26.5t-26.5 62.5q0 17 9 37.5t31.5 35.5t48.5 15q17 0 38 -9t36 -31t15 -48q0 -36 -26.5 -62.5t-62.5 -26.5zM233 -6
q-36 -9 -72 -1.5t-64.5 30t-45 58.5t-16.5 81q0 41 14 73t41.5 55.5t77 39t124.5 18.5v37q0 20 -12 32.5t-31 12.5q-18 0 -29.5 -12t-13.5 -33q-1 -13 -17 -13h-114q-13 0 -13 18q0 60 25.5 99.5t70 60t104.5 20.5q39 0 74.5 -12t63.5 -37.5t44.5 -67t16.5 -96.5l1 -215
q0 -25 1 -53t9 -69q4 -20 -20 -20h-120q-4 0 -11.5 2.5t-11.5 28.5q-33 -27 -76 -37zM249 140q17 1 30 15t13 43v58q-29 -2 -50.5 -12t-29.5 -26t-7 -32q1 -22 13.5 -34.5t30.5 -11.5z" />
    <glyph glyph-name="aring" unicode="&#xe5;" horiz-adv-x="511" 
d="M252 624q-52 0 -89.5 37.5t-37.5 90.5q0 52 37.5 89.5t89.5 37.5t89.5 -37.5t37.5 -89.5q0 -53 -37.5 -90.5t-89.5 -37.5zM252 710q16 0 28.5 12.5t12.5 29.5t-12.5 29.5t-28.5 12.5q-17 0 -29.5 -12.5t-12.5 -29.5t12.5 -29.5t29.5 -12.5zM233 -6q-36 -9 -72 -1.5
t-64.5 30t-45 58.5t-16.5 81q0 41 14 73t41.5 55.5t77 39t124.5 18.5v37q0 20 -12 32.5t-31 12.5q-18 0 -29.5 -12t-13.5 -33q-1 -13 -17 -13h-114q-13 0 -13 18q0 60 25.5 99.5t70 60t104.5 20.5q39 0 74.5 -12t63.5 -37.5t44.5 -67t16.5 -96.5l1 -215q0 -25 1 -53t9 -69
q4 -20 -20 -20h-120q-4 0 -11.5 2.5t-11.5 28.5q-33 -27 -76 -37zM249 140q17 1 30 15t13 43v58q-29 -2 -50.5 -12t-29.5 -26t-7 -32q1 -22 13.5 -34.5t30.5 -11.5z" />
    <glyph glyph-name="ae" unicode="&#xe6;" horiz-adv-x="753" 
d="M510 570q61 0 108 -28t73.5 -79.5t26.5 -127.5v-15q0 -32 -4 -59q-1 -11 -6 -16t-15 -5h-221q-10 0 -10 -10v-32q0 -29 14.5 -43.5t33.5 -14.5q16 0 27 10.5t15 24.5q4 13 17 13h127q15 0 13 -18q-10 -88 -65.5 -134t-141.5 -46q-35 0 -68 9t-56 25.5t-37 33.5
q-25 -22 -50.5 -39t-57.5 -25q-36 -8 -72 -0.5t-64.5 29.5t-45 58t-16.5 81q0 55 27 95.5t84.5 64t145.5 26.5v14q0 29 -14.5 43.5t-33.5 14.5q-16 0 -27 -10.5t-15 -24.5q-4 -13 -17 -13h-117q-15 0 -13 18q10 89 61.5 134.5t135.5 45.5q78 0 130 -38q27 18 62 28t66 10z
M558 360v2q0 29 -14.5 43.5t-33.5 14.5t-33.5 -14.5t-14.5 -43.5v-2q0 -10 10 -10h76q10 0 10 10zM292 198v58q-29 -2 -50.5 -12t-29.5 -26t-7 -32q1 -22 13.5 -34.5t30.5 -11.5q17 1 30 15t13 43z" />
    <glyph glyph-name="ccedilla" unicode="&#xe7;" horiz-adv-x="477" 
d="M429 188q15 0 13 -18q-6 -53 -27 -90t-52.5 -58t-71.5 -28l-11 -32q19 8 43 8t46.5 -14t39.5 -41t17 -64q0 -56 -42 -93.5t-100 -37.5q-29 0 -63 14q-18 7 -12 24l24 59q6 16 22 10q15 -5 27 -5q16 0 28 13t12 30t-12.5 29t-29.5 12q-19 0 -35 -16q-3 -3 -9 -6.5t-17 2.5
l-42 19q-13 6 -8 19l24 71q-52 10 -86.5 40t-53 77.5t-18.5 113.5v108q0 78 25.5 130t72 79t112.5 27q84 0 135.5 -45.5t61.5 -134.5q2 -18 -13 -18h-117q-13 0 -17 13q-4 14 -15 24.5t-27 10.5q-19 0 -33.5 -14.5t-14.5 -43.5v-164q0 -29 14.5 -43.5t33.5 -14.5
q16 0 27 10.5t15 24.5q4 13 17 13h117z" />
    <glyph glyph-name="egrave" unicode="&#xe8;" horiz-adv-x="491" 
d="M369 729q15 -15 0 -30l-66 -66q-15 -15 -30 0l-140 131q-14 14 0 29l65 68q15 15 30 0zM250 570q37 0 73 -11t66 -37.5t48.5 -73.5t18.5 -113v-15q0 -22 -4 -49q-1 -11 -6 -16t-15 -5h-220q-10 0 -10 -10v-42q0 -29 15.5 -43.5t34.5 -14.5q16 0 28 10.5t16 24.5
q4 13 17 13h122q15 0 13 -18q-10 -89 -61.5 -134.5t-135.5 -45.5q-41 0 -84 15.5t-74.5 55t-44 90t-12.5 105.5v48q0 55 12.5 105.5t40.5 86.5t69 55t93 19zM311 372q0 14 -6.5 28.5t-20.5 22t-28 7.5t-28 -7.5t-20.5 -22t-6.5 -28.5v-2q0 -10 10 -10h90q10 0 10 10v2z" />
    <glyph glyph-name="eacute" unicode="&#xe9;" horiz-adv-x="491" 
d="M133 729l141 132q15 15 30 0l65 -68q14 -15 0 -29l-140 -131q-15 -15 -30 0l-66 66q-15 15 0 30zM250 570q37 0 73 -11t66 -37.5t48.5 -73.5t18.5 -113v-15q0 -22 -4 -49q-1 -11 -6 -16t-15 -5h-220q-10 0 -10 -10v-42q0 -29 15.5 -43.5t34.5 -14.5q16 0 28 10.5t16 24.5
q4 13 17 13h122q15 0 13 -18q-10 -89 -61.5 -134.5t-135.5 -45.5q-41 0 -84 15.5t-74.5 55t-44 90t-12.5 105.5v48q0 55 12.5 105.5t40.5 86.5t69 55t93 19zM311 372q0 14 -6.5 28.5t-20.5 22t-28 7.5t-28 -7.5t-20.5 -22t-6.5 -28.5v-2q0 -10 10 -10h90q10 0 10 10v2z" />
    <glyph glyph-name="ecircumflex" unicode="&#xea;" horiz-adv-x="491" 
d="M436 711q16 -13 0 -29l-49 -49q-14 -14 -29 0l-105 94l-105 -94q-15 -14 -29 0l-49 49q-16 16 0 29l168 150q7 6 15 6t15 -6zM250 570q37 0 73 -11t66 -37.5t48.5 -73.5t18.5 -113v-15q0 -22 -4 -49q-1 -11 -6 -16t-15 -5h-220q-10 0 -10 -10v-42q0 -29 15.5 -43.5
t34.5 -14.5q16 0 28 10.5t16 24.5q4 13 17 13h122q15 0 13 -18q-10 -89 -61.5 -134.5t-135.5 -45.5q-41 0 -84 15.5t-74.5 55t-44 90t-12.5 105.5v48q0 55 12.5 105.5t40.5 86.5t69 55t93 19zM311 372q0 14 -6.5 28.5t-20.5 22t-28 7.5t-28 -7.5t-20.5 -22t-6.5 -28.5v-2
q0 -10 10 -10h90q10 0 10 10v2z" />
    <glyph glyph-name="edieresis" unicode="&#xeb;" horiz-adv-x="491" 
d="M144 639q-36 0 -62.5 26.5t-26.5 62.5q0 17 9 37.5t31.5 35.5t48.5 15q17 0 38 -9t36 -31t15 -48q0 -36 -26.5 -62.5t-62.5 -26.5zM362 639q-36 0 -62.5 26.5t-26.5 62.5q0 17 9 37.5t31.5 35.5t48.5 15q17 0 38 -9t36 -31t15 -48q0 -36 -26.5 -62.5t-62.5 -26.5z
M250 570q37 0 73 -11t66 -37.5t48.5 -73.5t18.5 -113v-15q0 -22 -4 -49q-1 -11 -6 -16t-15 -5h-220q-10 0 -10 -10v-42q0 -29 15.5 -43.5t34.5 -14.5q16 0 28 10.5t16 24.5q4 13 17 13h122q15 0 13 -18q-10 -89 -61.5 -134.5t-135.5 -45.5q-41 0 -84 15.5t-74.5 55t-44 90
t-12.5 105.5v48q0 55 12.5 105.5t40.5 86.5t69 55t93 19zM311 372q0 14 -6.5 28.5t-20.5 22t-28 7.5t-28 -7.5t-20.5 -22t-6.5 -28.5v-2q0 -10 10 -10h90q10 0 10 10v2z" />
    <glyph glyph-name="igrave" unicode="&#xec;" horiz-adv-x="250" 
d="M241 729q15 -15 0 -30l-66 -66q-15 -15 -30 0l-140 131q-14 14 0 29l65 68q15 15 30 0zM189 560q21 0 21 -21v-518q0 -21 -21 -21h-128q-21 0 -21 21v518q0 21 21 21h128z" />
    <glyph glyph-name="iacute" unicode="&#xed;" horiz-adv-x="250" 
d="M5 729l141 132q15 15 30 0l65 -68q14 -15 0 -29l-140 -131q-15 -15 -30 0l-66 66q-15 15 0 30zM189 560q21 0 21 -21v-518q0 -21 -21 -21h-128q-21 0 -21 21v518q0 21 21 21h128z" />
    <glyph glyph-name="icircumflex" unicode="&#xee;" horiz-adv-x="250" 
d="M308 711q16 -13 0 -29l-49 -49q-14 -14 -29 0l-105 94l-105 -94q-15 -14 -29 0l-49 49q-16 16 0 29l168 150q7 6 15 6t15 -6zM189 560q21 0 21 -21v-518q0 -21 -21 -21h-128q-21 0 -21 21v518q0 21 21 21h128z" />
    <glyph glyph-name="idieresis" unicode="&#xef;" horiz-adv-x="250" 
d="M16 639q-36 0 -62.5 26.5t-26.5 62.5q0 17 9 37.5t31.5 35.5t48.5 15q17 0 38 -9t36 -31t15 -48q0 -36 -26.5 -62.5t-62.5 -26.5zM234 639q-36 0 -62.5 26.5t-26.5 62.5q0 17 9 37.5t31.5 35.5t48.5 15q17 0 38 -9t36 -31t15 -48q0 -36 -26.5 -62.5t-62.5 -26.5zM189 560
q21 0 21 -21v-518q0 -21 -21 -21h-128q-21 0 -21 21v518q0 21 21 21h128z" />
    <glyph glyph-name="eth" unicode="&#xf0;" horiz-adv-x="526" 
d="M263 -10q-39 0 -77.5 13t-70.5 41.5t-51 74.5t-19 107v78q0 43 11.5 82t37 65t59.5 38.5t71 8.5q51 -6 87 -42q0 69 -1 84.5t-3 24.5l-44 -41q-15 -15 -30 0l-66 66q-15 15 0 30l41 39q-6 2 -18.5 5.5t-42.5 7.5q-11 1 -16 6t-5 15v86q0 21 21 21q48 0 95 -9t82 -24
l44 41q3 3 11 7t19 -7l65 -68q7 -8 7.5 -15t-7.5 -14l-32 -30q21 -35 30.5 -60.5t14.5 -66t5 -107.5v-221q0 -46 -13 -90t-42 -76t-71 -51t-92 -19zM263 140q19 0 33.5 14.5t14.5 43.5v94q0 29 -14.5 43.5t-33.5 14.5t-33.5 -14.5t-14.5 -43.5v-94q0 -29 14.5 -43.5
t33.5 -14.5z" />
    <glyph glyph-name="ntilde" unicode="&#xf1;" horiz-adv-x="516" 
d="M76 696q-7 4 -8 9t3 12q20 38 52 60.5t63 22.5q24 0 50 -9t28 -10q42 -13 62 13q5 7 10 8t11 -3l70 -40q13 -7 5 -21q-20 -38 -52 -60.5t-63 -22.5q-24 0 -50 9t-28 10q-42 13 -62 -13q-5 -7 -10 -8t-11 3zM284 565q36 9 70.5 1t62 -30.5t43.5 -58.5t16 -79v-377
q0 -21 -21 -21h-128q-21 0 -21 21v341q0 29 -14.5 43.5t-33.5 14.5t-33.5 -14.5t-14.5 -43.5v-341q0 -21 -21 -21h-128q-21 0 -21 21v518q0 21 21 21h97q18 0 23 -23l8 -34q17 20 41 37.5t54 24.5z" />
    <glyph glyph-name="ograve" unicode="&#xf2;" horiz-adv-x="506" 
d="M369 729q15 -15 0 -30l-66 -66q-15 -15 -30 0l-140 131q-14 14 0 29l65 68q15 15 30 0zM253 -10q-39 0 -77.5 13t-70.5 41.5t-51 74.5t-19 107v108q0 46 13 90t42 76t71 51t92 19q39 0 77.5 -13t70.5 -41.5t51 -74.5t19 -107v-108q0 -46 -13 -90t-42 -76t-71 -51t-92 -19
zM301 362q0 29 -14.5 43.5t-33.5 14.5t-33.5 -14.5t-14.5 -43.5v-164q0 -29 14.5 -43.5t33.5 -14.5t33.5 14.5t14.5 43.5v164z" />
    <glyph glyph-name="oacute" unicode="&#xf3;" horiz-adv-x="506" 
d="M133 729l141 132q15 15 30 0l65 -68q14 -15 0 -29l-140 -131q-15 -15 -30 0l-66 66q-15 15 0 30zM253 -10q-39 0 -77.5 13t-70.5 41.5t-51 74.5t-19 107v108q0 46 13 90t42 76t71 51t92 19q39 0 77.5 -13t70.5 -41.5t51 -74.5t19 -107v-108q0 -46 -13 -90t-42 -76
t-71 -51t-92 -19zM301 362q0 29 -14.5 43.5t-33.5 14.5t-33.5 -14.5t-14.5 -43.5v-164q0 -29 14.5 -43.5t33.5 -14.5t33.5 14.5t14.5 43.5v164z" />
    <glyph glyph-name="ocircumflex" unicode="&#xf4;" horiz-adv-x="506" 
d="M436 711q16 -13 0 -29l-49 -49q-14 -14 -29 0l-105 94l-105 -94q-15 -14 -29 0l-49 49q-16 16 0 29l168 150q7 6 15 6t15 -6zM253 -10q-39 0 -77.5 13t-70.5 41.5t-51 74.5t-19 107v108q0 46 13 90t42 76t71 51t92 19q39 0 77.5 -13t70.5 -41.5t51 -74.5t19 -107v-108
q0 -46 -13 -90t-42 -76t-71 -51t-92 -19zM301 362q0 29 -14.5 43.5t-33.5 14.5t-33.5 -14.5t-14.5 -43.5v-164q0 -29 14.5 -43.5t33.5 -14.5t33.5 14.5t14.5 43.5v164z" />
    <glyph glyph-name="otilde" unicode="&#xf5;" horiz-adv-x="506" 
d="M419 759q13 -7 5 -21q-20 -38 -52 -60.5t-63 -22.5q-24 0 -50 9t-28 10q-42 13 -62 -13q-5 -7 -10 -8t-11 3l-70 40q-7 4 -8 9t3 12q20 38 52 60.5t63 22.5q24 0 50 -9t28 -10q42 -13 62 13q5 7 10 8t11 -3zM253 -10q-39 0 -77.5 13t-70.5 41.5t-51 74.5t-19 107v108
q0 46 13 90t42 76t71 51t92 19q39 0 77.5 -13t70.5 -41.5t51 -74.5t19 -107v-108q0 -46 -13 -90t-42 -76t-71 -51t-92 -19zM301 362q0 29 -14.5 43.5t-33.5 14.5t-33.5 -14.5t-14.5 -43.5v-164q0 -29 14.5 -43.5t33.5 -14.5t33.5 14.5t14.5 43.5v164z" />
    <glyph glyph-name="odieresis" unicode="&#xf6;" horiz-adv-x="506" 
d="M144 639q-36 0 -62.5 26.5t-26.5 62.5q0 17 9 37.5t31.5 35.5t48.5 15q17 0 38 -9t36 -31t15 -48q0 -36 -26.5 -62.5t-62.5 -26.5zM362 639q-36 0 -62.5 26.5t-26.5 62.5q0 17 9 37.5t31.5 35.5t48.5 15q17 0 38 -9t36 -31t15 -48q0 -36 -26.5 -62.5t-62.5 -26.5z
M253 -10q-39 0 -77.5 13t-70.5 41.5t-51 74.5t-19 107v108q0 46 13 90t42 76t71 51t92 19q39 0 77.5 -13t70.5 -41.5t51 -74.5t19 -107v-108q0 -46 -13 -90t-42 -76t-71 -51t-92 -19zM301 362q0 29 -14.5 43.5t-33.5 14.5t-33.5 -14.5t-14.5 -43.5v-164q0 -29 14.5 -43.5
t33.5 -14.5t33.5 14.5t14.5 43.5v164z" />
    <glyph glyph-name="divide" unicode="&#xf7;" horiz-adv-x="529" 
d="M265 473q-19 0 -41.5 9.5t-39 33.5t-16.5 53q0 18 9.5 40.5t34 39t53.5 16.5q18 0 40.5 -9.5t39 -33.5t16.5 -53q0 -18 -9.5 -40.5t-33.5 -39t-53 -16.5zM478 423q21 0 21 -21v-82q0 -21 -21 -21h-427q-21 0 -21 21v82q0 21 21 21h427zM265 57q-19 0 -41.5 9.5t-39 33.5
t-16.5 53q0 18 9.5 40.5t34 39t53.5 16.5q18 0 40.5 -9.5t39 -33.5t16.5 -53q0 -18 -9.5 -40.5t-33.5 -39t-53 -16.5z" />
    <glyph glyph-name="oslash" unicode="&#xf8;" horiz-adv-x="506" 
d="M485 560q7 0 9.5 -6.5t-2.5 -14.5l-53 -71q32 -54 32 -134v-108q0 -46 -13 -90t-42 -76t-71 -51t-92 -19q-36 0 -73 11.5t-65 34.5l-12 -15q-15 -21 -34 -21h-48q-7 0 -9.5 6.5t2.5 14.5l53 71q-32 54 -32 134v108q0 46 13 90t42 76t71 51t92 19q36 0 73 -11.5t65 -34.5
l12 15q15 21 31 21h51zM205 362v-87l89 119q-6 13 -17.5 19.5t-23.5 6.5q-19 0 -33.5 -14.5t-14.5 -43.5zM301 198v87l-89 -119q6 -13 17.5 -19.5t23.5 -6.5q19 0 33.5 14.5t14.5 43.5z" />
    <glyph glyph-name="ugrave" unicode="&#xf9;" horiz-adv-x="516" 
d="M278 633l-140 131q-14 14 0 29l65 68q15 15 30 0l141 -132q15 -15 0 -30l-66 -66q-15 -15 -30 0zM455 560q21 0 21 -21v-518q0 -21 -21 -21h-97q-18 0 -23 23l-8 34q-17 -20 -41 -37.5t-54 -24.5q-36 -9 -70.5 -1t-62 30.5t-43.5 58.5t-16 79v377q0 21 21 21h128
q21 0 21 -21v-341q0 -29 14.5 -43.5t33.5 -14.5t33.5 14.5t14.5 43.5v341q0 21 21 21h128z" />
    <glyph glyph-name="uacute" unicode="&#xfa;" horiz-adv-x="516" 
d="M204 633l-66 66q-15 15 0 30l141 132q15 15 30 0l65 -68q14 -15 0 -29l-140 -131q-15 -15 -30 0zM455 560q21 0 21 -21v-518q0 -21 -21 -21h-97q-18 0 -23 23l-8 34q-17 -20 -41 -37.5t-54 -24.5q-36 -9 -70.5 -1t-62 30.5t-43.5 58.5t-16 79v377q0 21 21 21h128
q21 0 21 -21v-341q0 -29 14.5 -43.5t33.5 -14.5t33.5 14.5t14.5 43.5v341q0 21 21 21h128z" />
    <glyph glyph-name="ucircumflex" unicode="&#xfb;" horiz-adv-x="516" 
d="M124 633l-49 49q-16 16 0 29l168 150q7 6 15 6t15 -6l168 -150q16 -13 0 -29l-49 -49q-14 -14 -29 0l-105 94l-105 -94q-15 -14 -29 0zM455 560q21 0 21 -21v-518q0 -21 -21 -21h-97q-18 0 -23 23l-8 34q-17 -20 -41 -37.5t-54 -24.5q-36 -9 -70.5 -1t-62 30.5
t-43.5 58.5t-16 79v377q0 21 21 21h128q21 0 21 -21v-341q0 -29 14.5 -43.5t33.5 -14.5t33.5 14.5t14.5 43.5v341q0 21 21 21h128z" />
    <glyph glyph-name="udieresis" unicode="&#xfc;" horiz-adv-x="516" 
d="M149 639q-36 0 -62.5 26.5t-26.5 62.5q0 17 9 37.5t31.5 35.5t48.5 15q17 0 38 -9t36 -31t15 -48q0 -36 -26.5 -62.5t-62.5 -26.5zM367 639q-36 0 -62.5 26.5t-26.5 62.5q0 17 9 37.5t31.5 35.5t48.5 15q17 0 38 -9t36 -31t15 -48q0 -36 -26.5 -62.5t-62.5 -26.5z
M455 560q21 0 21 -21v-518q0 -21 -21 -21h-97q-18 0 -23 23l-8 34q-17 -20 -41 -37.5t-54 -24.5q-36 -9 -70.5 -1t-62 30.5t-43.5 58.5t-16 79v377q0 21 21 21h128q21 0 21 -21v-341q0 -29 14.5 -43.5t33.5 -14.5t33.5 14.5t14.5 43.5v341q0 21 21 21h128z" />
    <glyph glyph-name="yacute" unicode="&#xfd;" horiz-adv-x="491" 
d="M125 729l141 132q15 15 30 0l65 -68q14 -15 0 -29l-140 -131q-15 -15 -30 0l-66 66q-15 15 0 30zM63 -230q-21 0 -21 21v109q0 20 21 21q41 3 59.5 15.5t25.5 33.5q11 32 14.5 51t-6.5 47l-155 472q-3 9 1 14.5t12 5.5h135q18 0 23 -20l68 -248q1 -5 6 -5t6 5l66 248
q6 20 23 20h135q8 0 12 -5.5t1 -14.5l-219 -655q-38 -115 -207 -115z" />
    <glyph glyph-name="thorn" unicode="&#xfe;" horiz-adv-x="511" 
d="M284 565q36 9 70.5 1t62 -30.5t43.5 -58.5t16 -79v-236q0 -32 -10.5 -65.5t-35.5 -60t-63 -39.5t-83 -2q-40 10 -74 40v-244q0 -21 -21 -21h-128q-21 0 -21 21v938q0 21 21 21h125q11 0 17 -6t6 -17l1 -202q34 31 74 40zM306 198v164q0 29 -14.5 43.5t-33.5 14.5
t-33.5 -14.5t-14.5 -43.5v-96v-68q0 -29 14.5 -43.5t33.5 -14.5t33.5 14.5t14.5 43.5z" />
    <glyph glyph-name="ydieresis" unicode="&#xff;" horiz-adv-x="491" 
d="M136 639q-36 0 -62.5 26.5t-26.5 62.5q0 17 9 37.5t31.5 35.5t48.5 15q17 0 38 -9t36 -31t15 -48q0 -36 -26.5 -62.5t-62.5 -26.5zM354 639q-36 0 -62.5 26.5t-26.5 62.5q0 17 9 37.5t31.5 35.5t48.5 15q17 0 38 -9t36 -31t15 -48q0 -36 -26.5 -62.5t-62.5 -26.5z
M63 -230q-21 0 -21 21v109q0 20 21 21q41 3 59.5 15.5t25.5 33.5q11 32 14.5 51t-6.5 47l-155 472q-3 9 1 14.5t12 5.5h135q18 0 23 -20l68 -248q1 -5 6 -5t6 5l66 248q6 20 23 20h135q8 0 12 -5.5t1 -14.5l-219 -655q-38 -115 -207 -115z" />
    <glyph glyph-name="Amacron" unicode="&#x100;" horiz-adv-x="564" 
d="M392 921q21 0 21 -21v-79q0 -21 -21 -21h-220q-21 0 -21 21v79q0 21 21 21h220zM21 20l179 710q1 6 5.5 13t21.5 7h110q12 0 18 -4t9 -16l179 -710q3 -10 -2 -15t-13 -5h-141q-19 0 -24 20l-14 54q-1 4 -3.5 9t-16.5 5h-94q-4 0 -10.5 -1t-9.5 -13l-14 -54
q-5 -20 -24 -20h-141q-8 0 -13 5t-2 15zM246 259q-1 -5 1.5 -8t6.5 -3h56q4 0 6.5 3t1.5 8l-30 146q-1 5 -6 5t-6 -5z" />
    <glyph glyph-name="amacron" unicode="&#x101;" horiz-adv-x="511" 
d="M393 683q0 -21 -21 -21h-240q-21 0 -21 21v90q0 21 21 21h240q21 0 21 -21v-90zM233 -6q-36 -9 -72 -1.5t-64.5 30t-45 58.5t-16.5 81q0 41 14 73t41.5 55.5t77 39t124.5 18.5v37q0 20 -12 32.5t-31 12.5q-18 0 -29.5 -12t-13.5 -33q-1 -13 -17 -13h-114q-13 0 -13 18
q0 60 25.5 99.5t70 60t104.5 20.5q39 0 74.5 -12t63.5 -37.5t44.5 -67t16.5 -96.5l1 -215q0 -25 1 -53t9 -69q4 -20 -20 -20h-120q-4 0 -11.5 2.5t-11.5 28.5q-33 -27 -76 -37zM249 140q17 1 30 15t13 43v58q-29 -2 -50.5 -12t-29.5 -26t-7 -32q1 -22 13.5 -34.5t30.5 -11.5
z" />
    <glyph glyph-name="Abreve" unicode="&#x102;" horiz-adv-x="564" 
d="M459 911q14 -14 0 -30q-74 -81 -177 -81t-177 81q-14 16 0 30l52 51q14 14 32 -2q20 -18 41.5 -29.5t51.5 -11.5q23 0 45 8.5t48 32.5q18 16 32 2zM21 20l179 710q1 6 5.5 13t21.5 7h110q12 0 18 -4t9 -16l179 -710q3 -10 -2 -15t-13 -5h-141q-19 0 -24 20l-14 54
q-1 4 -3.5 9t-16.5 5h-94q-4 0 -10.5 -1t-9.5 -13l-14 -54q-5 -20 -24 -20h-141q-8 0 -13 5t-2 15zM246 259q-1 -5 1.5 -8t6.5 -3h56q4 0 6.5 3t1.5 8l-30 146q-1 5 -6 5t-6 -5z" />
    <glyph glyph-name="abreve" unicode="&#x103;" horiz-adv-x="511" 
d="M424 753q15 -15 0 -30q-19 -19 -49.5 -37t-65 -26t-62.5 -8t-62.5 8t-65 26t-49.5 37q-15 15 0 30l56 55q4 4 9 5t22 -10q49 -32 90 -32t90 32q13 8 18.5 10t12.5 -5zM233 -6q-36 -9 -72 -1.5t-64.5 30t-45 58.5t-16.5 81q0 41 14 73t41.5 55.5t77 39t124.5 18.5v37
q0 20 -12 32.5t-31 12.5q-18 0 -29.5 -12t-13.5 -33q-1 -13 -17 -13h-114q-13 0 -13 18q0 60 25.5 99.5t70 60t104.5 20.5q39 0 74.5 -12t63.5 -37.5t44.5 -67t16.5 -96.5l1 -215q0 -25 1 -53t9 -69q4 -20 -20 -20h-120q-4 0 -11.5 2.5t-11.5 28.5q-33 -27 -76 -37zM249 140
q17 1 30 15t13 43v58q-29 -2 -50.5 -12t-29.5 -26t-7 -32q1 -22 13.5 -34.5t30.5 -11.5z" />
    <glyph glyph-name="Aogonek" unicode="&#x104;" horiz-adv-x="564" 
d="M575 -171q5 -18 -12 -24q-41 -16 -83 -13t-75.5 22t-53 51.5t-19.5 71.5q0 23 8 47t21 42l-12 48q-1 4 -3.5 9t-16.5 5h-94q-4 0 -10.5 -1t-9.5 -13l-14 -54q-5 -20 -24 -20h-141q-8 0 -13 5t-2 15l179 710q1 6 5.5 13t21.5 7h110q12 0 18 -4t9 -16l179 -710
q3 -10 -2 -15t-13 -5h-85l-2 -10q-3 -15 2.5 -34.5t26.5 -32t57 -2.5q18 4 22 -10zM310 248q4 0 6.5 3t1.5 8l-30 146q-1 5 -6 5t-6 -5l-30 -146q-1 -5 1.5 -8t6.5 -3h56z" />
    <glyph glyph-name="aogonek" unicode="&#x105;" horiz-adv-x="511" 
d="M549 -163q5 -18 -12 -24q-41 -16 -83 -13t-75.5 22t-53 51.5t-19.5 71.5q0 32 12 59q-6 6 -9 27q-33 -27 -76 -37q-36 -9 -72 -1.5t-64.5 30t-45 58.5t-16.5 81q0 41 14 73t41.5 55.5t77 39t124.5 18.5v37q0 20 -12 32.5t-31 12.5q-18 0 -29.5 -12t-13.5 -33
q-1 -13 -17 -13h-114q-13 0 -13 18q0 60 25.5 99.5t70 60t104.5 20.5q39 0 74.5 -12t63.5 -37.5t44.5 -67t16.5 -96.5l1 -215q0 -25 1 -53t9 -69q4 -20 -20 -20h-37v-2q-3 -15 2.5 -34.5t26.5 -32t57 -2.5q18 4 22 -10zM292 198v58q-29 -2 -50.5 -12t-29.5 -26t-7 -32
q1 -22 13.5 -34.5t30.5 -11.5q17 1 30 15t13 43z" />
    <glyph glyph-name="Cacute" unicode="&#x106;" horiz-adv-x="573" 
d="M426 965q6 -10 4.5 -16t-10.5 -12l-197 -132q-3 -2 -10.5 -4t-17.5 12l-44 64q-6 9 -4 15t11 13l197 132q9 6 15 4t13 -12zM291 -10q-46 0 -91 14t-79.5 48.5t-55 90.5t-20.5 137v190q0 64 14.5 117.5t44.5 92t77.5 59.5t109.5 21q43 0 86 -12.5t76.5 -41.5t54 -74
t20.5 -103q0 -18 -13 -18h-144q-17 0 -18 16q-4 36 -21.5 51.5t-40.5 15.5q-32 0 -49 -26t-17 -98v-190q0 -72 17 -98t49 -26q23 0 40.5 15.5t21.5 51.5q1 16 18 16h144q13 0 13 -18q0 -46 -14.5 -87.5t-44 -74t-75 -51t-103.5 -18.5z" />
    <glyph glyph-name="cacute" unicode="&#x107;" horiz-adv-x="477" 
d="M125 729l141 132q15 15 30 0l65 -68q14 -15 0 -29l-140 -131q-15 -15 -30 0l-66 66q-15 15 0 30zM429 188q15 0 13 -18q-10 -89 -61.5 -134.5t-135.5 -45.5q-66 0 -112.5 27t-72 79t-25.5 130v108q0 78 25.5 130t72 79t112.5 27q84 0 135.5 -45.5t61.5 -134.5
q2 -18 -13 -18h-117q-13 0 -17 13q-4 14 -15 24.5t-27 10.5q-19 0 -33.5 -14.5t-14.5 -43.5v-164q0 -29 14.5 -43.5t33.5 -14.5q16 0 27 10.5t15 24.5q4 13 17 13h117z" />
    <glyph glyph-name="Ccircumflex" unicode="&#x108;" horiz-adv-x="573" 
d="M474 885q16 -13 0 -29l-49 -49q-14 -14 -29 0l-105 94l-105 -94q-15 -14 -29 0l-49 49q-16 16 0 29l168 150q7 6 15 6t15 -6zM291 -10q-46 0 -91 14t-79.5 48.5t-55 90.5t-20.5 137v190q0 64 14.5 117.5t44.5 92t77.5 59.5t109.5 21q43 0 86 -12.5t76.5 -41.5t54 -74
t20.5 -103q0 -18 -13 -18h-144q-17 0 -18 16q-4 36 -21.5 51.5t-40.5 15.5q-32 0 -49 -26t-17 -98v-190q0 -72 17 -98t49 -26q23 0 40.5 15.5t21.5 51.5q1 16 18 16h144q13 0 13 -18q0 -46 -14.5 -87.5t-44 -74t-75 -51t-103.5 -18.5z" />
    <glyph glyph-name="ccircumflex" unicode="&#x109;" horiz-adv-x="477" 
d="M428 711q16 -13 0 -29l-49 -49q-14 -14 -29 0l-105 94l-105 -94q-15 -14 -29 0l-49 49q-16 16 0 29l168 150q7 6 15 6t15 -6zM429 188q15 0 13 -18q-10 -89 -61.5 -134.5t-135.5 -45.5q-66 0 -112.5 27t-72 79t-25.5 130v108q0 78 25.5 130t72 79t112.5 27
q84 0 135.5 -45.5t61.5 -134.5q2 -18 -13 -18h-117q-13 0 -17 13q-4 14 -15 24.5t-27 10.5q-19 0 -33.5 -14.5t-14.5 -43.5v-164q0 -29 14.5 -43.5t33.5 -14.5q16 0 27 10.5t15 24.5q4 13 17 13h117z" />
    <glyph glyph-name="Cdotaccent" unicode="&#x10a;" horiz-adv-x="573" 
d="M291 800q-35 0 -60.5 25.5t-25.5 60.5q0 16 8.5 36t30.5 34.5t47 14.5q16 0 36.5 -8.5t35 -30t14.5 -46.5q0 -35 -25.5 -60.5t-60.5 -25.5zM291 -10q-46 0 -91 14t-79.5 48.5t-55 90.5t-20.5 137v190q0 64 14.5 117.5t44.5 92t77.5 59.5t109.5 21q43 0 86 -12.5
t76.5 -41.5t54 -74t20.5 -103q0 -18 -13 -18h-144q-17 0 -18 16q-4 36 -21.5 51.5t-40.5 15.5q-32 0 -49 -26t-17 -98v-190q0 -72 17 -98t49 -26q23 0 40.5 15.5t21.5 51.5q1 16 18 16h144q13 0 13 -18q0 -46 -14.5 -87.5t-44 -74t-75 -51t-103.5 -18.5z" />
    <glyph glyph-name="cdotaccent" unicode="&#x10b;" horiz-adv-x="477" 
d="M245 640q-19 0 -41.5 9.5t-39 33.5t-16.5 53q0 18 9.5 40.5t34 39t53.5 16.5q18 0 40.5 -9.5t39 -33.5t16.5 -53q0 -18 -9.5 -40.5t-33.5 -39t-53 -16.5zM429 188q15 0 13 -18q-10 -89 -61.5 -134.5t-135.5 -45.5q-66 0 -112.5 27t-72 79t-25.5 130v108q0 78 25.5 130
t72 79t112.5 27q84 0 135.5 -45.5t61.5 -134.5q2 -18 -13 -18h-117q-13 0 -17 13q-4 14 -15 24.5t-27 10.5q-19 0 -33.5 -14.5t-14.5 -43.5v-164q0 -29 14.5 -43.5t33.5 -14.5q16 0 27 10.5t15 24.5q4 13 17 13h117z" />
    <glyph glyph-name="Ccaron" unicode="&#x10c;" horiz-adv-x="573" 
d="M475 957l-168 -150q-15 -13 -30 0l-168 150q-16 13 0 29l49 49q14 14 29 0l105 -94l105 94q15 14 29 0l49 -49q16 -16 0 -29zM291 -10q-46 0 -91 14t-79.5 48.5t-55 90.5t-20.5 137v190q0 64 14.5 117.5t44.5 92t77.5 59.5t109.5 21q43 0 86 -12.5t76.5 -41.5t54 -74
t20.5 -103q0 -18 -13 -18h-144q-17 0 -18 16q-4 36 -21.5 51.5t-40.5 15.5q-32 0 -49 -26t-17 -98v-190q0 -72 17 -98t49 -26q23 0 40.5 15.5t21.5 51.5q1 16 18 16h144q13 0 13 -18q0 -46 -14.5 -87.5t-44 -74t-75 -51t-103.5 -18.5z" />
    <glyph glyph-name="ccaron" unicode="&#x10d;" horiz-adv-x="477" 
d="M428 782l-168 -150q-15 -13 -30 0l-168 150q-16 13 0 29l49 49q14 14 29 0l105 -94l105 94q15 14 29 0l49 -49q16 -16 0 -29zM429 188q15 0 13 -18q-10 -89 -61.5 -134.5t-135.5 -45.5q-66 0 -112.5 27t-72 79t-25.5 130v108q0 78 25.5 130t72 79t112.5 27
q84 0 135.5 -45.5t61.5 -134.5q2 -18 -13 -18h-117q-13 0 -17 13q-4 14 -15 24.5t-27 10.5q-19 0 -33.5 -14.5t-14.5 -43.5v-164q0 -29 14.5 -43.5t33.5 -14.5q16 0 27 10.5t15 24.5q4 13 17 13h117z" />
    <glyph glyph-name="Dcaron" unicode="&#x10e;" horiz-adv-x="587" 
d="M460 957l-168 -150q-15 -13 -30 0l-168 150q-16 13 0 29l49 49q14 14 29 0l105 -94l105 94q15 14 29 0l49 -49q16 -16 0 -29zM286 750q49 0 96 -14t86.5 -52.5t56.5 -98.5t17 -125v-170q0 -65 -17 -125t-56.5 -98.5t-86.5 -52.5t-96 -14h-215q-21 0 -21 21v708
q0 21 21 21h215zM362 284v182q0 67 -19.5 95.5t-66.5 28.5h-27q-4 0 -11.5 -2t-7.5 -17v-392q0 -4 2 -11.5t17 -7.5h27q41 0 63.5 24.5t22.5 99.5z" />
    <glyph glyph-name="dcaron" unicode="&#x10f;" horiz-adv-x="695" 
d="M596 760q27 0 50 -15.5t36 -42.5t12 -63.5t-18 -75.5q-14 -32 -39 -63.5t-49 -50.5q-3 -2 -9 -5.5t-14 3.5l-34 28q-2 2 -4.5 6.5t3.5 13.5q4 6 19.5 27t23 36t5.5 27q-2 13 -28 30t-32.5 31t-6.5 30q0 35 25 59.5t60 24.5zM450 750q21 0 21 -21v-708q0 -21 -21 -21h-97
q-18 0 -23 23l-6 25q-17 -18 -42 -33t-51 -21q-36 -8 -71.5 -0.5t-63.5 30t-44.5 58t-16.5 80.5v236q0 32 10.5 65.5t35.5 60t63 39.5t83 2q40 -10 74 -40v204q0 21 21 21h128zM253 140q19 0 33.5 14.5t14.5 43.5v96v68q0 29 -14.5 43.5t-33.5 14.5t-33.5 -14.5t-14.5 -43.5
v-164q0 -29 14.5 -43.5t33.5 -14.5z" />
    <glyph glyph-name="Dcroat" unicode="&#x110;" horiz-adv-x="607" 
d="M306 750q49 0 96 -14t86.5 -52.5t56.5 -98.5t17 -125v-170q0 -65 -17 -125t-56.5 -98.5t-86.5 -52.5t-96 -14h-215q-21 0 -21 21v280q0 4 -2 11.5t-17 7.5h-10q-21 0 -21 21v72q0 21 21 21h10q4 0 11.5 2t7.5 17v276q0 21 21 21h215zM382 284v182q0 67 -19.5 95.5
t-66.5 28.5h-27q-4 0 -11.5 -2t-7.5 -17v-118q0 -4 2 -11.5t17 -7.5h46q21 0 21 -21v-72q0 -21 -21 -21h-46q-4 0 -11.5 -2t-7.5 -17v-122q0 -4 2 -11.5t17 -7.5h27q41 0 63.5 24.5t22.5 99.5z" />
    <glyph glyph-name="dcroat" unicode="&#x111;" horiz-adv-x="541" 
d="M510 666q21 0 21 -21v-4q0 -21 -21 -21h-20q-4 0 -11.5 -2t-7.5 -17v-580q0 -21 -21 -21h-97q-18 0 -23 23l-6 25q-17 -18 -42 -33t-51 -21q-36 -8 -71.5 -0.5t-63.5 30t-44.5 58t-16.5 80.5v236q0 32 10.5 65.5t35.5 60t63 39.5t83 2q40 -10 74 -40v76q0 4 -2 11.5
t-17 7.5h-70q-21 0 -21 21v4q0 21 21 21h70q4 0 11.5 2t7.5 17v44q0 21 21 21h128q21 0 21 -21v-44q0 -4 2 -11.5t17 -7.5h20zM253 140q19 0 33.5 14.5t14.5 43.5v96v68q0 29 -14.5 43.5t-33.5 14.5t-33.5 -14.5t-14.5 -43.5v-164q0 -29 14.5 -43.5t33.5 -14.5z" />
    <glyph glyph-name="Emacron" unicode="&#x112;" horiz-adv-x="457" 
d="M341 921q21 0 21 -21v-79q0 -21 -21 -21h-220q-21 0 -21 21v79q0 21 21 21h220zM230 571v-95q0 -4 2 -11.5t17 -7.5h142q21 0 21 -21v-118q0 -21 -21 -21h-142q-4 0 -11.5 -2t-7.5 -17v-99q0 -4 2 -11.5t17 -7.5h142q21 0 21 -21v-118q0 -21 -21 -21h-320q-21 0 -21 21
v708q0 21 21 21h320q21 0 21 -21v-118q0 -21 -21 -21h-142q-4 0 -11.5 -2t-7.5 -17z" />
    <glyph glyph-name="emacron" unicode="&#x113;" horiz-adv-x="491" 
d="M394 683q0 -21 -21 -21h-240q-21 0 -21 21v90q0 21 21 21h240q21 0 21 -21v-90zM250 570q37 0 73 -11t66 -37.5t48.5 -73.5t18.5 -113v-15q0 -22 -4 -49q-1 -11 -6 -16t-15 -5h-220q-10 0 -10 -10v-42q0 -29 15.5 -43.5t34.5 -14.5q16 0 28 10.5t16 24.5q4 13 17 13h122
q15 0 13 -18q-10 -89 -61.5 -134.5t-135.5 -45.5q-41 0 -84 15.5t-74.5 55t-44 90t-12.5 105.5v48q0 55 12.5 105.5t40.5 86.5t69 55t93 19zM311 372q0 14 -6.5 28.5t-20.5 22t-28 7.5t-28 -7.5t-20.5 -22t-6.5 -28.5v-2q0 -10 10 -10h90q10 0 10 10v2z" />
    <glyph glyph-name="Ebreve" unicode="&#x114;" horiz-adv-x="457" 
d="M408 911q14 -14 0 -30q-74 -81 -177 -81t-177 81q-14 16 0 30l52 51q14 14 32 -2q20 -18 41.5 -29.5t51.5 -11.5q23 0 45 8.5t48 32.5q18 16 32 2zM230 571v-95q0 -4 2 -11.5t17 -7.5h142q21 0 21 -21v-118q0 -21 -21 -21h-142q-4 0 -11.5 -2t-7.5 -17v-99q0 -4 2 -11.5
t17 -7.5h142q21 0 21 -21v-118q0 -21 -21 -21h-320q-21 0 -21 21v708q0 21 21 21h320q21 0 21 -21v-118q0 -21 -21 -21h-142q-4 0 -11.5 -2t-7.5 -17z" />
    <glyph glyph-name="ebreve" unicode="&#x115;" horiz-adv-x="491" 
d="M425 753q15 -15 0 -30q-19 -19 -49.5 -37t-65 -26t-62.5 -8t-62.5 8t-65 26t-49.5 37q-15 15 0 30l56 55q4 4 9 5t22 -10q49 -32 90 -32t90 32q13 8 18.5 10t12.5 -5zM250 570q37 0 73 -11t66 -37.5t48.5 -73.5t18.5 -113v-15q0 -22 -4 -49q-1 -11 -6 -16t-15 -5h-220
q-10 0 -10 -10v-42q0 -29 15.5 -43.5t34.5 -14.5q16 0 28 10.5t16 24.5q4 13 17 13h122q15 0 13 -18q-10 -89 -61.5 -134.5t-135.5 -45.5q-41 0 -84 15.5t-74.5 55t-44 90t-12.5 105.5v48q0 55 12.5 105.5t40.5 86.5t69 55t93 19zM311 372q0 14 -6.5 28.5t-20.5 22t-28 7.5
t-28 -7.5t-20.5 -22t-6.5 -28.5v-2q0 -10 10 -10h90q10 0 10 10v2z" />
    <glyph glyph-name="Edotaccent" unicode="&#x116;" horiz-adv-x="457" 
d="M231 800q-35 0 -60.5 25.5t-25.5 60.5q0 16 8.5 36t30.5 34.5t47 14.5q16 0 36.5 -8.5t35 -30t14.5 -46.5q0 -35 -25.5 -60.5t-60.5 -25.5zM230 571v-95q0 -4 2 -11.5t17 -7.5h142q21 0 21 -21v-118q0 -21 -21 -21h-142q-4 0 -11.5 -2t-7.5 -17v-99q0 -4 2 -11.5t17 -7.5
h142q21 0 21 -21v-118q0 -21 -21 -21h-320q-21 0 -21 21v708q0 21 21 21h320q21 0 21 -21v-118q0 -21 -21 -21h-142q-4 0 -11.5 -2t-7.5 -17z" />
    <glyph glyph-name="edotaccent" unicode="&#x117;" horiz-adv-x="491" 
d="M253 640q-19 0 -41.5 9.5t-39 33.5t-16.5 53q0 18 9.5 40.5t34 39t53.5 16.5q18 0 40.5 -9.5t39 -33.5t16.5 -53q0 -18 -9.5 -40.5t-33.5 -39t-53 -16.5zM250 570q37 0 73 -11t66 -37.5t48.5 -73.5t18.5 -113v-15q0 -22 -4 -49q-1 -11 -6 -16t-15 -5h-220q-10 0 -10 -10
v-42q0 -29 15.5 -43.5t34.5 -14.5q16 0 28 10.5t16 24.5q4 13 17 13h122q15 0 13 -18q-10 -89 -61.5 -134.5t-135.5 -45.5q-41 0 -84 15.5t-74.5 55t-44 90t-12.5 105.5v48q0 55 12.5 105.5t40.5 86.5t69 55t93 19zM311 372q0 14 -6.5 28.5t-20.5 22t-28 7.5t-28 -7.5
t-20.5 -22t-6.5 -28.5v-2q0 -10 10 -10h90q10 0 10 10v2z" />
    <glyph glyph-name="Eogonek" unicode="&#x118;" horiz-adv-x="457" 
d="M457 -162q5 -18 -12 -24q-41 -16 -83 -13t-75.5 22t-53 51.5t-19.5 71.5q0 26 10 54h-153q-21 0 -21 21v708q0 21 21 21h320q21 0 21 -21v-118q0 -21 -21 -21h-142q-4 0 -11.5 -2t-7.5 -17v-95q0 -4 2 -11.5t17 -7.5h142q21 0 21 -21v-118q0 -21 -21 -21h-142
q-4 0 -11.5 -2t-7.5 -17v-99q0 -4 2 -11.5t17 -7.5h142q21 0 21 -21v-118q0 -21 -21 -21h-68v-1q-3 -15 2.5 -34.5t26.5 -32t57 -2.5q18 4 22 -10z" />
    <glyph glyph-name="eogonek" unicode="&#x119;" horiz-adv-x="491" 
d="M508 -173q5 -18 -12 -24q-41 -16 -83 -13t-75.5 22t-53 51.5t-19.5 71.5q0 29 11 56l-26 -1q-41 0 -84 15.5t-74.5 55t-44 90t-12.5 105.5v48q0 55 12.5 105.5t40.5 86.5t69 55t93 19q37 0 73 -11t66 -37.5t48.5 -73.5t18.5 -113v-15q0 -22 -4 -49q-1 -11 -6 -16t-15 -5
h-220q-10 0 -10 -10v-42q0 -29 15.5 -43.5t34.5 -14.5q16 0 28 10.5t16 24.5q4 13 17 13h122q15 0 13 -18q-8 -73 -45 -118q-22 -28 -28 -64q-3 -15 2.5 -34.5t26.5 -32t57 -2.5q18 4 22 -10zM201 372v-2q0 -10 10 -10h90q10 0 10 10v2q0 14 -6.5 28.5t-20.5 22t-28 7.5
t-28 -7.5t-20.5 -22t-6.5 -28.5z" />
    <glyph glyph-name="Ecaron" unicode="&#x11a;" horiz-adv-x="457" 
d="M415 957l-168 -150q-15 -13 -30 0l-168 150q-16 13 0 29l49 49q14 14 29 0l105 -94l105 94q15 14 29 0l49 -49q16 -16 0 -29zM230 571v-95q0 -4 2 -11.5t17 -7.5h142q21 0 21 -21v-118q0 -21 -21 -21h-142q-4 0 -11.5 -2t-7.5 -17v-99q0 -4 2 -11.5t17 -7.5h142
q21 0 21 -21v-118q0 -21 -21 -21h-320q-21 0 -21 21v708q0 21 21 21h320q21 0 21 -21v-118q0 -21 -21 -21h-142q-4 0 -11.5 -2t-7.5 -17z" />
    <glyph glyph-name="ecaron" unicode="&#x11b;" horiz-adv-x="491" 
d="M436 782l-168 -150q-15 -13 -30 0l-168 150q-16 13 0 29l49 49q14 14 29 0l105 -94l105 94q15 14 29 0l49 -49q16 -16 0 -29zM250 570q37 0 73 -11t66 -37.5t48.5 -73.5t18.5 -113v-15q0 -22 -4 -49q-1 -11 -6 -16t-15 -5h-220q-10 0 -10 -10v-42q0 -29 15.5 -43.5
t34.5 -14.5q16 0 28 10.5t16 24.5q4 13 17 13h122q15 0 13 -18q-10 -89 -61.5 -134.5t-135.5 -45.5q-41 0 -84 15.5t-74.5 55t-44 90t-12.5 105.5v48q0 55 12.5 105.5t40.5 86.5t69 55t93 19zM311 372q0 14 -6.5 28.5t-20.5 22t-28 7.5t-28 -7.5t-20.5 -22t-6.5 -28.5v-2
q0 -10 10 -10h90q10 0 10 10v2z" />
    <glyph glyph-name="Gcircumflex" unicode="&#x11c;" horiz-adv-x="573" 
d="M474 885q16 -13 0 -29l-49 -49q-14 -14 -29 0l-105 94l-105 -94q-15 -14 -29 0l-49 49q-16 16 0 29l168 150q7 6 15 6t15 -6zM508 447q20 0 20 -20v-206q0 -46 -14.5 -87.5t-44 -74t-75 -51t-103.5 -18.5q-46 0 -91 14t-79.5 48.5t-55 90.5t-20.5 137v190
q0 64 14.5 117.5t44.5 92t77.5 59.5t109.5 21q43 0 86 -12.5t76.5 -41.5t54 -74t20.5 -103q0 -18 -13 -18h-144q-17 0 -18 16q-4 36 -21.5 51.5t-40.5 15.5q-32 0 -49 -26t-17 -98v-190q0 -55 15 -89.5t54 -34.5q31 0 48 22.5t17 54.5v54q0 20 -20 20h-40q-20 0 -20 20v100
q0 20 20 20h209z" />
    <glyph glyph-name="gcircumflex" unicode="&#x11d;" horiz-adv-x="511" 
d="M124 633l-49 49q-16 16 0 29l168 150q7 6 15 6t15 -6l168 -150q16 -13 0 -29l-49 -49q-14 -14 -29 0l-105 94l-105 -94q-15 -14 -29 0zM450 560q21 0 21 -21v-543q0 -78 -25.5 -130t-72 -79t-112.5 -27q-86 0 -141.5 46t-65.5 134q-2 18 13 18h127q13 0 17 -13
q4 -14 15 -24.5t27 -10.5q19 0 33.5 14.5t14.5 43.5v67q-34 -30 -74 -40q-36 -9 -70.5 -1t-62 30.5t-43.5 58.5t-16 79v236q0 33 11 67t36.5 59.5t64 38.5t84.5 3q26 -6 51 -21t42 -33l6 25q5 23 23 23h97zM253 140q19 0 33.5 14.5t14.5 43.5v96v68q0 29 -14.5 43.5
t-33.5 14.5t-33.5 -14.5t-14.5 -43.5v-164q0 -29 14.5 -43.5t33.5 -14.5z" />
    <glyph glyph-name="Gbreve" unicode="&#x11e;" horiz-adv-x="573" 
d="M468 911q14 -14 0 -30q-74 -81 -177 -81t-177 81q-14 16 0 30l52 51q14 14 32 -2q20 -18 41.5 -29.5t51.5 -11.5q23 0 45 8.5t48 32.5q18 16 32 2zM508 447q20 0 20 -20v-206q0 -46 -14.5 -87.5t-44 -74t-75 -51t-103.5 -18.5q-46 0 -91 14t-79.5 48.5t-55 90.5
t-20.5 137v190q0 64 14.5 117.5t44.5 92t77.5 59.5t109.5 21q43 0 86 -12.5t76.5 -41.5t54 -74t20.5 -103q0 -18 -13 -18h-144q-17 0 -18 16q-4 36 -21.5 51.5t-40.5 15.5q-32 0 -49 -26t-17 -98v-190q0 -55 15 -89.5t54 -34.5q31 0 48 22.5t17 54.5v54q0 20 -20 20h-40
q-20 0 -20 20v100q0 20 20 20h209z" />
    <glyph glyph-name="gbreve" unicode="&#x11f;" horiz-adv-x="511" 
d="M253 652q-28 0 -62.5 8t-65 26t-49.5 37q-15 15 0 30l56 55q4 4 9 5t22 -10q49 -32 90 -32t90 32q13 8 18.5 10t12.5 -5l56 -55q15 -15 0 -30q-19 -19 -49.5 -37t-65 -26t-62.5 -8zM450 560q21 0 21 -21v-543q0 -78 -25.5 -130t-72 -79t-112.5 -27q-86 0 -141.5 46
t-65.5 134q-2 18 13 18h127q13 0 17 -13q4 -14 15 -24.5t27 -10.5q19 0 33.5 14.5t14.5 43.5v67q-34 -30 -74 -40q-36 -9 -70.5 -1t-62 30.5t-43.5 58.5t-16 79v236q0 33 11 67t36.5 59.5t64 38.5t84.5 3q26 -6 51 -21t42 -33l6 25q5 23 23 23h97zM253 140q19 0 33.5 14.5
t14.5 43.5v96v68q0 29 -14.5 43.5t-33.5 14.5t-33.5 -14.5t-14.5 -43.5v-164q0 -29 14.5 -43.5t33.5 -14.5z" />
    <glyph glyph-name="Gdotaccent" unicode="&#x120;" horiz-adv-x="573" 
d="M291 800q-35 0 -60.5 25.5t-25.5 60.5q0 16 8.5 36t30.5 34.5t47 14.5q16 0 36.5 -8.5t35 -30t14.5 -46.5q0 -35 -25.5 -60.5t-60.5 -25.5zM508 447q20 0 20 -20v-206q0 -46 -14.5 -87.5t-44 -74t-75 -51t-103.5 -18.5q-46 0 -91 14t-79.5 48.5t-55 90.5t-20.5 137v190
q0 64 14.5 117.5t44.5 92t77.5 59.5t109.5 21q43 0 86 -12.5t76.5 -41.5t54 -74t20.5 -103q0 -18 -13 -18h-144q-17 0 -18 16q-4 36 -21.5 51.5t-40.5 15.5q-32 0 -49 -26t-17 -98v-190q0 -55 15 -89.5t54 -34.5q31 0 48 22.5t17 54.5v54q0 20 -20 20h-40q-20 0 -20 20v100
q0 20 20 20h209z" />
    <glyph glyph-name="gdotaccent" unicode="&#x121;" horiz-adv-x="511" 
d="M258 640q-19 0 -41.5 9.5t-39 33.5t-16.5 53q0 18 9.5 40.5t34 39t53.5 16.5q18 0 40.5 -9.5t39 -33.5t16.5 -53q0 -18 -9.5 -40.5t-33.5 -39t-53 -16.5zM450 560q21 0 21 -21v-543q0 -78 -25.5 -130t-72 -79t-112.5 -27q-86 0 -141.5 46t-65.5 134q-2 18 13 18h127
q13 0 17 -13q4 -14 15 -24.5t27 -10.5q19 0 33.5 14.5t14.5 43.5v67q-34 -30 -74 -40q-36 -9 -70.5 -1t-62 30.5t-43.5 58.5t-16 79v236q0 33 11 67t36.5 59.5t64 38.5t84.5 3q26 -6 51 -21t42 -33l6 25q5 23 23 23h97zM253 140q19 0 33.5 14.5t14.5 43.5v96v68
q0 29 -14.5 43.5t-33.5 14.5t-33.5 -14.5t-14.5 -43.5v-164q0 -29 14.5 -43.5t33.5 -14.5z" />
    <glyph glyph-name="uni0122" unicode="&#x122;" horiz-adv-x="573" 
d="M508 447q20 0 20 -20v-206q0 -46 -14.5 -87.5t-44 -74t-75 -51t-103.5 -18.5q-46 0 -91 14t-79.5 48.5t-55 90.5t-20.5 137v190q0 64 14.5 117.5t44.5 92t77.5 59.5t109.5 21q43 0 86 -12.5t76.5 -41.5t54 -74t20.5 -103q0 -18 -13 -18h-144q-17 0 -18 16
q-4 36 -21.5 51.5t-40.5 15.5q-32 0 -49 -26t-17 -98v-190q0 -55 15 -89.5t54 -34.5q31 0 48 22.5t17 54.5v54q0 20 -20 20h-40q-20 0 -20 20v100q0 20 20 20h209zM259 -204q-4 13 -23.5 28.5t-24 27t-5.5 19.5q-4 34 19 62t57 31q18 2 40 -5.5t38 -26.5t21 -49t-5 -69
q-6 -25 -22.5 -56.5t-45.5 -64.5q-3 -3 -8 -7.5t-15 2.5l-42 30q-9 7 -2 18q13 21 17.5 33t0.5 27z" />
    <glyph glyph-name="uni0123" unicode="&#x123;" horiz-adv-x="511" 
d="M257 639q-18 -2 -40 5.5t-38 26.5t-21 49t5 69q6 25 22.5 56.5t45.5 64.5q3 3 8 7.5t15 -2.5l42 -30q9 -7 2 -18q-13 -21 -17.5 -33t-0.5 -27q4 -13 23.5 -28.5t24 -27t5.5 -19.5q4 -34 -19 -62t-57 -31zM450 560q21 0 21 -21v-543q0 -78 -25.5 -130t-72 -79t-112.5 -27
q-86 0 -141.5 46t-65.5 134q-2 18 13 18h127q13 0 17 -13q4 -14 15 -24.5t27 -10.5q19 0 33.5 14.5t14.5 43.5v67q-34 -30 -74 -40q-36 -9 -70.5 -1t-62 30.5t-43.5 58.5t-16 79v236q0 33 11 67t36.5 59.5t64 38.5t84.5 3q26 -6 51 -21t42 -33l6 25q5 23 23 23h97zM253 140
q19 0 33.5 14.5t14.5 43.5v96v68q0 29 -14.5 43.5t-33.5 14.5t-33.5 -14.5t-14.5 -43.5v-164q0 -29 14.5 -43.5t33.5 -14.5z" />
    <glyph glyph-name="Hcircumflex" unicode="&#x124;" horiz-adv-x="586" 
d="M476 885q16 -13 0 -29l-49 -49q-14 -14 -29 0l-105 94l-105 -94q-15 -14 -29 0l-49 49q-16 16 0 29l168 150q7 6 15 6t15 -6zM515 750q21 0 21 -21v-708q0 -21 -21 -21h-138q-21 0 -21 21v257q0 4 -2 11.5t-17 7.5h-88q-4 0 -11.5 -2t-7.5 -17v-257q0 -21 -21 -21h-138
q-21 0 -21 21v708q0 21 21 21h138q21 0 21 -21v-253q0 -4 2 -11.5t17 -7.5h88q4 0 11.5 2t7.5 17v253q0 21 21 21h138z" />
    <glyph glyph-name="hcircumflex" unicode="&#x125;" horiz-adv-x="516" 
d="M230 823l-105 94l-105 -94q-15 -14 -29 0l-49 49q-16 16 0 29l168 150q7 6 15 6t15 -6l168 -150q16 -13 0 -29l-49 -49q-14 -14 -29 0zM284 565q36 9 70.5 1t62 -30.5t43.5 -58.5t16 -79v-377q0 -21 -21 -21h-128q-21 0 -21 21v341q0 29 -14.5 43.5t-33.5 14.5
t-33.5 -14.5t-14.5 -43.5v-341q0 -21 -21 -21h-128q-21 0 -21 21v708q0 21 21 21h128q21 0 21 -21v-204q34 30 74 40z" />
    <glyph glyph-name="Hbar" unicode="&#x126;" horiz-adv-x="626" 
d="M585 658q21 0 21 -21v-52q0 -21 -21 -21h-10q-4 0 -11.5 -2t-7.5 -17v-524q0 -21 -21 -21h-138q-21 0 -21 21v257q0 4 -2 11.5t-17 7.5h-88q-4 0 -11.5 -2t-7.5 -17v-257q0 -21 -21 -21h-138q-21 0 -21 21v524q0 4 -2 11.5t-17 7.5h-10q-21 0 -21 21v52q0 21 21 21h10
q4 0 11.5 2t7.5 17v52q0 21 21 21h138q21 0 21 -21v-52q0 -4 2 -11.5t17 -7.5h88q4 0 11.5 2t7.5 17v52q0 21 21 21h138q21 0 21 -21v-52q0 -4 2 -11.5t17 -7.5h10zM376 476v69q0 4 -2 11.5t-17 7.5h-88q-4 0 -11.5 -2t-7.5 -17v-69q0 -4 2 -11.5t17 -7.5h88q4 0 11.5 2
t7.5 17z" />
    <glyph glyph-name="hbar" unicode="&#x127;" horiz-adv-x="546" 
d="M314 565q36 9 70.5 1t62 -30.5t43.5 -58.5t16 -79v-377q0 -21 -21 -21h-128q-21 0 -21 21v341q0 29 -14.5 43.5t-33.5 14.5q-17 0 -31 -12t-17 -37l1 -348q0 -11 -6 -17t-17 -6h-127q-21 0 -21 21v580q0 4 -2 11.5t-17 7.5h-20q-21 0 -21 21v4q0 21 21 21h20q4 0 11.5 2
t7.5 17v44q0 21 21 21h128q21 0 21 -21v-44q0 -4 2 -11.5t17 -7.5h70q21 0 21 -21v-4q0 -21 -21 -21h-70q-4 0 -11.5 -2t-7.5 -17v-76q34 30 74 40z" />
    <glyph glyph-name="Itilde" unicode="&#x128;" horiz-adv-x="280" 
d="M291 878q12 -8 5 -21q-34 -57 -98 -57q-27 0 -63 16q-40 18 -62 -8q-10 -12 -21 -5l-62 40q-12 9 -5 21q34 57 98 57q27 0 63 -16q40 -18 62 8q10 12 21 5zM50 21v708q0 21 21 21h138q21 0 21 -21v-708q0 -21 -21 -21h-138q-21 0 -21 21z" />
    <glyph glyph-name="itilde" unicode="&#x129;" horiz-adv-x="250" 
d="M291 759q13 -7 5 -21q-20 -38 -52 -60.5t-63 -22.5q-24 0 -50 9t-28 10q-42 13 -62 -13q-5 -7 -10 -8t-11 3l-70 40q-7 4 -8 9t3 12q20 38 52 60.5t63 22.5q24 0 50 -9t28 -10q42 -13 62 13q5 7 10 8t11 -3zM189 560q21 0 21 -21v-518q0 -21 -21 -21h-128q-21 0 -21 21
v518q0 21 21 21h128z" />
    <glyph glyph-name="Imacron" unicode="&#x12a;" horiz-adv-x="280" 
d="M250 921q21 0 21 -21v-79q0 -21 -21 -21h-220q-21 0 -21 21v79q0 21 21 21h220zM50 21v708q0 21 21 21h138q21 0 21 -21v-708q0 -21 -21 -21h-138q-21 0 -21 21z" />
    <glyph glyph-name="imacron" unicode="&#x12b;" horiz-adv-x="250" 
d="M266 683q0 -21 -21 -21h-240q-21 0 -21 21v90q0 21 21 21h240q21 0 21 -21v-90zM189 560q21 0 21 -21v-518q0 -21 -21 -21h-128q-21 0 -21 21v518q0 21 21 21h128z" />
    <glyph glyph-name="Ibreve" unicode="&#x12c;" horiz-adv-x="280" 
d="M317 911q14 -14 0 -30q-74 -81 -177 -81t-177 81q-14 16 0 30l52 51q14 14 32 -2q20 -18 41.5 -29.5t51.5 -11.5q23 0 45 8.5t48 32.5q18 16 32 2zM50 21v708q0 21 21 21h138q21 0 21 -21v-708q0 -21 -21 -21h-138q-21 0 -21 21z" />
    <glyph glyph-name="ibreve" unicode="&#x12d;" horiz-adv-x="250" 
d="M297 753q15 -15 0 -30q-19 -19 -49.5 -37t-65 -26t-62.5 -8t-62.5 8t-65 26t-49.5 37q-15 15 0 30l56 55q4 4 9 5t22 -10q49 -32 90 -32t90 32q13 8 18.5 10t12.5 -5zM189 560q21 0 21 -21v-518q0 -21 -21 -21h-128q-21 0 -21 21v518q0 21 21 21h128z" />
    <glyph glyph-name="Iogonek" unicode="&#x12e;" horiz-adv-x="280" 
d="M324 -162q5 -18 -12 -24q-41 -16 -83 -13t-75.5 22t-53 51.5t-19.5 71.5q0 26 10 54h-20q-21 0 -21 21v708q0 21 21 21h138q21 0 21 -21v-708q0 -21 -21 -21h-19v-1q-3 -15 2.5 -34.5t26.5 -32t57 -2.5q18 4 22 -10z" />
    <glyph glyph-name="iogonek" unicode="&#x12f;" horiz-adv-x="250" 
d="M125 640q-19 0 -41.5 9.5t-39 33.5t-16.5 53q0 18 9.5 40.5t34 39t53.5 16.5q18 0 40.5 -9.5t39 -33.5t16.5 -53q0 -18 -9.5 -40.5t-33.5 -39t-53 -16.5zM308 -163q5 -18 -12 -24q-41 -16 -83 -13t-75.5 22t-53 51.5t-19.5 71.5q0 27 10 55h-14q-21 0 -21 21v518
q0 21 21 21h128q21 0 21 -21v-518q0 -21 -21 -21h-15v-2q-3 -15 2.5 -34.5t26.5 -32t57 -2.5q18 4 22 -10z" />
    <glyph glyph-name="Idotaccent" unicode="&#x130;" horiz-adv-x="280" 
d="M140 800q-35 0 -60.5 25.5t-25.5 60.5q0 16 8.5 36t30.5 34.5t47 14.5q16 0 36.5 -8.5t35 -30t14.5 -46.5q0 -35 -25.5 -60.5t-60.5 -25.5zM50 21v708q0 21 21 21h138q21 0 21 -21v-708q0 -21 -21 -21h-138q-21 0 -21 21z" />
    <glyph glyph-name="dotlessi" unicode="&#x131;" horiz-adv-x="250" 
d="M189 560q21 0 21 -21v-518q0 -21 -21 -21h-128q-21 0 -21 21v518q0 21 21 21h128z" />
    <glyph glyph-name="Jcircumflex" unicode="&#x134;" horiz-adv-x="360" 
d="M408 885q16 -13 0 -29l-49 -49q-14 -14 -29 0l-105 94l-105 -94q-15 -14 -29 0l-49 49q-16 16 0 29l168 150q7 6 15 6t15 -6zM51 0q-21 0 -21 21v118q0 21 21 21h49q15 0 25 10.5t10 27.5v531q0 21 21 21h138q21 0 21 -21v-546q0 -40 -15.5 -74t-43 -58.5t-63 -37.5
t-73.5 -13h-69z" />
    <glyph glyph-name="jcircumflex" unicode="&#x135;" horiz-adv-x="250" 
d="M308 711q16 -13 0 -29l-49 -49q-14 -14 -29 0l-105 94l-105 -94q-15 -14 -29 0l-49 49q-16 16 0 29l168 150q7 6 15 6t15 -6zM-20 -79q60 0 60 61v557q0 21 21 21h128q21 0 21 -21v-557q0 -113 -54 -162.5t-176 -49.5q-21 0 -21 21v109q0 21 21 21z" />
    <glyph glyph-name="uni0136" unicode="&#x136;" horiz-adv-x="563" 
d="M406 406l140 -389q5 -17 -7 -17h-154q-19 0 -24 11l-91 247q-2 5 -7 5t-7 -5l-17 -40q-9 -19 -9 -36v-161q0 -21 -21 -21h-138q-21 0 -21 21v708q0 21 21 21h138q21 0 21 -21v-245q0 -4 4.5 -5t6.5 4l98 256q4 11 25 11h153q13 0 7 -17l-118 -305q-4 -10 0 -22zM249 -204
q-4 13 -23.5 28.5t-24 27t-5.5 19.5q-4 34 19 62t57 31q18 2 40 -5.5t38 -26.5t21 -49t-5 -69q-6 -25 -22.5 -56.5t-45.5 -64.5q-3 -3 -8 -7.5t-15 2.5l-42 30q-9 7 -2 18q13 21 17.5 33t0.5 27z" />
    <glyph glyph-name="uni0137" unicode="&#x137;" horiz-adv-x="486" 
d="M475 21q3 -9 -1 -15t-14 -6h-128q-20 0 -27 21l-46 123q-2 6 -8 6.5t-9 -5.5l-21 -50q-11 -24 -11 -38v-36q0 -21 -21 -21h-128q-21 0 -21 21v505v203q0 21 21 21h128q21 0 21 -21v-353q0 -7 6.5 -8t9.5 6l69 166q9 20 27 20h128q10 0 14.5 -6.5t1.5 -13.5l-93 -223
q-4 -10 0 -22zM247 -36q18 2 40 -5.5t38 -26.5t21 -49t-5 -69q-6 -25 -22.5 -56.5t-45.5 -64.5q-3 -3 -8 -7.5t-15 2.5l-42 30q-9 7 -2 18q13 21 17.5 33t0.5 27q-4 13 -23.5 28.5t-24 27t-5.5 19.5q-4 34 19 62t57 31z" />
    <glyph glyph-name="Lacute" unicode="&#x139;" horiz-adv-x="416" 
d="M278 965q6 -10 4.5 -16t-10.5 -12l-197 -132q-3 -2 -10.5 -4t-17.5 12l-44 64q-6 9 -4 15t11 13l197 132q9 6 15 4t13 -12zM365 160q21 0 21 -21v-118q0 -21 -21 -21h-294q-21 0 -21 21v708q0 21 21 21h138q21 0 21 -21v-550q0 -4 2 -11.5t17 -7.5h116z" />
    <glyph glyph-name="lacute" unicode="&#x13a;" horiz-adv-x="309" 
d="M5 919l141 132q15 15 30 0l65 -68q14 -15 0 -29l-140 -131q-15 -15 -30 0l-66 66q-15 15 0 30zM258 141q11 -1 16 -6t5 -15v-99q0 -21 -21 -21q-78 0 -124 18t-70 62.5t-24 138.5v510q0 21 21 21h128q21 0 21 -21v-530q0 -51 48 -58z" />
    <glyph glyph-name="uni013B" unicode="&#x13b;" horiz-adv-x="416" 
d="M365 160q21 0 21 -21v-118q0 -21 -21 -21h-294q-21 0 -21 21v708q0 21 21 21h138q21 0 21 -21v-550q0 -4 2 -11.5t17 -7.5h116zM186 -204q-4 13 -23.5 28.5t-24 27t-5.5 19.5q-4 34 19 62t57 31q18 2 40 -5.5t38 -26.5t21 -49t-5 -69q-6 -25 -22.5 -56.5t-45.5 -64.5
q-3 -3 -8 -7.5t-15 2.5l-42 30q-9 7 -2 18q13 21 17.5 33t0.5 27z" />
    <glyph glyph-name="uni013C" unicode="&#x13c;" horiz-adv-x="309" 
d="M258 141q11 -1 16 -6t5 -15v-99q0 -21 -21 -21q-78 0 -124 18t-70 62.5t-24 138.5v510q0 21 21 21h128q21 0 21 -21v-530q0 -51 48 -58zM138 -204q-4 13 -23.5 28.5t-24 27t-5.5 19.5q-4 34 19 62t57 31q18 2 40 -5.5t38 -26.5t21 -49t-5 -69q-6 -25 -22.5 -56.5
t-45.5 -64.5q-3 -3 -8 -7.5t-15 2.5l-42 30q-9 7 -2 18q13 21 17.5 33t0.5 27z" />
    <glyph glyph-name="Lcaron" unicode="&#x13d;" horiz-adv-x="476" 
d="M359 585q-2 13 -28 30t-32.5 31t-6.5 30q0 35 25 59.5t60 24.5q27 0 50 -15.5t36 -42.5t12 -63.5t-18 -75.5q-14 -32 -39 -63.5t-49 -50.5q-3 -2 -9 -5.5t-14 3.5l-34 28q-2 2 -4.5 6.5t3.5 13.5q4 6 19.5 27t23 36t5.5 27zM365 160q21 0 21 -21v-118q0 -21 -21 -21h-294
q-21 0 -21 21v708q0 21 21 21h138q21 0 21 -21v-550q0 -4 2 -11.5t17 -7.5h116z" />
    <glyph glyph-name="lcaron" unicode="&#x13e;" horiz-adv-x="309" 
d="M308 972l-168 -150q-15 -13 -30 0l-168 150q-16 13 0 29l49 49q14 14 29 0l105 -94l105 94q15 14 29 0l49 -49q16 -16 0 -29zM258 141q11 -1 16 -6t5 -15v-99q0 -21 -21 -21q-78 0 -124 18t-70 62.5t-24 138.5v510q0 21 21 21h128q21 0 21 -21v-530q0 -51 48 -58z" />
    <glyph glyph-name="Lslash" unicode="&#x141;" horiz-adv-x="456" 
d="M405 160q21 0 21 -21v-118q0 -21 -21 -21h-294q-21 0 -21 21v263l-19 -11q-19 -10 -27 5l-41 73q-9 16 9 26l78 45v307q0 21 21 21h138q21 0 21 -21v-205l66 38q19 10 27 -5l41 -73q9 -16 -9 -26l-125 -71v-208q0 -4 2 -11.5t17 -7.5h116z" />
    <glyph glyph-name="lslash" unicode="&#x142;" horiz-adv-x="396" 
d="M380 499q13 -16 -3 -29l-104 -87v-184q0 -51 48 -58q11 -1 16 -6t5 -15v-99q0 -21 -21 -21q-78 0 -124 18t-70 62.5t-24 138.5v21l-16 -13q-16 -14 -29 2l-52 62q-13 16 3 29l94 79v330q0 21 21 21h128q21 0 21 -21v-188l26 22q16 14 29 -2z" />
    <glyph glyph-name="Nacute" unicode="&#x143;" horiz-adv-x="597" 
d="M433 965q6 -10 4.5 -16t-10.5 -12l-197 -132q-3 -2 -10.5 -4t-17.5 12l-44 64q-6 9 -4 15t11 13l197 132q9 6 15 4t13 -12zM526 750q21 0 21 -21v-708q0 -21 -21 -21h-103q-5 0 -14 2.5t-17 18.5l-151 299q-2 4 -6.5 3.5t-4.5 -5.5v-297q0 -21 -21 -21h-138q-21 0 -21 21
v708q0 21 21 21h103q21 0 31 -21l151 -299q2 -4 6.5 -3.5t4.5 5.5v297q0 21 21 21h138z" />
    <glyph glyph-name="nacute" unicode="&#x144;" horiz-adv-x="516" 
d="M197 633l-66 66q-15 15 0 30l141 132q15 15 30 0l65 -68q14 -15 0 -29l-140 -131q-15 -15 -30 0zM284 565q36 9 70.5 1t62 -30.5t43.5 -58.5t16 -79v-377q0 -21 -21 -21h-128q-21 0 -21 21v341q0 29 -14.5 43.5t-33.5 14.5t-33.5 -14.5t-14.5 -43.5v-341q0 -21 -21 -21
h-128q-21 0 -21 21v518q0 21 21 21h97q18 0 23 -23l8 -34q17 20 41 37.5t54 24.5z" />
    <glyph glyph-name="uni0145" unicode="&#x145;" horiz-adv-x="597" 
d="M526 750q21 0 21 -21v-708q0 -21 -21 -21h-103q-5 0 -14 2.5t-17 18.5l-151 299q-2 4 -6.5 3.5t-4.5 -5.5v-297q0 -21 -21 -21h-138q-21 0 -21 21v708q0 21 21 21h103q21 0 31 -21l151 -299q2 -4 6.5 -3.5t4.5 5.5v297q0 21 21 21h138zM279 -204q-4 13 -23.5 28.5t-24 27
t-5.5 19.5q-4 34 19 62t57 31q18 2 40 -5.5t38 -26.5t21 -49t-5 -69q-6 -25 -22.5 -56.5t-45.5 -64.5q-3 -3 -8 -7.5t-15 2.5l-42 30q-9 7 -2 18q13 21 17.5 33t0.5 27z" />
    <glyph glyph-name="uni0146" unicode="&#x146;" horiz-adv-x="516" 
d="M284 565q36 9 70.5 1t62 -30.5t43.5 -58.5t16 -79v-377q0 -21 -21 -21h-128q-21 0 -21 21v341q0 29 -14.5 43.5t-33.5 14.5t-33.5 -14.5t-14.5 -43.5v-341q0 -21 -21 -21h-128q-21 0 -21 21v518q0 21 21 21h97q18 0 23 -23l8 -34q17 20 41 37.5t54 24.5zM249 -36
q18 2 40 -5.5t38 -26.5t21 -49t-5 -69q-6 -25 -22.5 -56.5t-45.5 -64.5q-3 -3 -8 -7.5t-15 2.5l-42 30q-9 7 -2 18q13 21 17.5 33t0.5 27q-4 13 -23.5 28.5t-24 27t-5.5 19.5q-4 34 19 62t57 31z" />
    <glyph glyph-name="Ncaron" unicode="&#x147;" horiz-adv-x="597" 
d="M482 957l-168 -150q-15 -13 -30 0l-168 150q-16 13 0 29l49 49q14 14 29 0l105 -94l105 94q15 14 29 0l49 -49q16 -16 0 -29zM526 750q21 0 21 -21v-708q0 -21 -21 -21h-103q-5 0 -14 2.5t-17 18.5l-151 299q-2 4 -6.5 3.5t-4.5 -5.5v-297q0 -21 -21 -21h-138
q-21 0 -21 21v708q0 21 21 21h103q21 0 31 -21l151 -299q2 -4 6.5 -3.5t4.5 5.5v297q0 21 21 21h138z" />
    <glyph glyph-name="ncaron" unicode="&#x148;" horiz-adv-x="516" 
d="M68 782q-16 13 0 29l49 49q14 14 29 0l105 -94l105 94q15 14 29 0l49 -49q16 -16 0 -29l-168 -150q-15 -13 -30 0zM284 565q36 9 70.5 1t62 -30.5t43.5 -58.5t16 -79v-377q0 -21 -21 -21h-128q-21 0 -21 21v341q0 29 -14.5 43.5t-33.5 14.5t-33.5 -14.5t-14.5 -43.5v-341
q0 -21 -21 -21h-128q-21 0 -21 21v518q0 21 21 21h97q18 0 23 -23l8 -34q17 20 41 37.5t54 24.5z" />
    <glyph glyph-name="Eng" unicode="&#x14a;" horiz-adv-x="597" 
d="M526 750q21 0 21 -21v-708v-49q0 -113 -54 -162.5t-176 -49.5q-21 0 -21 21v109q0 4 2.5 11.5t18.5 9.5q28 4 40 18t12 43v95l-128 253q-2 4 -6.5 3.5t-4.5 -5.5v-297q0 -21 -21 -21h-138q-21 0 -21 21v708q0 21 21 21h103q21 0 31 -21l151 -299q2 -4 6.5 -3.5t4.5 5.5
v297q0 21 21 21h138z" />
    <glyph glyph-name="eng" unicode="&#x14b;" horiz-adv-x="511" 
d="M284 565q36 9 70.5 1t62 -30.5t43.5 -58.5t16 -79v-386q0 -113 -54 -162.5t-176 -49.5q-21 0 -21 21v109q0 21 21 21q60 0 60 61v350q0 29 -14.5 43.5t-33.5 14.5t-33.5 -14.5t-14.5 -43.5v-341q0 -21 -21 -21h-128q-21 0 -21 21v518q0 21 21 21h97q18 0 23 -23l8 -34
q17 20 41 37.5t54 24.5z" />
    <glyph glyph-name="Omacron" unicode="&#x14c;" 
d="M401 921q21 0 21 -21v-79q0 -21 -21 -21h-220q-21 0 -21 21v79q0 21 21 21h220zM291 -10q-46 0 -91 14t-79.5 48.5t-55 90.5t-20.5 137v190q0 64 14.5 117.5t44.5 92t77.5 59.5t109.5 21q46 0 91 -14t79.5 -48.5t55 -90.5t20.5 -137v-190q0 -64 -14.5 -117.5t-44.5 -92
t-77.5 -59.5t-109.5 -21zM291 156q32 0 49 26t17 97v191q0 72 -17 98t-49 26t-49 -26t-17 -98v-191q0 -71 17 -97t49 -26z" />
    <glyph glyph-name="omacron" unicode="&#x14d;" horiz-adv-x="506" 
d="M394 683q0 -21 -21 -21h-240q-21 0 -21 21v90q0 21 21 21h240q21 0 21 -21v-90zM253 -10q-39 0 -77.5 13t-70.5 41.5t-51 74.5t-19 107v108q0 46 13 90t42 76t71 51t92 19q39 0 77.5 -13t70.5 -41.5t51 -74.5t19 -107v-108q0 -46 -13 -90t-42 -76t-71 -51t-92 -19z
M301 362q0 29 -14.5 43.5t-33.5 14.5t-33.5 -14.5t-14.5 -43.5v-164q0 -29 14.5 -43.5t33.5 -14.5t33.5 14.5t14.5 43.5v164z" />
    <glyph glyph-name="Obreve" unicode="&#x14e;" 
d="M468 911q14 -14 0 -30q-74 -81 -177 -81t-177 81q-14 16 0 30l52 51q14 14 32 -2q20 -18 41.5 -29.5t51.5 -11.5q23 0 45 8.5t48 32.5q18 16 32 2zM291 -10q-46 0 -91 14t-79.5 48.5t-55 90.5t-20.5 137v190q0 64 14.5 117.5t44.5 92t77.5 59.5t109.5 21q46 0 91 -14
t79.5 -48.5t55 -90.5t20.5 -137v-190q0 -64 -14.5 -117.5t-44.5 -92t-77.5 -59.5t-109.5 -21zM291 156q32 0 49 26t17 97v191q0 72 -17 98t-49 26t-49 -26t-17 -98v-191q0 -71 17 -97t49 -26z" />
    <glyph glyph-name="obreve" unicode="&#x14f;" horiz-adv-x="506" 
d="M425 753q15 -15 0 -30q-19 -19 -49.5 -37t-65 -26t-62.5 -8t-62.5 8t-65 26t-49.5 37q-15 15 0 30l56 55q4 4 9 5t22 -10q49 -32 90 -32t90 32q13 8 18.5 10t12.5 -5zM253 -10q-39 0 -77.5 13t-70.5 41.5t-51 74.5t-19 107v108q0 46 13 90t42 76t71 51t92 19
q39 0 77.5 -13t70.5 -41.5t51 -74.5t19 -107v-108q0 -46 -13 -90t-42 -76t-71 -51t-92 -19zM301 362q0 29 -14.5 43.5t-33.5 14.5t-33.5 -14.5t-14.5 -43.5v-164q0 -29 14.5 -43.5t33.5 -14.5t33.5 14.5t14.5 43.5v164z" />
    <glyph glyph-name="Ohungarumlaut" unicode="&#x150;" 
d="M131 808l-49 50q-15 15 0 30l142 146q15 15 30 0l49 -50q15 -15 0 -30l-142 -146q-15 -15 -30 0zM368 808l-49 50q-15 15 0 30l142 146q15 15 30 0l49 -50q15 -15 0 -30l-142 -146q-15 -15 -30 0zM291 -10q-46 0 -91 14t-79.5 48.5t-55 90.5t-20.5 137v190
q0 64 14.5 117.5t44.5 92t77.5 59.5t109.5 21q46 0 91 -14t79.5 -48.5t55 -90.5t20.5 -137v-190q0 -64 -14.5 -117.5t-44.5 -92t-77.5 -59.5t-109.5 -21zM291 156q32 0 49 26t17 97v191q0 72 -17 98t-49 26t-49 -26t-17 -98v-191q0 -71 17 -97t49 -26z" />
    <glyph glyph-name="ohungarumlaut" unicode="&#x151;" horiz-adv-x="506" 
d="M34 729l141 132q15 15 30 0l65 -68q14 -15 0 -29l-140 -131q-15 -15 -30 0l-66 66q-15 15 0 30zM274 729l141 132q15 15 30 0l65 -68q14 -15 0 -29l-140 -131q-15 -15 -30 0l-66 66q-15 15 0 30zM253 -10q-39 0 -77.5 13t-70.5 41.5t-51 74.5t-19 107v108q0 46 13 90
t42 76t71 51t92 19q39 0 77.5 -13t70.5 -41.5t51 -74.5t19 -107v-108q0 -46 -13 -90t-42 -76t-71 -51t-92 -19zM301 362q0 29 -14.5 43.5t-33.5 14.5t-33.5 -14.5t-14.5 -43.5v-164q0 -29 14.5 -43.5t33.5 -14.5t33.5 14.5t14.5 43.5v164z" />
    <glyph glyph-name="OE" unicode="&#x152;" horiz-adv-x="764" 
d="M556 590q-4 0 -11.5 -2t-7.5 -17v-95q0 -4 2 -11.5t17 -7.5h142q21 0 21 -21v-118q0 -21 -21 -21h-142q-4 0 -11.5 -2t-7.5 -17v-99q0 -4 2 -11.5t17 -7.5h142q21 0 21 -21v-118q0 -21 -21 -21h-301h-15h-9q-48 -10 -82 -10q-46 0 -91 14t-79.5 48.5t-55 90.5t-20.5 137
v190q0 64 14.5 117.5t44.5 92t77.5 59.5t109.5 21q34 0 82 -10h9h18h298q21 0 21 -21v-118q0 -21 -21 -21h-142zM357 279v191q0 72 -17 98t-49 26t-49 -26t-17 -98v-191q0 -71 17 -97t49 -26t49 26t17 97z" />
    <glyph glyph-name="oe" unicode="&#x153;" horiz-adv-x="762" 
d="M519 570q61 0 108 -28t73.5 -79.5t26.5 -127.5v-15q0 -32 -4 -59q-1 -11 -6 -16t-15 -5h-221q-10 0 -10 -10v-32q0 -29 14.5 -43.5t33.5 -14.5q16 0 27 10.5t15 24.5q4 13 17 13h127q15 0 13 -18q-10 -88 -65.5 -134t-141.5 -46q-78 0 -130 38q-27 -18 -62 -28t-66 -10
q-39 0 -77.5 13t-70.5 41.5t-51 74.5t-19 107v108q0 46 13 90t42 76t71 51t92 19q75 0 133 -42q58 42 133 42zM301 198v136v28q0 29 -14.5 43.5t-33.5 14.5t-33.5 -14.5t-14.5 -43.5v-164q0 -29 14.5 -43.5t33.5 -14.5t33.5 14.5t14.5 43.5zM567 360v2q0 29 -14.5 43.5
t-33.5 14.5t-33.5 -14.5t-14.5 -43.5v-2q0 -10 10 -10h76q10 0 10 10z" />
    <glyph glyph-name="Racute" unicode="&#x154;" horiz-adv-x="561" 
d="M163 814l-44 64q-6 9 -4 15t11 13l197 132q9 6 15 4t13 -12l43 -64q6 -10 4.5 -16t-10.5 -12l-197 -132q-3 -2 -10.5 -4t-17.5 12zM544 20q3 -8 0.5 -14t-9.5 -6h-148q-19 0 -25 14l-85 220h-28q-4 0 -11.5 -2t-7.5 -17v-194q0 -21 -21 -21h-138q-21 0 -21 21v708
q0 21 21 21h218q47 0 89 -18t73 -51.5t48 -79t17 -98.5v-22q0 -60 -22 -110.5t-60 -83.5zM230 423q0 -4 2 -11.5t17 -7.5h19q29 0 48.5 23t19.5 64v12q0 41 -19.5 64t-48.5 23h-19q-4 0 -11.5 -2t-7.5 -17v-148z" />
    <glyph glyph-name="racute" unicode="&#x155;" horiz-adv-x="376" 
d="M130 633l-66 66q-15 15 0 30l141 132q15 15 30 0l65 -68q14 -15 0 -29l-140 -131q-15 -15 -30 0zM335 570q21 0 21 -21v-119q0 -21 -21 -21q-55 0 -90 -29.5t-35 -94.5v-264q0 -21 -21 -21h-128q-21 0 -21 21v518q0 21 21 21h97q18 0 23 -23l8 -34q55 67 146 67z" />
    <glyph glyph-name="uni0156" unicode="&#x156;" horiz-adv-x="561" 
d="M544 20q3 -8 0.5 -14t-9.5 -6h-148q-19 0 -25 14l-85 220h-28q-4 0 -11.5 -2t-7.5 -17v-194q0 -21 -21 -21h-138q-21 0 -21 21v708q0 21 21 21h218q47 0 89 -18t73 -51.5t48 -79t17 -98.5v-22q0 -60 -22 -110.5t-60 -83.5zM230 423q0 -4 2 -11.5t17 -7.5h19q29 0 48.5 23
t19.5 64v12q0 41 -19.5 64t-48.5 23h-19q-4 0 -11.5 -2t-7.5 -17v-148zM279 -36q18 2 40 -5.5t38 -26.5t21 -49t-5 -69q-6 -25 -22.5 -56.5t-45.5 -64.5q-3 -3 -8 -7.5t-15 2.5l-42 30q-9 7 -2 18q13 21 17.5 33t0.5 27q-4 13 -23.5 28.5t-24 27t-5.5 19.5q-4 34 19 62
t57 31z" />
    <glyph glyph-name="uni0157" unicode="&#x157;" horiz-adv-x="376" 
d="M335 570q21 0 21 -21v-119q0 -21 -21 -21q-55 0 -90 -29.5t-35 -94.5v-264q0 -21 -21 -21h-128q-21 0 -21 21v518q0 21 21 21h97q18 0 23 -23l8 -34q55 67 146 67zM116 -36q18 2 40 -5.5t38 -26.5t21 -49t-5 -69q-6 -25 -22.5 -56.5t-45.5 -64.5q-3 -3 -8 -7.5t-15 2.5
l-42 30q-9 7 -2 18q13 21 17.5 33t0.5 27q-4 13 -23.5 28.5t-24 27t-5.5 19.5q-4 34 19 62t57 31z" />
    <glyph glyph-name="Rcaron" unicode="&#x158;" horiz-adv-x="561" 
d="M77 958q-16 13 0 29l49 49q14 14 29 0l105 -94l105 94q15 14 29 0l49 -49q16 -16 0 -29l-168 -150q-15 -13 -30 0zM544 20q3 -8 0.5 -14t-9.5 -6h-148q-19 0 -25 14l-85 220h-28q-4 0 -11.5 -2t-7.5 -17v-194q0 -21 -21 -21h-138q-21 0 -21 21v708q0 21 21 21h218
q47 0 89 -18t73 -51.5t48 -79t17 -98.5v-22q0 -60 -22 -110.5t-60 -83.5zM230 423q0 -4 2 -11.5t17 -7.5h19q29 0 48.5 23t19.5 64v12q0 41 -19.5 64t-48.5 23h-19q-4 0 -11.5 -2t-7.5 -17v-148z" />
    <glyph glyph-name="rcaron" unicode="&#x159;" horiz-adv-x="376" 
d="M367 811q16 -16 0 -29l-168 -150q-15 -13 -30 0l-168 150q-16 13 0 29l49 49q14 14 29 0l105 -94l105 94q15 14 29 0zM335 570q21 0 21 -21v-119q0 -21 -21 -21q-55 0 -90 -29.5t-35 -94.5v-264q0 -21 -21 -21h-128q-21 0 -21 21v518q0 21 21 21h97q18 0 23 -23l8 -34
q55 67 146 67z" />
    <glyph glyph-name="Sacute" unicode="&#x15a;" horiz-adv-x="564" 
d="M408 965q6 -10 4.5 -16t-10.5 -12l-197 -132q-3 -2 -10.5 -4t-17.5 12l-44 64q-6 9 -4 15t11 13l197 132q9 6 15 4t13 -12zM519 198q0 -40 -15 -78.5t-48 -67.5t-79 -45.5t-96 -16.5q-49 0 -92.5 15.5t-75.5 45.5t-50 73.5t-18 96.5q0 18 13 18h134q17 0 18 -16
q2 -21 10.5 -41.5t24.5 -31t36 -10.5q24 0 39 13t18 34q4 25 -13.5 51.5t-82.5 71t-99.5 74.5t-56 65.5t-26.5 63t-5 46.5q0 42 15 79t43 64.5t69 42.5t91 15q40 0 80 -11t71 -38t50 -70t19 -102q0 -18 -13 -18h-134q-17 0 -18 16q-8 72 -50 72q-23 0 -34.5 -16t-6.5 -37
q3 -15 19.5 -34t69.5 -57t73 -54.5t37.5 -33.5t35 -40t32.5 -58.5t15 -80.5z" />
    <glyph glyph-name="sacute" unicode="&#x15b;" horiz-adv-x="447" 
d="M104 729l141 132q15 15 30 0l65 -68q14 -15 0 -29l-140 -131q-15 -15 -30 0l-66 66q-15 15 0 30zM229 -10q-51 0 -91.5 18t-70 57.5t-37.5 104.5q-2 18 13 18h124q14 0 17 -13q9 -45 40 -45q12 0 21 7.5t9 18.5q1 12 -8.5 23.5t-49 30t-56 27t-34.5 22t-30 27.5
t-24.5 37.5t-16.5 62.5q-6 83 47.5 133.5t135.5 50.5q33 0 66 -9.5t60.5 -31t44 -56.5t16.5 -83q0 -18 -13 -18h-114q-16 0 -17 13q-2 16 -9.5 30t-23.5 15q-13 1 -22.5 -6.5t-10.5 -18.5q-1 -12 10.5 -24.5t59.5 -35.5t67 -35t34 -24t29 -29t23.5 -42.5t8.5 -56.5
q-1 -28 -12 -57.5t-35.5 -54t-62.5 -40.5t-88 -16z" />
    <glyph glyph-name="Scircumflex" unicode="&#x15c;" horiz-adv-x="564" 
d="M456 885q16 -13 0 -29l-49 -49q-14 -14 -29 0l-105 94l-105 -94q-15 -14 -29 0l-49 49q-16 16 0 29l168 150q7 6 15 6t15 -6zM519 198q0 -40 -15 -78.5t-48 -67.5t-79 -45.5t-96 -16.5q-49 0 -92.5 15.5t-75.5 45.5t-50 73.5t-18 96.5q0 18 13 18h134q17 0 18 -16
q2 -21 10.5 -41.5t24.5 -31t36 -10.5q24 0 39 13t18 34q4 25 -13.5 51.5t-82.5 71t-99.5 74.5t-56 65.5t-26.5 63t-5 46.5q0 42 15 79t43 64.5t69 42.5t91 15q40 0 80 -11t71 -38t50 -70t19 -102q0 -18 -13 -18h-134q-17 0 -18 16q-8 72 -50 72q-23 0 -34.5 -16t-6.5 -37
q3 -15 19.5 -34t69.5 -57t73 -54.5t37.5 -33.5t35 -40t32.5 -58.5t15 -80.5z" />
    <glyph glyph-name="scircumflex" unicode="&#x15d;" horiz-adv-x="447" 
d="M407 711q16 -13 0 -29l-49 -49q-14 -14 -29 0l-105 94l-105 -94q-15 -14 -29 0l-49 49q-16 16 0 29l168 150q7 6 15 6t15 -6zM229 -10q-51 0 -91.5 18t-70 57.5t-37.5 104.5q-2 18 13 18h124q14 0 17 -13q9 -45 40 -45q12 0 21 7.5t9 18.5q1 12 -8.5 23.5t-49 30t-56 27
t-34.5 22t-30 27.5t-24.5 37.5t-16.5 62.5q-6 83 47.5 133.5t135.5 50.5q33 0 66 -9.5t60.5 -31t44 -56.5t16.5 -83q0 -18 -13 -18h-114q-16 0 -17 13q-2 16 -9.5 30t-23.5 15q-13 1 -22.5 -6.5t-10.5 -18.5q-1 -12 10.5 -24.5t59.5 -35.5t67 -35t34 -24t29 -29t23.5 -42.5
t8.5 -56.5q-1 -28 -12 -57.5t-35.5 -54t-62.5 -40.5t-88 -16z" />
    <glyph glyph-name="Scedilla" unicode="&#x15e;" horiz-adv-x="564" 
d="M519 198q0 -34 -11 -68.5t-36.5 -62t-62 -46.5t-82.5 -27l-11 -32q19 8 43 8t46.5 -14t39.5 -41t17 -64q0 -56 -42 -93.5t-100 -37.5q-29 0 -63 14q-18 7 -12 24l24 59q6 16 22 10q15 -5 27 -5q16 0 28 13t12 30t-12.5 29t-29.5 12q-19 0 -35 -16q-3 -3 -9 -6.5t-17 2.5
l-42 19q-13 6 -8 19l24 71q-82 15 -133 74.5t-51 151.5q0 18 13 18h134q17 0 18 -16q2 -21 10.5 -41.5t24.5 -31t36 -10.5q24 0 39 13t18 34q4 25 -13.5 51.5t-82.5 71t-99.5 74.5t-56 65.5t-26.5 63t-5 46.5q0 42 15 79t43 64.5t69 42.5t91 15q40 0 80 -11t71 -38t50 -70
t19 -102q0 -18 -13 -18h-134q-17 0 -18 16q-8 72 -50 72q-23 0 -34.5 -16t-6.5 -37q3 -15 19.5 -34t69.5 -57t73 -54.5t37.5 -33.5t35 -40t32.5 -58.5t15 -80.5z" />
    <glyph glyph-name="scedilla" unicode="&#x15f;" horiz-adv-x="447" 
d="M427 158q-1 -33 -15.5 -67t-52 -61.5t-84.5 -35.5l-11 -32q19 8 43 8t46.5 -14t39.5 -41t17 -64q0 -56 -42 -93.5t-100 -37.5q-29 0 -63 14q-18 7 -12 24l24 59q6 16 22 10q15 -5 27 -5q16 0 28 13t12 30t-12.5 29t-29.5 12q-19 0 -35 -16q-3 -3 -9 -6.5t-17 2.5l-42 19
q-13 6 -8 19l25 71q-61 13 -100 58t-48 117q-2 18 13 18h124q14 0 17 -13q9 -45 40 -45q12 0 21 7.5t9 18.5q1 12 -8.5 23.5t-49 30t-56 27t-34.5 22t-30 27.5t-24.5 37.5t-16.5 62.5q-6 83 47.5 133.5t135.5 50.5q33 0 66 -9.5t60.5 -31t44 -56.5t16.5 -83q0 -18 -13 -18
h-114q-16 0 -17 13q-2 16 -9.5 30t-23.5 15q-13 1 -22.5 -6.5t-10.5 -18.5q-1 -12 10.5 -24.5t59.5 -35.5t67 -35t34 -24t29 -29t23.5 -42.5t8.5 -56.5z" />
    <glyph glyph-name="Scaron" unicode="&#x160;" horiz-adv-x="564" 
d="M457 957l-168 -150q-15 -13 -30 0l-168 150q-16 13 0 29l49 49q14 14 29 0l105 -94l105 94q15 14 29 0l49 -49q16 -16 0 -29zM519 198q0 -40 -15 -78.5t-48 -67.5t-79 -45.5t-96 -16.5q-49 0 -92.5 15.5t-75.5 45.5t-50 73.5t-18 96.5q0 18 13 18h134q17 0 18 -16
q2 -21 10.5 -41.5t24.5 -31t36 -10.5q24 0 39 13t18 34q4 25 -13.5 51.5t-82.5 71t-99.5 74.5t-56 65.5t-26.5 63t-5 46.5q0 42 15 79t43 64.5t69 42.5t91 15q40 0 80 -11t71 -38t50 -70t19 -102q0 -18 -13 -18h-134q-17 0 -18 16q-8 72 -50 72q-23 0 -34.5 -16t-6.5 -37
q3 -15 19.5 -34t69.5 -57t73 -54.5t37.5 -33.5t35 -40t32.5 -58.5t15 -80.5z" />
    <glyph glyph-name="scaron" unicode="&#x161;" horiz-adv-x="447" 
d="M407 782l-168 -150q-15 -13 -30 0l-168 150q-16 13 0 29l49 49q14 14 29 0l105 -94l105 94q15 14 29 0l49 -49q16 -16 0 -29zM229 -10q-51 0 -91.5 18t-70 57.5t-37.5 104.5q-2 18 13 18h124q14 0 17 -13q9 -45 40 -45q12 0 21 7.5t9 18.5q1 12 -8.5 23.5t-49 30t-56 27
t-34.5 22t-30 27.5t-24.5 37.5t-16.5 62.5q-6 83 47.5 133.5t135.5 50.5q33 0 66 -9.5t60.5 -31t44 -56.5t16.5 -83q0 -18 -13 -18h-114q-16 0 -17 13q-2 16 -9.5 30t-23.5 15q-13 1 -22.5 -6.5t-10.5 -18.5q-1 -12 10.5 -24.5t59.5 -35.5t67 -35t34 -24t29 -29t23.5 -42.5
t8.5 -56.5q-1 -28 -12 -57.5t-35.5 -54t-62.5 -40.5t-88 -16z" />
    <glyph glyph-name="uni0162" unicode="&#x162;" horiz-adv-x="502" 
d="M451 750q21 0 21 -21v-118q0 -21 -21 -21h-91q-4 0 -11.5 -2t-7.5 -17v-550q0 -21 -21 -21h-21l-13 -38q19 8 43 8t46.5 -14t39.5 -41t17 -64q0 -56 -42 -93.5t-100 -37.5q-29 0 -63 14q-18 7 -12 24l24 59q6 16 22 10q15 -5 27 -5q16 0 28 13t12 30t-12.5 29t-29.5 12
q-19 0 -35 -16q-3 -3 -9 -6.5t-17 2.5l-42 19q-13 6 -8 19l26 76h-19q-21 0 -21 21v550q0 4 -2 11.5t-17 7.5h-91q-21 0 -21 21v118q0 21 21 21h400z" />
    <glyph glyph-name="uni0163" unicode="&#x163;" horiz-adv-x="371" 
d="M242 -38q19 8 43 8t46.5 -14t39.5 -41t17 -64q0 -56 -42 -93.5t-100 -37.5q-29 0 -63 14q-18 7 -12 24l24 59q6 16 22 10q15 -5 27 -5q16 0 28 13t12 30t-12.5 29t-29.5 12q-19 0 -35 -16q-3 -3 -9 -6.5t-17 2.5l-42 19q-13 6 -8 19l36 104q-40 22 -58.5 63.5
t-18.5 109.5v206q0 4 -2 11.5t-17 7.5h-20q-21 0 -21 21v92q0 21 21 21h30q4 0 11.5 2t7.5 17v80q0 21 21 21h113q21 0 21 -21v-80q0 -4 2 -11.5t17 -7.5h46q21 0 21 -21v-92q0 -21 -21 -21h-41q-4 0 -11.5 -2t-7.5 -17v-206q0 -61 60 -61q21 0 21 -21v-98q0 -21 -21 -21
q-34 0 -64 3z" />
    <glyph glyph-name="Tcaron" unicode="&#x164;" horiz-adv-x="502" 
d="M435 957l-168 -150q-15 -13 -30 0l-168 150q-16 13 0 29l49 49q14 14 29 0l105 -94l105 94q15 14 29 0l49 -49q16 -16 0 -29zM451 750q21 0 21 -21v-118q0 -21 -21 -21h-91q-4 0 -11.5 -2t-7.5 -17v-550q0 -21 -21 -21h-138q-21 0 -21 21v550q0 4 -2 11.5t-17 7.5h-91
q-21 0 -21 21v118q0 21 21 21h400z" />
    <glyph glyph-name="tcaron" unicode="&#x165;" horiz-adv-x="540" 
d="M423 585q-2 13 -28 30t-32.5 31t-6.5 30q0 35 25 59.5t60 24.5q27 0 50 -15.5t36 -42.5t12 -63.5t-18 -75.5q-14 -32 -39 -63.5t-49 -50.5q-3 -2 -9 -5.5t-14 3.5l-34 28q-2 2 -4.5 6.5t3.5 13.5q4 6 19.5 27t23 36t5.5 27zM320 0q-94 0 -141.5 22.5t-68 65.5t-20.5 113
v206q0 4 -2 11.5t-17 7.5h-20q-21 0 -21 21v92q0 21 21 21h30q4 0 11.5 2t7.5 17v80q0 21 21 21h113q21 0 21 -21v-80q0 -4 2 -11.5t17 -7.5h46q21 0 21 -21v-92q0 -21 -21 -21h-41q-4 0 -11.5 -2t-7.5 -17v-206q0 -61 60 -61q21 0 21 -21v-98q0 -21 -21 -21z" />
    <glyph glyph-name="Tbar" unicode="&#x166;" horiz-adv-x="462" 
d="M451 750q21 0 21 -21v-118q0 -21 -21 -21h-91q-4 0 -11.5 -2t-7.5 -17v-61h19q21 0 21 -21v-92q0 -21 -21 -21h-19v-355q0 -21 -21 -21h-138q-21 0 -21 21v297h-20v39q0 4 -2 11.5t-17 7.5h-20q-21 0 -21 21v92q0 21 21 21h20q4 0 11.5 2t7.5 17v33h20v9q0 4 -2 11.5
t-17 7.5h-91q-21 0 -21 21v118q0 21 21 21h400z" />
    <glyph glyph-name="tbar" unicode="&#x167;" horiz-adv-x="381" 
d="M320 0q-122 0 -176 49.5t-54 162.5v13q0 4 -2 11.5t-17 7.5h-20q-21 0 -21 21v92q0 21 21 21h20q4 0 11.5 2t7.5 17v10q0 4 -2 11.5t-17 7.5h-20q-21 0 -21 21v92q0 21 21 21h30q4 0 11.5 2t7.5 17v50q0 21 21 21h113q21 0 21 -21v-50q0 -4 2 -11.5t17 -7.5h46
q21 0 21 -21v-92q0 -21 -21 -21h-41q-4 0 -11.5 -2t-7.5 -17v-10q0 -4 2 -11.5t17 -7.5h41q21 0 21 -21v-92q0 -21 -21 -21h-41q-4 0 -11.5 -2t-7.5 -17v-13q0 -61 60 -61q21 0 21 -21v-109q0 -21 -21 -21z" />
    <glyph glyph-name="Utilde" unicode="&#x168;" 
d="M141 843q-12 9 -5 21q34 57 98 57q27 0 63 -16q40 -18 62 8q10 12 21 5l62 -40q12 -8 5 -21q-34 -57 -98 -57q-27 0 -63 16q-40 18 -62 -8q-10 -12 -21 -5zM516 750q21 0 21 -21v-396v-53q0 -64 -14.5 -117.5t-44.5 -92t-77.5 -59.5t-109.5 -21q-46 0 -91 14t-79.5 48.5
t-55 90.5t-20.5 137v104v345q0 21 21 21h138q21 0 21 -21v-392v-58q0 -71 17 -97t49 -26t49 26t17 97v109v341q0 21 21 21h138z" />
    <glyph glyph-name="utilde" unicode="&#x169;" horiz-adv-x="516" 
d="M83 696q-7 4 -8 9t3 12q20 38 52 60.5t63 22.5q24 0 50 -9t28 -10q42 -13 62 13q5 7 10 8t11 -3l70 -40q13 -7 5 -21q-20 -38 -52 -60.5t-63 -22.5q-24 0 -50 9t-28 10q-42 13 -62 -13q-5 -7 -10 -8t-11 3zM455 560q21 0 21 -21v-518q0 -21 -21 -21h-97q-18 0 -23 23
l-8 34q-17 -20 -41 -37.5t-54 -24.5q-36 -9 -70.5 -1t-62 30.5t-43.5 58.5t-16 79v377q0 21 21 21h128q21 0 21 -21v-341q0 -29 14.5 -43.5t33.5 -14.5t33.5 14.5t14.5 43.5v341q0 21 21 21h128z" />
    <glyph glyph-name="Umacron" unicode="&#x16a;" 
d="M181 800q-21 0 -21 21v79q0 21 21 21h220q21 0 21 -21v-79q0 -21 -21 -21h-220zM516 750q21 0 21 -21v-396v-53q0 -64 -14.5 -117.5t-44.5 -92t-77.5 -59.5t-109.5 -21q-46 0 -91 14t-79.5 48.5t-55 90.5t-20.5 137v104v345q0 21 21 21h138q21 0 21 -21v-392v-58
q0 -71 17 -97t49 -26t49 26t17 97v109v341q0 21 21 21h138z" />
    <glyph glyph-name="umacron" unicode="&#x16b;" horiz-adv-x="516" 
d="M138 662q-21 0 -21 21v90q0 21 21 21h240q21 0 21 -21v-90q0 -21 -21 -21h-240zM455 560q21 0 21 -21v-518q0 -21 -21 -21h-97q-18 0 -23 23l-8 34q-17 -20 -41 -37.5t-54 -24.5q-36 -9 -70.5 -1t-62 30.5t-43.5 58.5t-16 79v377q0 21 21 21h128q21 0 21 -21v-341
q0 -29 14.5 -43.5t33.5 -14.5t33.5 14.5t14.5 43.5v341q0 21 21 21h128z" />
    <glyph glyph-name="Ubreve" unicode="&#x16c;" 
d="M291 800q-103 0 -177 81q-14 16 0 30l52 51q14 14 32 -2q20 -18 41.5 -29.5t51.5 -11.5q23 0 45 8.5t48 32.5q18 16 32 2l52 -51q14 -14 0 -30q-74 -81 -177 -81zM516 750q21 0 21 -21v-396v-53q0 -64 -14.5 -117.5t-44.5 -92t-77.5 -59.5t-109.5 -21q-46 0 -91 14
t-79.5 48.5t-55 90.5t-20.5 137v104v345q0 21 21 21h138q21 0 21 -21v-392v-58q0 -71 17 -97t49 -26t49 26t17 97v109v341q0 21 21 21h138z" />
    <glyph glyph-name="ubreve" unicode="&#x16d;" horiz-adv-x="516" 
d="M253 652q-28 0 -62.5 8t-65 26t-49.5 37q-15 15 0 30l56 55q4 4 9 5t22 -10q49 -32 90 -32t90 32q13 8 18.5 10t12.5 -5l56 -55q15 -15 0 -30q-19 -19 -49.5 -37t-65 -26t-62.5 -8zM455 560q21 0 21 -21v-518q0 -21 -21 -21h-97q-18 0 -23 23l-8 34q-17 -20 -41 -37.5
t-54 -24.5q-36 -9 -70.5 -1t-62 30.5t-43.5 58.5t-16 79v377q0 21 21 21h128q21 0 21 -21v-341q0 -29 14.5 -43.5t33.5 -14.5t33.5 14.5t14.5 43.5v341q0 21 21 21h128z" />
    <glyph glyph-name="Uring" unicode="&#x16e;" 
d="M291 800q-23 0 -51.5 12t-49 42.5t-20.5 66.5q0 23 12 51.5t42.5 49t66.5 20.5q23 0 51.5 -12t49 -42.5t20.5 -66.5q0 -23 -12 -51.5t-42.5 -49t-66.5 -20.5zM291 963q-17 0 -29.5 -12.5t-12.5 -29.5t12.5 -29.5t29.5 -12.5q16 0 28.5 12.5t12.5 29.5t-12.5 29.5
t-28.5 12.5zM516 750q21 0 21 -21v-396v-53q0 -64 -14.5 -117.5t-44.5 -92t-77.5 -59.5t-109.5 -21q-46 0 -91 14t-79.5 48.5t-55 90.5t-20.5 137v104v345q0 21 21 21h138q21 0 21 -21v-392v-58q0 -71 17 -97t49 -26t49 26t17 97v109v341q0 21 21 21h138z" />
    <glyph glyph-name="uring" unicode="&#x16f;" horiz-adv-x="516" 
d="M258 624q-52 0 -89.5 37.5t-37.5 90.5q0 52 37.5 89.5t89.5 37.5t89.5 -37.5t37.5 -89.5q0 -53 -37.5 -90.5t-89.5 -37.5zM258 794q-17 0 -29.5 -12.5t-12.5 -29.5t12.5 -29.5t29.5 -12.5q16 0 28.5 12.5t12.5 29.5t-12.5 29.5t-28.5 12.5zM455 560q21 0 21 -21v-518
q0 -21 -21 -21h-97q-18 0 -23 23l-8 34q-17 -20 -41 -37.5t-54 -24.5q-36 -9 -70.5 -1t-62 30.5t-43.5 58.5t-16 79v377q0 21 21 21h128q21 0 21 -21v-341q0 -29 14.5 -43.5t33.5 -14.5t33.5 14.5t14.5 43.5v341q0 21 21 21h128z" />
    <glyph glyph-name="Uhungarumlaut" unicode="&#x170;" 
d="M131 808l-49 50q-15 15 0 30l142 146q15 15 30 0l49 -50q15 -15 0 -30l-142 -146q-15 -15 -30 0zM540 984q15 -15 0 -30l-142 -146q-15 -15 -30 0l-49 50q-15 15 0 30l142 146q15 15 30 0zM516 750q21 0 21 -21v-396v-53q0 -64 -14.5 -117.5t-44.5 -92t-77.5 -59.5
t-109.5 -21q-46 0 -91 14t-79.5 48.5t-55 90.5t-20.5 137v104v345q0 21 21 21h138q21 0 21 -21v-392v-58q0 -71 17 -97t49 -26t49 26t17 97v109v341q0 21 21 21h138z" />
    <glyph glyph-name="uhungarumlaut" unicode="&#x171;" horiz-adv-x="516" 
d="M135 633q-15 -15 -30 0l-66 66q-15 15 0 30l141 132q15 15 30 0l65 -68q14 -15 0 -29zM515 793q14 -15 0 -29l-140 -131q-15 -15 -30 0l-66 66q-15 15 0 30l141 132q15 15 30 0zM455 560q21 0 21 -21v-518q0 -21 -21 -21h-97q-18 0 -23 23l-8 34q-17 -20 -41 -37.5
t-54 -24.5q-36 -9 -70.5 -1t-62 30.5t-43.5 58.5t-16 79v377q0 21 21 21h128q21 0 21 -21v-341q0 -29 14.5 -43.5t33.5 -14.5t33.5 14.5t14.5 43.5v341q0 21 21 21h128z" />
    <glyph glyph-name="Uogonek" unicode="&#x172;" 
d="M516 750q21 0 21 -21v-396v-53q0 -88 -24.5 -148t-68 -94.5t-106.5 -44.5q-3 -33 20 -54t67 -9q18 4 22 -10l26 -82q5 -18 -12 -24q-41 -16 -83 -13t-75.5 22t-53 51.5t-19.5 71.5q0 24 8 48q-97 17 -145 92.5t-48 193.5v104v345q0 21 21 21h138q21 0 21 -21v-392v-58
q0 -71 17 -97t49 -26t49 26t17 97v109v341q0 21 21 21h138z" />
    <glyph glyph-name="uogonek" unicode="&#x173;" horiz-adv-x="516" 
d="M557 -162q5 -18 -12 -24q-41 -16 -83 -13t-75.5 22t-53 51.5t-19.5 71.5q0 40 21 77l-8 34q-17 -20 -41 -37.5t-54 -24.5q-36 -9 -70.5 -1t-62 30.5t-43.5 58.5t-16 79v377q0 21 21 21h128q21 0 21 -21v-341q0 -29 14.5 -43.5t33.5 -14.5t33.5 14.5t14.5 43.5v341
q0 21 21 21h128q21 0 21 -21v-518q0 -21 -21 -21h-32v-1q-3 -15 2.5 -34.5t26.5 -32t57 -2.5q18 4 22 -10z" />
    <glyph glyph-name="Wcircumflex" unicode="&#x174;" horiz-adv-x="780" 
d="M573 885q16 -13 0 -29l-49 -49q-14 -14 -29 0l-105 94l-105 -94q-15 -14 -29 0l-49 49q-16 16 0 29l168 150q7 6 15 6t15 -6zM191 0q-12 0 -18 4t-8 16l-144 710q-4 20 14 20h141q20 0 24 -20l51 -288q1 -5 6 -5.5t6 4.5l68 289q1 5 5 12.5t21 7.5h66q12 0 17.5 -4
t8.5 -16l68 -289q1 -5 6 -4.5t6 5.5l51 288q4 20 24 20h141q18 0 14 -20l-144 -710q-2 -12 -8 -16t-18 -4h-90q-5 0 -13.5 2t-12.5 18l-77 326q-1 5 -6 5t-6 -5l-77 -326q-3 -11 -9 -15.5t-17 -4.5h-90z" />
    <glyph glyph-name="wcircumflex" unicode="&#x175;" horiz-adv-x="662" 
d="M514 711q16 -13 0 -29l-49 -49q-14 -14 -29 0l-105 94l-105 -94q-15 -14 -29 0l-49 49q-16 16 0 29l168 150q7 6 15 6t15 -6zM648 560q8 0 11.5 -5.5t1.5 -14.5l-134 -520q-3 -11 -9 -15.5t-17 -4.5h-88q-20 0 -26 20l-50 173q-1 5 -6 5t-6 -5l-50 -173q-6 -20 -26 -20
h-88q-5 0 -13.5 2t-12.5 18l-134 520q-2 9 1.5 14.5t11.5 5.5h135q18 0 23 -20l45 -199q1 -5 6 -5t6 5l46 199q4 20 26 20h60q21 0 26 -20l46 -199q1 -5 6 -5t6 5l45 199q5 20 23 20h135z" />
    <glyph glyph-name="Ycircumflex" unicode="&#x176;" horiz-adv-x="571" 
d="M469 885q16 -13 0 -29l-49 -49q-14 -14 -29 0l-105 94l-105 -94q-15 -14 -29 0l-49 49q-16 16 0 29l168 150q7 6 15 6t15 -6zM528 750q8 0 11.5 -6t0.5 -14l-164 -452v-257q0 -21 -21 -21h-138q-21 0 -21 21v257l-164 452q-3 8 0.5 14t11.5 6h142q19 0 26 -20l68 -211
q1 -4 6 -4t6 4l68 211q6 20 26 20h142z" />
    <glyph glyph-name="ycircumflex" unicode="&#x177;" horiz-adv-x="491" 
d="M428 711q16 -13 0 -29l-49 -49q-14 -14 -29 0l-105 94l-105 -94q-15 -14 -29 0l-49 49q-16 16 0 29l168 150q7 6 15 6t15 -6zM63 -230q-21 0 -21 21v109q0 20 21 21q41 3 59.5 15.5t25.5 33.5q11 32 14.5 51t-6.5 47l-155 472q-3 9 1 14.5t12 5.5h135q18 0 23 -20
l68 -248q1 -5 6 -5t6 5l66 248q6 20 23 20h135q8 0 12 -5.5t1 -14.5l-219 -655q-38 -115 -207 -115z" />
    <glyph glyph-name="Ydieresis" unicode="&#x178;" horiz-adv-x="571" 
d="M190 800q-35 0 -60.5 25.5t-25.5 60.5q0 16 8.5 36t30.5 34.5t47 14.5q16 0 36.5 -8.5t35 -30t14.5 -46.5q0 -35 -25.5 -60.5t-60.5 -25.5zM382 800q-35 0 -60.5 25.5t-25.5 60.5q0 16 8.5 36t30.5 34.5t47 14.5q16 0 36.5 -8.5t35 -30t14.5 -46.5q0 -35 -25.5 -60.5
t-60.5 -25.5zM528 750q8 0 11.5 -6t0.5 -14l-164 -452v-257q0 -21 -21 -21h-138q-21 0 -21 21v257l-164 452q-3 8 0.5 14t11.5 6h142q19 0 26 -20l68 -211q1 -4 6 -4t6 4l68 211q6 20 26 20h142z" />
    <glyph glyph-name="Zacute" unicode="&#x179;" horiz-adv-x="484" 
d="M388 965q6 -10 4.5 -16t-10.5 -12l-197 -132q-3 -2 -10.5 -4t-17.5 12l-44 64q-6 9 -4 15t11 13l197 132q9 6 15 4t13 -12zM445 590l-215 -418q-2 -4 -1 -8t6 -4h198q21 0 21 -21v-118q0 -21 -21 -21h-382q-21 0 -21 21v107q0 6 1 11.5t8 20.5l223 418q2 4 1 8t-6 4h-206
q-21 0 -21 21v118q0 21 21 21h382q21 0 21 -21v-109q0 -9 -1.5 -14t-7.5 -16z" />
    <glyph glyph-name="zacute" unicode="&#x17a;" horiz-adv-x="418" 
d="M89 729l141 132q15 15 30 0l65 -68q14 -15 0 -29l-140 -131q-15 -15 -30 0l-66 66q-15 15 0 30zM30 21v89q0 15 7 27l162 274q2 3 1 6t-5 3h-144q-21 0 -21 21v98q0 21 21 21h316q21 0 21 -21v-89q0 -15 -7 -27l-162 -274q-2 -3 -1 -6t5 -3h144q21 0 21 -21v-98
q0 -21 -21 -21h-316q-21 0 -21 21z" />
    <glyph glyph-name="Zdotaccent" unicode="&#x17b;" horiz-adv-x="484" 
d="M253 800q-35 0 -60.5 25.5t-25.5 60.5q0 16 8.5 36t30.5 34.5t47 14.5q16 0 36.5 -8.5t35 -30t14.5 -46.5q0 -35 -25.5 -60.5t-60.5 -25.5zM445 590l-215 -418q-2 -4 -1 -8t6 -4h198q21 0 21 -21v-118q0 -21 -21 -21h-382q-21 0 -21 21v107q0 6 1 11.5t8 20.5l223 418
q2 4 1 8t-6 4h-206q-21 0 -21 21v118q0 21 21 21h382q21 0 21 -21v-109q0 -9 -1.5 -14t-7.5 -16z" />
    <glyph glyph-name="zdotaccent" unicode="&#x17c;" horiz-adv-x="418" 
d="M209 640q-19 0 -41.5 9.5t-39 33.5t-16.5 53q0 18 9.5 40.5t34 39t53.5 16.5q18 0 40.5 -9.5t39 -33.5t16.5 -53q0 -18 -9.5 -40.5t-33.5 -39t-53 -16.5zM30 21v89q0 15 7 27l162 274q2 3 1 6t-5 3h-144q-21 0 -21 21v98q0 21 21 21h316q21 0 21 -21v-89q0 -15 -7 -27
l-162 -274q-2 -3 -1 -6t5 -3h144q21 0 21 -21v-98q0 -21 -21 -21h-316q-21 0 -21 21z" />
    <glyph glyph-name="Zcaron" unicode="&#x17d;" horiz-adv-x="484" 
d="M437 957l-168 -150q-15 -13 -30 0l-168 150q-16 13 0 29l49 49q14 14 29 0l105 -94l105 94q15 14 29 0l49 -49q16 -16 0 -29zM445 590l-215 -418q-2 -4 -1 -8t6 -4h198q21 0 21 -21v-118q0 -21 -21 -21h-382q-21 0 -21 21v107q0 6 1 11.5t8 20.5l223 418q2 4 1 8t-6 4
h-206q-21 0 -21 21v118q0 21 21 21h382q21 0 21 -21v-109q0 -9 -1.5 -14t-7.5 -16z" />
    <glyph glyph-name="zcaron" unicode="&#x17e;" horiz-adv-x="418" 
d="M392 782l-168 -150q-15 -13 -30 0l-168 150q-16 13 0 29l49 49q14 14 29 0l105 -94l105 94q15 14 29 0l49 -49q16 -16 0 -29zM30 21v89q0 15 7 27l162 274q2 3 1 6t-5 3h-144q-21 0 -21 21v98q0 21 21 21h316q21 0 21 -21v-89q0 -15 -7 -27l-162 -274q-2 -3 -1 -6t5 -3
h144q21 0 21 -21v-98q0 -21 -21 -21h-316q-21 0 -21 21z" />
    <glyph glyph-name="AEacute" unicode="&#x1fc;" horiz-adv-x="727" 
d="M607 965q6 -10 4.5 -16t-10.5 -12l-197 -132q-3 -2 -10.5 -4t-17.5 12l-44 64q-6 9 -4 15t11 13l197 132q9 6 15 4t13 -12zM514 590q-4 0 -11.5 -2t-7.5 -17v-95q0 -4 2 -11.5t17 -7.5h142q21 0 21 -21v-118q0 -21 -21 -21h-142q-4 0 -11.5 -2t-7.5 -17v-99q0 -4 2 -11.5
t17 -7.5h142q21 0 21 -21v-118q0 -21 -21 -21h-320q-21 0 -21 21v67h-76q-4 0 -10 -1t-10 -13l-18 -54q-2 -5 -6.5 -12.5t-17.5 -7.5h-142q-8 0 -12 5t-1 15l234 710q1 5 5.5 12.5t20.5 7.5h374q21 0 21 -21v-118q0 -21 -21 -21h-142zM277 248h38v152q-2 0 -4 -1.5t-2 -3.5
l-40 -136q-2 -6 1 -8.5t7 -2.5z" />
    <glyph glyph-name="aeacute" unicode="&#x1fd;" horiz-adv-x="753" 
d="M262 729l141 132q15 15 30 0l65 -68q14 -15 0 -29l-140 -131q-15 -15 -30 0l-66 66q-15 15 0 30zM510 570q61 0 108 -28t73.5 -79.5t26.5 -127.5v-15q0 -32 -4 -59q-1 -11 -6 -16t-15 -5h-221q-10 0 -10 -10v-32q0 -29 14.5 -43.5t33.5 -14.5q16 0 27 10.5t15 24.5
q4 13 17 13h127q15 0 13 -18q-10 -88 -65.5 -134t-141.5 -46q-35 0 -68 9t-56 25.5t-37 33.5q-25 -22 -50.5 -39t-57.5 -25q-36 -8 -72 -0.5t-64.5 29.5t-45 58t-16.5 81q0 55 27 95.5t84.5 64t145.5 26.5v14q0 29 -14.5 43.5t-33.5 14.5q-16 0 -27 -10.5t-15 -24.5
q-4 -13 -17 -13h-117q-15 0 -13 18q10 89 61.5 134.5t135.5 45.5q78 0 130 -38q27 18 62 28t66 10zM558 360v2q0 29 -14.5 43.5t-33.5 14.5t-33.5 -14.5t-14.5 -43.5v-2q0 -10 10 -10h76q10 0 10 10zM292 198v58q-29 -2 -50.5 -12t-29.5 -26t-7 -32q1 -22 13.5 -34.5
t30.5 -11.5q17 1 30 15t13 43z" />
    <glyph glyph-name="uni0218" unicode="&#x218;" horiz-adv-x="564" 
d="M519 198q0 -40 -15 -78.5t-48 -67.5t-79 -45.5t-96 -16.5q-49 0 -92.5 15.5t-75.5 45.5t-50 73.5t-18 96.5q0 18 13 18h134q17 0 18 -16q2 -21 10.5 -41.5t24.5 -31t36 -10.5q24 0 39 13t18 34q4 25 -13.5 51.5t-82.5 71t-99.5 74.5t-56 65.5t-26.5 63t-5 46.5
q0 42 15 79t43 64.5t69 42.5t91 15q40 0 80 -11t71 -38t50 -70t19 -102q0 -18 -13 -18h-134q-17 0 -18 16q-8 72 -50 72q-23 0 -34.5 -16t-6.5 -37q3 -15 19.5 -34t69.5 -57t73 -54.5t37.5 -33.5t35 -40t32.5 -58.5t15 -80.5zM249 -204q-4 13 -23.5 28.5t-24 27t-5.5 19.5
q-4 34 19 62t57 31q18 2 40 -5.5t38 -26.5t21 -49t-5 -69q-6 -25 -22.5 -56.5t-45.5 -64.5q-3 -3 -8 -7.5t-15 2.5l-42 30q-9 7 -2 18q13 21 17.5 33t0.5 27z" />
    <glyph glyph-name="uni0219" unicode="&#x219;" horiz-adv-x="447" 
d="M229 -10q-51 0 -91.5 18t-70 57.5t-37.5 104.5q-2 18 13 18h124q14 0 17 -13q9 -45 40 -45q12 0 21 7.5t9 18.5q1 12 -8.5 23.5t-49 30t-56 27t-34.5 22t-30 27.5t-24.5 37.5t-16.5 62.5q-6 83 47.5 133.5t135.5 50.5q33 0 66 -9.5t60.5 -31t44 -56.5t16.5 -83
q0 -18 -13 -18h-114q-16 0 -17 13q-2 16 -9.5 30t-23.5 15q-13 1 -22.5 -6.5t-10.5 -18.5q-1 -12 10.5 -24.5t59.5 -35.5t67 -35t34 -24t29 -29t23.5 -42.5t8.5 -56.5q-1 -28 -12 -57.5t-35.5 -54t-62.5 -40.5t-88 -16zM197 -204q-4 13 -23.5 28.5t-24 27t-5.5 19.5
q-4 34 19 62t57 31q18 2 40 -5.5t38 -26.5t21 -49t-5 -69q-6 -25 -22.5 -56.5t-45.5 -64.5q-3 -3 -8 -7.5t-15 2.5l-42 30q-9 7 -2 18q13 21 17.5 33t0.5 27z" />
    <glyph glyph-name="uni021A" unicode="&#x21a;" horiz-adv-x="502" 
d="M451 750q21 0 21 -21v-118q0 -21 -21 -21h-91q-4 0 -11.5 -2t-7.5 -17v-550q0 -21 -21 -21h-138q-21 0 -21 21v550q0 4 -2 11.5t-17 7.5h-91q-21 0 -21 21v118q0 21 21 21h400zM219 -204q-4 13 -23.5 28.5t-24 27t-5.5 19.5q-4 34 19 62t57 31q18 2 40 -5.5t38 -26.5
t21 -49t-5 -69q-6 -25 -22.5 -56.5t-45.5 -64.5q-3 -3 -8 -7.5t-15 2.5l-42 30q-9 7 -2 18q13 21 17.5 33t0.5 27z" />
    <glyph glyph-name="uni021B" unicode="&#x21b;" horiz-adv-x="371" 
d="M320 0q-94 0 -141.5 22.5t-68 65.5t-20.5 113v206q0 4 -2 11.5t-17 7.5h-20q-21 0 -21 21v92q0 21 21 21h30q4 0 11.5 2t7.5 17v80q0 21 21 21h113q21 0 21 -21v-80q0 -4 2 -11.5t17 -7.5h46q21 0 21 -21v-92q0 -21 -21 -21h-41q-4 0 -11.5 -2t-7.5 -17v-206
q0 -61 60 -61q21 0 21 -21v-98q0 -21 -21 -21zM175 -204q-4 13 -23.5 28.5t-24 27t-5.5 19.5q-4 34 19 62t57 31q18 2 40 -5.5t38 -26.5t21 -49t-5 -69q-6 -25 -22.5 -56.5t-45.5 -64.5q-3 -3 -8 -7.5t-15 2.5l-42 30q-9 7 -2 18q13 21 17.5 33t0.5 27z" />
    <glyph glyph-name="uni0237" unicode="&#x237;" horiz-adv-x="250" 
d="M-20 -79q60 0 60 61v557q0 21 21 21h128q21 0 21 -21v-557q0 -113 -54 -162.5t-176 -49.5q-21 0 -21 21v109q0 21 21 21z" />
    <glyph glyph-name="circumflex" unicode="&#x2c6;" horiz-adv-x="480" 
d="M423 711q16 -13 0 -29l-49 -49q-14 -14 -29 0l-105 94l-105 -94q-15 -14 -29 0l-49 49q-16 16 0 29l168 150q7 6 15 6t15 -6z" />
    <glyph glyph-name="caron" unicode="&#x2c7;" horiz-adv-x="480" 
d="M423 782l-168 -150q-15 -13 -30 0l-168 150q-16 13 0 29l49 49q14 14 29 0l105 -94l105 94q15 14 29 0l49 -49q16 -16 0 -29z" />
    <glyph glyph-name="breve" unicode="&#x2d8;" horiz-adv-x="470" 
d="M412 753q15 -15 0 -30q-19 -19 -49.5 -37t-65 -26t-62.5 -8t-62.5 8t-65 26t-49.5 37q-15 15 0 30l56 55q4 4 9 5t22 -10q49 -32 90 -32t90 32q13 8 18.5 10t12.5 -5z" />
    <glyph glyph-name="dotaccent" unicode="&#x2d9;" horiz-adv-x="278" 
d="M139 640q-19 0 -41.5 9.5t-39 33.5t-16.5 53q0 18 9.5 40.5t34 39t53.5 16.5q18 0 40.5 -9.5t39 -33.5t16.5 -53q0 -18 -9.5 -40.5t-33.5 -39t-53 -16.5z" />
    <glyph glyph-name="ring" unicode="&#x2da;" horiz-adv-x="290" 
d="M145 524q-52 0 -89.5 37.5t-37.5 90.5q0 52 37.5 89.5t89.5 37.5t89.5 -37.5t37.5 -89.5q0 -53 -37.5 -90.5t-89.5 -37.5zM145 610q16 0 28.5 12.5t12.5 29.5t-12.5 29.5t-28.5 12.5q-17 0 -29.5 -12.5t-12.5 -29.5t12.5 -29.5t29.5 -12.5z" />
    <glyph glyph-name="ogonek" unicode="&#x2db;" horiz-adv-x="337" 
d="M183 62q-22 -28 -28 -64q-3 -15 2.5 -34.5t26.5 -32t57 -2.5q18 4 22 -10l26 -82q5 -18 -12 -24q-41 -16 -83 -13t-75.5 22t-53 51.5t-19.5 71.5t20 73.5t47.5 51t50.5 20.5z" />
    <glyph glyph-name="tilde" unicode="&#x2dc;" horiz-adv-x="437" 
d="M389 659q13 -7 5 -21q-20 -38 -52 -60.5t-63 -22.5q-24 0 -50 9t-28 10q-42 13 -62 -13q-5 -7 -10 -8t-11 3l-70 40q-7 4 -8 9t3 12q20 38 52 60.5t63 22.5q24 0 50 -9t28 -10q42 -13 62 13q5 7 10 8t11 -3z" />
    <glyph glyph-name="hungarumlaut" unicode="&#x2dd;" horiz-adv-x="600" 
d="M67 729l141 132q15 15 30 0l65 -68q14 -15 0 -29l-140 -131q-15 -15 -30 0l-66 66q-15 15 0 30zM307 729l141 132q15 15 30 0l65 -68q14 -15 0 -29l-140 -131q-15 -15 -30 0l-66 66q-15 15 0 30z" />
    <glyph glyph-name="gravecomb" unicode="&#x300;" horiz-adv-x="0" 
d="M-334 965l43 64q7 10 13 12t15 -4l197 -132q9 -7 11 -13t-4 -15l-44 -64q-3 -4 -9.5 -10t-18.5 2l-197 132q-9 6 -10.5 12t4.5 16z" />
    <glyph glyph-name="acutecomb" unicode="&#x301;" horiz-adv-x="0" 
d="M-55 965q6 -10 4.5 -16t-10.5 -12l-197 -132q-3 -2 -10.5 -4t-17.5 12l-44 64q-6 9 -4 15t11 13l197 132q9 6 15 4t13 -12z" />
    <glyph glyph-name="uni0302" unicode="&#x302;" horiz-adv-x="0" 
d="M-60 885q16 -13 0 -29l-49 -49q-14 -14 -29 0l-105 94l-105 -94q-15 -14 -29 0l-49 49q-16 16 0 29l168 150q7 6 15 6t15 -6z" />
    <glyph glyph-name="tildecomb" unicode="&#x303;" horiz-adv-x="0" 
d="M-88 878q12 -8 5 -21q-34 -57 -98 -57q-27 0 -63 16q-40 18 -62 -8q-10 -12 -21 -5l-62 40q-12 9 -5 21q34 57 98 57q27 0 63 -16q40 -18 62 8q10 12 21 5z" />
    <glyph glyph-name="uni0304" unicode="&#x304;" horiz-adv-x="0" 
d="M-81 921q21 0 21 -21v-79q0 -21 -21 -21h-220q-21 0 -21 21v79q0 21 21 21h220z" />
    <glyph glyph-name="uni0306" unicode="&#x306;" horiz-adv-x="0" 
d="M-67 911q14 -14 0 -30q-74 -81 -177 -81t-177 81q-14 16 0 30l52 51q14 14 32 -2q20 -18 41.5 -29.5t51.5 -11.5q23 0 45 8.5t48 32.5q18 16 32 2z" />
    <glyph glyph-name="uni0307" unicode="&#x307;" horiz-adv-x="0" 
d="M-146 800q-35 0 -60.5 25.5t-25.5 60.5q0 16 8.5 36t30.5 34.5t47 14.5q16 0 36.5 -8.5t35 -30t14.5 -46.5q0 -35 -25.5 -60.5t-60.5 -25.5z" />
    <glyph glyph-name="uni0308" unicode="&#x308;" horiz-adv-x="0" 
d="M-366 800q-35 0 -60.5 25.5t-25.5 60.5q0 16 8.5 36t30.5 34.5t47 14.5q16 0 36.5 -8.5t35 -30t14.5 -46.5q0 -35 -25.5 -60.5t-60.5 -25.5zM-174 800q-35 0 -60.5 25.5t-25.5 60.5q0 16 8.5 36t30.5 34.5t47 14.5q16 0 36.5 -8.5t35 -30t14.5 -46.5q0 -35 -25.5 -60.5
t-60.5 -25.5z" />
    <glyph glyph-name="uni030A" unicode="&#x30a;" horiz-adv-x="0" 
d="M-193 800q-23 0 -51.5 12t-49 42.5t-20.5 66.5q0 23 12 51.5t42.5 49t66.5 20.5q23 0 51.5 -12t49 -42.5t20.5 -66.5q0 -23 -12 -51.5t-42.5 -49t-66.5 -20.5zM-193 879q16 0 28.5 12.5t12.5 29.5t-12.5 29.5t-28.5 12.5q-17 0 -29.5 -12.5t-12.5 -29.5t12.5 -29.5
t29.5 -12.5z" />
    <glyph glyph-name="uni030B" unicode="&#x30b;" horiz-adv-x="0" 
d="M-511 808l-49 50q-15 15 0 30l142 146q15 15 30 0l49 -50q15 -15 0 -30l-142 -146q-15 -15 -30 0zM-274 808l-49 50q-15 15 0 30l142 146q15 15 30 0l49 -50q15 -15 0 -30l-142 -146q-15 -15 -30 0z" />
    <glyph glyph-name="uni030C" unicode="&#x30c;" horiz-adv-x="0" 
d="M-78 957l-168 -150q-15 -13 -30 0l-168 150q-16 13 0 29l49 49q14 14 29 0l105 -94l105 94q15 14 29 0l49 -49q16 -16 0 -29z" />
    <glyph glyph-name="uni0312" unicode="&#x312;" horiz-adv-x="0" 
d="M-103 707q4 -13 23.5 -28.5t24 -27t5.5 -19.5q4 -34 -19 -62t-57 -31q-18 -2 -40 5.5t-38 26.5t-21 49t5 69q6 25 22.5 56.5t45.5 64.5q3 3 8 7.5t15 -2.5l42 -30q9 -7 2 -18q-13 -21 -17.5 -33t-0.5 -27z" />
    <glyph glyph-name="uni0326" unicode="&#x326;" horiz-adv-x="0" 
d="M-174 -204q-4 13 -23.5 28.5t-24 27t-5.5 19.5q-4 34 19 62t57 31q18 2 40 -5.5t38 -26.5t21 -49t-5 -69q-6 -25 -22.5 -56.5t-45.5 -64.5q-3 -3 -8 -7.5t-15 2.5l-42 30q-9 7 -2 18q13 21 17.5 33t0.5 27z" />
    <glyph glyph-name="uni0327" unicode="&#x327;" horiz-adv-x="0" 
d="M-166 -38q19 8 43 8t46.5 -14t39.5 -41t17 -64q0 -56 -42 -93.5t-100 -37.5q-29 0 -63 14q-18 7 -12 24l24 59q6 16 22 10q15 -5 27 -5q16 0 28 13t12 30t-12.5 29t-29.5 12q-19 0 -35 -16q-3 -3 -9 -6.5t-17 2.5l-42 19q-13 6 -8 19l39 113l92 -17z" />
    <glyph glyph-name="uni0328" unicode="&#x328;" horiz-adv-x="0" 
d="M-154 62q-22 -28 -28 -64q-3 -15 2.5 -34.5t26.5 -32t57 -2.5q18 4 22 -10l26 -82q5 -18 -12 -24q-41 -16 -83 -13t-75.5 22t-53 51.5t-19.5 71.5t20 73.5t47.5 51t50.5 20.5z" />
    <glyph glyph-name="uni0335" unicode="&#x335;" horiz-adv-x="0" 
 />
    <glyph glyph-name="uni0336" unicode="&#x336;" horiz-adv-x="0" 
 />
    <glyph glyph-name="uni0337" unicode="&#x337;" horiz-adv-x="0" 
d="M-82 562q19 10 27 -5l41 -73q9 -16 -9 -26l-324 -185q-19 -10 -27 5l-41 73q-9 16 9 26z" />
    <glyph glyph-name="uni0338" unicode="&#x338;" horiz-adv-x="0" 
d="M-131 751q8 0 13 -5.5t-1 -15.5l-424 -709q-3 -5 -9 -13t-20 -8h-72q-8 0 -13 5.5t1 15.5l424 709q3 5 9 13t20 8h72z" />
    <glyph glyph-name="Wgrave" unicode="&#x1e80;" horiz-adv-x="780" 
d="M253 1015l43 64q7 10 13 12t15 -4l197 -132q9 -7 11 -13t-4 -15l-44 -64q-3 -4 -9.5 -10t-18.5 2l-197 132q-9 6 -10.5 12t4.5 16zM191 0q-12 0 -18 4t-8 16l-144 710q-4 20 14 20h141q20 0 24 -20l51 -288q1 -5 6 -5.5t6 4.5l68 289q1 5 5 12.5t21 7.5h66q12 0 17.5 -4
t8.5 -16l68 -289q1 -5 6 -4.5t6 5.5l51 288q4 20 24 20h141q18 0 14 -20l-144 -710q-2 -12 -8 -16t-18 -4h-90q-5 0 -13.5 2t-12.5 18l-77 326q-1 5 -6 5t-6 -5l-77 -326q-3 -11 -9 -15.5t-17 -4.5h-90z" />
    <glyph glyph-name="wgrave" unicode="&#x1e81;" horiz-adv-x="662" 
d="M447 729q15 -15 0 -30l-66 -66q-15 -15 -30 0l-140 131q-14 14 0 29l65 68q15 15 30 0zM648 560q8 0 11.5 -5.5t1.5 -14.5l-134 -520q-3 -11 -9 -15.5t-17 -4.5h-88q-20 0 -26 20l-50 173q-1 5 -6 5t-6 -5l-50 -173q-6 -20 -26 -20h-88q-5 0 -13.5 2t-12.5 18l-134 520
q-2 9 1.5 14.5t11.5 5.5h135q18 0 23 -20l45 -199q1 -5 6 -5t6 5l46 199q4 20 26 20h60q21 0 26 -20l46 -199q1 -5 6 -5t6 5l45 199q5 20 23 20h135z" />
    <glyph glyph-name="Wacute" unicode="&#x1e82;" horiz-adv-x="780" 
d="M525 965q6 -10 4.5 -16t-10.5 -12l-197 -132q-3 -2 -10.5 -4t-17.5 12l-44 64q-6 9 -4 15t11 13l197 132q9 6 15 4t13 -12zM191 0q-12 0 -18 4t-8 16l-144 710q-4 20 14 20h141q20 0 24 -20l51 -288q1 -5 6 -5.5t6 4.5l68 289q1 5 5 12.5t21 7.5h66q12 0 17.5 -4t8.5 -16
l68 -289q1 -5 6 -4.5t6 5.5l51 288q4 20 24 20h141q18 0 14 -20l-144 -710q-2 -12 -8 -16t-18 -4h-90q-5 0 -13.5 2t-12.5 18l-77 326q-1 5 -6 5t-6 -5l-77 -326q-3 -11 -9 -15.5t-17 -4.5h-90z" />
    <glyph glyph-name="wacute" unicode="&#x1e83;" horiz-adv-x="662" 
d="M211 729l141 132q15 15 30 0l65 -68q14 -15 0 -29l-140 -131q-15 -15 -30 0l-66 66q-15 15 0 30zM648 560q8 0 11.5 -5.5t1.5 -14.5l-134 -520q-3 -11 -9 -15.5t-17 -4.5h-88q-20 0 -26 20l-50 173q-1 5 -6 5t-6 -5l-50 -173q-6 -20 -26 -20h-88q-5 0 -13.5 2t-12.5 18
l-134 520q-2 9 1.5 14.5t11.5 5.5h135q18 0 23 -20l45 -199q1 -5 6 -5t6 5l46 199q4 20 26 20h60q21 0 26 -20l46 -199q1 -5 6 -5t6 5l45 199q5 20 23 20h135z" />
    <glyph glyph-name="Wdieresis" unicode="&#x1e84;" horiz-adv-x="780" 
d="M294 800q-35 0 -60.5 25.5t-25.5 60.5q0 16 8.5 36t30.5 34.5t47 14.5q16 0 36.5 -8.5t35 -30t14.5 -46.5q0 -35 -25.5 -60.5t-60.5 -25.5zM486 800q-35 0 -60.5 25.5t-25.5 60.5q0 16 8.5 36t30.5 34.5t47 14.5q16 0 36.5 -8.5t35 -30t14.5 -46.5q0 -35 -25.5 -60.5
t-60.5 -25.5zM191 0q-12 0 -18 4t-8 16l-144 710q-4 20 14 20h141q20 0 24 -20l51 -288q1 -5 6 -5.5t6 4.5l68 289q1 5 5 12.5t21 7.5h66q12 0 17.5 -4t8.5 -16l68 -289q1 -5 6 -4.5t6 5.5l51 288q4 20 24 20h141q18 0 14 -20l-144 -710q-2 -12 -8 -16t-18 -4h-90
q-5 0 -13.5 2t-12.5 18l-77 326q-1 5 -6 5t-6 -5l-77 -326q-3 -11 -9 -15.5t-17 -4.5h-90z" />
    <glyph glyph-name="wdieresis" unicode="&#x1e85;" horiz-adv-x="662" 
d="M222 639q-36 0 -62.5 26.5t-26.5 62.5q0 17 9 37.5t31.5 35.5t48.5 15q17 0 38 -9t36 -31t15 -48q0 -36 -26.5 -62.5t-62.5 -26.5zM440 639q-36 0 -62.5 26.5t-26.5 62.5q0 17 9 37.5t31.5 35.5t48.5 15q17 0 38 -9t36 -31t15 -48q0 -36 -26.5 -62.5t-62.5 -26.5z
M648 560q8 0 11.5 -5.5t1.5 -14.5l-134 -520q-3 -11 -9 -15.5t-17 -4.5h-88q-20 0 -26 20l-50 173q-1 5 -6 5t-6 -5l-50 -173q-6 -20 -26 -20h-88q-5 0 -13.5 2t-12.5 18l-134 520q-2 9 1.5 14.5t11.5 5.5h135q18 0 23 -20l45 -199q1 -5 6 -5t6 5l46 199q4 20 26 20h60
q21 0 26 -20l46 -199q1 -5 6 -5t6 5l45 199q5 20 23 20h135z" />
    <glyph glyph-name="Ygrave" unicode="&#x1ef2;" horiz-adv-x="571" 
d="M149 1015l43 64q7 10 13 12t15 -4l197 -132q9 -7 11 -13t-4 -15l-44 -64q-3 -4 -9.5 -10t-18.5 2l-197 132q-9 6 -10.5 12t4.5 16zM528 750q8 0 11.5 -6t0.5 -14l-164 -452v-257q0 -21 -21 -21h-138q-21 0 -21 21v257l-164 452q-3 8 0.5 14t11.5 6h142q19 0 26 -20
l68 -211q1 -4 6 -4t6 4l68 211q6 20 26 20h142z" />
    <glyph glyph-name="ygrave" unicode="&#x1ef3;" horiz-adv-x="491" 
d="M361 729q15 -15 0 -30l-66 -66q-15 -15 -30 0l-140 131q-14 14 0 29l65 68q15 15 30 0zM63 -230q-21 0 -21 21v109q0 20 21 21q41 3 59.5 15.5t25.5 33.5q11 32 14.5 51t-6.5 47l-155 472q-3 9 1 14.5t12 5.5h135q18 0 23 -20l68 -248q1 -5 6 -5t6 5l66 248q6 20 23 20
h135q8 0 12 -5.5t1 -14.5l-219 -655q-38 -115 -207 -115z" />
    <glyph glyph-name="endash" unicode="&#x2013;" horiz-adv-x="569" 
d="M518 351q21 0 21 -21v-82q0 -21 -21 -21h-467q-21 0 -21 21v82q0 21 21 21h467z" />
    <glyph glyph-name="emdash" unicode="&#x2014;" horiz-adv-x="699" 
d="M648 351q21 0 21 -21v-82q0 -21 -21 -21h-597q-21 0 -21 21v82q0 21 21 21h597z" />
    <glyph glyph-name="quoteleft" unicode="&#x2018;" horiz-adv-x="244" 
d="M143 609q0 -2 3 -8.5t29 -24.5t32.5 -32.5t6.5 -30.5q0 -17 -8.5 -37.5t-31.5 -35.5t-50 -15q-28 0 -52.5 16t-38 44.5t-12.5 67t19 79.5q15 33 41 66t52 54q3 2 9 5.5t15 -3.5l36 -30q2 -2 4.5 -6.5t-3.5 -14.5q-6 -9 -30 -43t-21 -51z" />
    <glyph glyph-name="quoteright" unicode="&#x2019;" horiz-adv-x="244" 
d="M101 576q0 2 -3 8.5t-29 24.5t-32.5 32.5t-6.5 30.5q0 17 8.5 37.5t31.5 35.5t50 15q28 0 52.5 -16t38 -44.5t12.5 -67t-19 -79.5q-15 -33 -41 -66t-52 -54q-3 -2 -9 -5.5t-15 3.5l-36 30q-2 2 -4.5 6.5t3.5 14.5q6 9 30 43t21 51z" />
    <glyph glyph-name="quotesinglbase" unicode="&#x201a;" horiz-adv-x="243" 
d="M101 -23q0 2 -3 8.5t-29 24.5t-32.5 32.5t-6.5 30.5q0 17 8.5 37.5t31.5 35.5t50 15q28 0 52 -16t38 -44.5t13 -67t-19 -79.5q-15 -32 -41 -65t-52 -55q-3 -2 -9 -5.5t-15 3.5l-36 30q-2 2 -4.5 6.5t3.5 14.5q3 4 20 27.5t25 38.5t6 28z" />
    <glyph glyph-name="quotedblleft" unicode="&#x201c;" horiz-adv-x="474" 
d="M142 610q2 -14 29 -32t34 -33t7 -31q0 -36 -26 -62t-63 -26q-14 0 -31 5.5t-33.5 19.5t-28 39t-10.5 63.5t19 79.5q15 33 39.5 66.5t52.5 53.5q3 2 9.5 5.5t14.5 -3.5l36 -30q4 -3 5.5 -7t-4.5 -14q-5 -8 -29 -42.5t-21 -51.5zM373 610q2 -14 29 -32t34 -33t7 -31
q0 -36 -26 -62t-63 -26q-14 0 -31 5.5t-33.5 19.5t-28 39t-10.5 63.5t19 79.5q15 33 39.5 66.5t52.5 53.5q3 2 9.5 5.5t14.5 -3.5l36 -30q4 -3 5.5 -7t-4.5 -14q-5 -8 -29 -42.5t-21 -51.5z" />
    <glyph glyph-name="quotedblright" unicode="&#x201d;" horiz-adv-x="474" 
d="M100 576q-2 14 -29 32t-34 33t-7 31q0 36 26 62t63 26q14 0 31 -5.5t33.5 -19.5t28 -39t10.5 -63.5t-19 -79.5q-15 -33 -39.5 -66.5t-52.5 -53.5q-3 -2 -9.5 -5.5t-14.5 3.5l-36 30q-4 3 -5.5 7t4.5 14q5 8 29 42.5t21 51.5zM331 576q-2 14 -29 32t-34 33t-7 31
q0 36 26 62t63 26q14 0 31 -5.5t33.5 -19.5t28 -39t10.5 -63.5t-19 -79.5q-15 -33 -39.5 -66.5t-52.5 -53.5q-3 -2 -9.5 -5.5t-14.5 3.5l-36 30q-4 3 -5.5 7t4.5 14q5 8 29 42.5t21 51.5z" />
    <glyph glyph-name="quotedblbase" unicode="&#x201e;" horiz-adv-x="474" 
d="M90 -23q-2 14 -29 32t-34 33t-7 31q0 36 26 62t63 26q14 0 31 -5.5t33.5 -19.5t28 -39t10.5 -63.5t-19 -79.5q-14 -32 -40 -64.5t-52 -55.5q-3 -2 -9.5 -5.5t-14.5 3.5l-36 30q-4 3 -5.5 7t4.5 14q5 7 20.5 28.5t23.5 37.5t6 28zM321 -23q-2 14 -29 32t-34 33t-7 31
q0 36 26 62t63 26q14 0 31 -5.5t33.5 -19.5t28 -39t10.5 -63.5t-19 -79.5q-14 -32 -40 -64.5t-52 -55.5q-3 -2 -9.5 -5.5t-14.5 3.5l-36 30q-4 3 -5.5 7t4.5 14q5 7 20.5 28.5t23.5 37.5t6 28z" />
    <glyph glyph-name="dagger" unicode="&#x2020;" horiz-adv-x="590" 
d="M519 560q21 0 21 -21v-122q0 -21 -21 -21h-129q-10 0 -10 -10v-595q0 -21 -21 -21h-128q-21 0 -21 21v595q0 10 -10 10h-129q-21 0 -21 21v122q0 21 21 21h129q10 0 10 10v159q0 21 21 21h128q21 0 21 -21v-159q0 -10 10 -10h129z" />
    <glyph glyph-name="daggerdbl" unicode="&#x2021;" horiz-adv-x="570" 
d="M370 176q0 -10 10 -10h119q21 0 21 -21v-122q0 -21 -21 -21h-119q-10 0 -10 -10v-201q0 -21 -21 -21h-128q-21 0 -21 21v201q0 10 -10 10h-119q-21 0 -21 21v122q0 21 21 21h119q10 0 10 10v210q0 10 -10 10h-119q-21 0 -21 21v122q0 21 21 21h119q10 0 10 10v159
q0 21 21 21h128q21 0 21 -21v-159q0 -10 10 -10h119q21 0 21 -21v-122q0 -21 -21 -21h-119q-10 0 -10 -10v-210z" />
    <glyph glyph-name="bullet" unicode="&#x2022;" horiz-adv-x="422" 
d="M211 118q-70 0 -120.5 50.5t-50.5 120.5t50.5 120.5t120.5 50.5t120.5 -50.5t50.5 -120.5t-50.5 -120.5t-120.5 -50.5z" />
    <glyph glyph-name="ellipsis" unicode="&#x2026;" horiz-adv-x="834" 
d="M147 -10q-19 0 -41.5 9.5t-39 33.5t-16.5 53q0 18 9.5 40.5t34 39t53.5 16.5q19 0 41.5 -9.5t39 -33.5t16.5 -53q0 -18 -9.5 -40.5t-34 -39t-53.5 -16.5zM427 -10q-19 0 -41.5 9.5t-39 33.5t-16.5 53q0 18 9.5 40.5t34 39t53.5 16.5q19 0 41.5 -9.5t39 -33.5t16.5 -53
q0 -18 -9.5 -40.5t-34 -39t-53.5 -16.5zM707 -10q-19 0 -41.5 9.5t-39 33.5t-16.5 53q0 18 9.5 40.5t34 39t53.5 16.5q19 0 41.5 -9.5t39 -33.5t16.5 -53q0 -18 -9.5 -40.5t-34 -39t-53.5 -16.5z" />
    <glyph glyph-name="perthousand" unicode="&#x2030;" horiz-adv-x="981" 
d="M166 488q-55 0 -95.5 40.5t-40.5 95.5t40.5 95.5t95.5 40.5t95.5 -40.5t40.5 -95.5t-40.5 -95.5t-95.5 -40.5zM592 750q8 0 12 -4.5t2.5 -9.5t-2.5 -7l-393 -708q-3 -5 -8 -13t-19 -8h-115q-8 0 -12 4.5t-2.5 9.5t2.5 7l393 708q3 5 8 13t19 8h115zM166 587q15 0 26.5 11
t11.5 26t-11.5 26t-26.5 11t-26.5 -11t-11.5 -26t11.5 -26t26.5 -11zM495 -10q-55 0 -95.5 40.5t-40.5 95.5t40.5 95.5t95.5 40.5t95.5 -40.5t40.5 -95.5t-40.5 -95.5t-95.5 -40.5zM815 -10q-55 0 -95.5 40.5t-40.5 95.5t40.5 95.5t95.5 40.5t95.5 -40.5t40.5 -95.5
t-40.5 -95.5t-95.5 -40.5zM495 89q15 0 26.5 11t11.5 26t-11.5 26t-26.5 11t-26.5 -11t-11.5 -26t11.5 -26t26.5 -11zM815 89q15 0 26.5 11t11.5 26t-11.5 26t-26.5 11t-26.5 -11t-11.5 -26t11.5 -26t26.5 -11z" />
    <glyph glyph-name="guilsinglleft" unicode="&#x2039;" horiz-adv-x="265" 
d="M221 264l-25 -26q-7 -8 0 -16l25 -26q4 -4 9 -10t5 -20v-140q0 -8 -6.5 -10.5t-12.5 4.5l-180 195q-6 7 -6 15t6 15l180 195q6 7 12.5 4.5t6.5 -10.5v-140q0 -4 -1 -11t-13 -19z" />
    <glyph glyph-name="guilsinglright" unicode="&#x203a;" horiz-adv-x="265" 
d="M44 264q-4 4 -9 10t-5 20v140q0 8 6.5 10.5t12.5 -4.5l180 -195q6 -7 6 -15t-6 -15l-180 -195q-6 -7 -12.5 -4.5t-6.5 10.5v140q0 4 1 11t13 19l25 26q7 8 0 16z" />
    <glyph glyph-name="uni2070" unicode="&#x2070;" horiz-adv-x="494" 
d="M247 180q-38 0 -75 11.5t-65 39.5t-45 74t-17 113v104q0 53 12 96.5t37 75.5t63.5 49t89.5 17q38 0 75 -11.5t65 -39.5t45 -74t17 -113v-104q0 -53 -12 -96.5t-37 -75.5t-63.5 -49t-89.5 -17zM247 316q24 0 36.5 17t15 40.5t2.5 43.5v105q0 60 -14.5 81t-39.5 21
t-39.5 -21t-14.5 -81v-105q0 -53 12.5 -77t41.5 -24z" />
    <glyph glyph-name="uni2074" unicode="&#x2074;" horiz-adv-x="434" 
d="M387 421q17 0 17 -17v-86q0 -17 -17 -17h-9q-3 0 -9 -1.5t-6 -14.5v-78q0 -17 -17 -17h-114q-17 0 -17 17v78q0 3 -1.5 9.5t-13.5 6.5h-173q-17 0 -17 17v74q0 20 11 37l204 311q7 10 20 10h101q17 0 17 -17v-297q0 -3 1.5 -9t13.5 -6h9zM215 435v88l-67 -103h52
q3 0 9 1.5t6 13.5z" />
    <glyph glyph-name="uni2075" unicode="&#x2075;" horiz-adv-x="425" 
d="M245 580q38 2 68.5 -18.5t48.5 -62t18 -104.5v-12q0 -64 -21 -106.5t-59 -64.5t-92 -22q-25 0 -51.5 7t-48.5 23t-38.5 45t-22.5 72q-2 15 10 15h96q11 0 14 -11q3 -12 12.5 -20.5t21.5 -8.5q15 0 27.5 12t12.5 36v58q0 24 -12 35.5t-28 11.5q-12 0 -21.5 -8t-12.5 -20
q-3 -11 -14 -11h-90q-17 0 -17 17l-1 290q0 17 17 17h285q17 0 17 -17v-96q0 -18 -17 -18h-167q-3 0 -9 -1.5t-6 -13.5v-65q15 20 37.5 30t42.5 11z" />
    <glyph glyph-name="uni2076" unicode="&#x2076;" horiz-adv-x="448" 
d="M256 546q21 2 47 -4t49 -24.5t37 -51.5t14 -79v-14q0 -62 -23.5 -104.5t-64.5 -66t-91 -23.5t-91 23.5t-64.5 66t-23.5 104.5v193q0 64 21 106.5t59 65t92 22.5q25 0 51.5 -7t49 -23t39 -45.5t22.5 -72.5q1 -6 -2 -10.5t-9 -4.5h-96q-11 0 -14 11q-3 12 -12.5 20.5
t-21.5 8.5q-15 0 -27 -12t-12 -36v-78q28 30 71 35zM263 350v27q0 24 -12 36t-27 12t-27 -12t-12 -36v-27q0 -24 12 -36t27 -12t27 12t12 36z" />
    <glyph glyph-name="uni2077" unicode="&#x2077;" horiz-adv-x="373" 
d="M325 750q18 0 18 -17v-82q0 -17 -5 -32l-113 -412q-4 -17 -23 -17h-118q-7 0 -10 5t-1 12l109 402q3 10 -6 10h-128q-18 0 -18 17v97q0 17 18 17h277z" />
    <glyph glyph-name="uni2078" unicode="&#x2078;" horiz-adv-x="448" 
d="M224 180q-54 0 -94.5 22.5t-62.5 60.5t-22 89v1q0 70 59 124q-46 42 -46 113v1q0 28 9 57.5t29.5 54t53 41t74.5 16.5q24 0 52 -8t53 -27.5t43 -53t18 -80.5v-1q0 -71 -46 -113q59 -54 59 -124v-1q0 -51 -22 -89t-62.5 -60.5t-94.5 -22.5zM224 542q15 0 27 11.5t12 35.5
v5q0 18 -9.5 32.5t-29.5 14.5q-15 0 -27 -11.5t-12 -35.5v-5q0 -18 9.5 -32.5t29.5 -14.5zM224 303q15 0 27 12t12 36v10q0 27 -11.5 39.5t-27.5 12.5t-27.5 -12.5t-11.5 -39.5v-10q0 -18 9.5 -33t29.5 -15z" />
    <glyph glyph-name="uni2079" unicode="&#x2079;" horiz-adv-x="448" 
d="M192 393q-21 -2 -47 4t-49 24.5t-37 51.5t-14 79v14q0 62 23.5 104.5t64.5 66t91 23.5t91 -23.5t64.5 -66t23.5 -104.5v-193q0 -64 -21 -106.5t-59 -65t-92 -22.5q-25 0 -51.5 7t-49 23t-39 45.5t-22.5 72.5q-1 6 2 10.5t9 4.5h96q11 0 14 -11q3 -12 12.5 -20.5
t21.5 -8.5q15 0 27 12t12 36v78q-28 -30 -71 -35zM185 589v-27q0 -24 12 -36t27 -12t27 12t12 36v27q0 24 -12 36t-27 12t-27 -12t-12 -36z" />
    <glyph glyph-name="uni2080" unicode="&#x2080;" horiz-adv-x="494" 
d="M247 -240q-38 0 -75 11.5t-65 39.5t-45 74t-17 113v104q0 53 12 96.5t37 75.5t63.5 49t89.5 17q38 0 75 -11.5t65 -39.5t45 -74t17 -113v-104q0 -53 -12 -96.5t-37 -75.5t-63.5 -49t-89.5 -17zM247 -104q24 0 36.5 17t15 40.5t2.5 43.5v105q0 60 -14.5 81t-39.5 21
t-39.5 -21t-14.5 -81v-105q0 -53 12.5 -77t41.5 -24z" />
    <glyph glyph-name="uni2081" unicode="&#x2081;" horiz-adv-x="371" 
d="M294 330q17 0 17 -17v-526q0 -17 -17 -17h-113q-18 0 -18 17v325l-50 -50q-12 -12 -24 0l-72 72q-12 13 0 25l160 161q10 10 20 10h97z" />
    <glyph glyph-name="uni2082" unicode="&#x2082;" horiz-adv-x="412" 
d="M58 -230q-18 0 -18 17v122q0 59 27.5 101t81.5 81t65 51t15.5 22.5t4.5 21.5q0 17 -10 27.5t-25 10.5q-13 0 -22 -10t-11 -27q-1 -10 -14 -10h-96q-11 0 -11 14q0 49 22.5 84.5t61 50t77.5 14.5q43 0 83.5 -17.5t61.5 -55t20 -84.5q0 -14 -3.5 -34.5t-14.5 -42.5
t-25.5 -40t-30.5 -31.5t-63 -49t-47 -66.5v-4q0 -3 1.5 -9t13.5 -6h152q18 0 18 -18v-95q0 -17 -18 -17h-296z" />
    <glyph glyph-name="uni2083" unicode="&#x2083;" horiz-adv-x="423" 
d="M206 -240q-39 0 -73 14.5t-57.5 47.5t-30.5 86q-2 15 10 15h96q11 0 14 -11q3 -12 13 -20.5t22 -8.5q15 0 27 12t12 36v18q0 18 -9.5 32.5t-29.5 14.5h-34q-17 0 -17 17v80q0 17 17 17h34q15 0 27 12t12 36v11q0 24 -12 36t-27 12q-12 0 -22 -9.5t-13 -21.5
q-2 -10 -14 -10h-96q-12 0 -10 14q8 54 31.5 87.5t57 48t72.5 14.5q34 0 65 -10t55 -32t38 -58t14 -84v-3q0 -58 -42 -102q42 -44 42 -111v-6q0 -56 -21 -94t-59.5 -59t-91.5 -21z" />
    <glyph glyph-name="uni2084" unicode="&#x2084;" horiz-adv-x="434" 
d="M387 1q17 0 17 -17v-86q0 -17 -17 -17h-9q-3 0 -9 -1.5t-6 -14.5v-78q0 -17 -17 -17h-114q-17 0 -17 17v78q0 3 -1.5 9.5t-13.5 6.5h-173q-17 0 -17 17v74q0 20 11 37l204 311q7 10 20 10h101q17 0 17 -17v-297q0 -3 1.5 -9t13.5 -6h9zM215 15v88l-67 -103h52q3 0 9 1.5
t6 13.5z" />
    <glyph glyph-name="uni2085" unicode="&#x2085;" horiz-adv-x="425" 
d="M245 150q38 2 68.5 -18.5t48.5 -62t18 -104.5v-12q0 -64 -21 -106.5t-59 -64.5t-92 -22q-25 0 -51.5 7t-48.5 23t-38.5 45t-22.5 72q-2 15 10 15h96q11 0 14 -11q3 -12 12.5 -20.5t21.5 -8.5q15 0 27.5 12t12.5 36v58q0 24 -12 35.5t-28 11.5q-12 0 -21.5 -8t-12.5 -20
q-3 -11 -14 -11h-90q-17 0 -17 17l-1 300q0 17 17 17h285q17 0 17 -17v-96q0 -18 -17 -18h-167q-3 0 -9 -1.5t-6 -13.5v-75q15 20 37.5 30t42.5 11z" />
    <glyph glyph-name="uni2086" unicode="&#x2086;" horiz-adv-x="448" 
d="M256 126q21 2 47 -4t49 -24.5t37 -51.5t14 -79v-14q0 -62 -23.5 -104.5t-64.5 -66t-91 -23.5t-91 23.5t-64.5 66t-23.5 104.5v193q0 64 21 106.5t59 65t92 22.5q25 0 51.5 -7t49 -23t39 -45.5t22.5 -72.5q1 -6 -2 -10.5t-9 -4.5h-96q-11 0 -14 11q-3 12 -12.5 20.5
t-21.5 8.5q-15 0 -27 -12t-12 -36v-78q28 30 71 35zM263 -70v27q0 24 -12 36t-27 12t-27 -12t-12 -36v-27q0 -24 12 -36t27 -12t27 12t12 36z" />
    <glyph glyph-name="uni2087" unicode="&#x2087;" horiz-adv-x="363" 
d="M315 330q18 0 18 -17v-82q0 -17 -5 -32l-113 -412q-4 -17 -23 -17h-118q-7 0 -10 5t-1 12l109 402q3 10 -6 10h-128q-18 0 -18 17v97q0 17 18 17h277z" />
    <glyph glyph-name="uni2088" unicode="&#x2088;" horiz-adv-x="448" 
d="M224 -240q-54 0 -94.5 22.5t-62.5 60.5t-22 89v1q0 70 59 124q-46 42 -46 113v1q0 28 9 57.5t29.5 54t53 41t74.5 16.5q24 0 52 -8t53 -27.5t43 -53t18 -80.5v-1q0 -71 -46 -113q59 -54 59 -124v-1q0 -51 -22 -89t-62.5 -60.5t-94.5 -22.5zM224 122q15 0 27 11.5t12 35.5
v5q0 18 -9.5 32.5t-29.5 14.5q-15 0 -27 -11.5t-12 -35.5v-5q0 -18 9.5 -32.5t29.5 -14.5zM224 -117q15 0 27 12t12 36v10q0 27 -11.5 39.5t-27.5 12.5t-27.5 -12.5t-11.5 -39.5v-10q0 -18 9.5 -33t29.5 -15z" />
    <glyph glyph-name="uni2089" unicode="&#x2089;" horiz-adv-x="448" 
d="M192 -27q-21 -2 -47 4t-49 24.5t-37 51.5t-14 79v14q0 62 23.5 104.5t64.5 66t91 23.5t91 -23.5t64.5 -66t23.5 -104.5v-193q0 -64 -21 -106.5t-59 -64.5t-92 -22q-68 0 -110 37t-52 110q-1 6 2 10.5t9 4.5h96q11 0 14 -11q3 -12 12.5 -20.5t21.5 -8.5q15 0 27 12t12 36
v78q-28 -30 -71 -35zM185 169v-27q0 -24 12 -36t27 -12t27 12t12 36v27q0 24 -12 36t-27 12t-27 -12t-12 -36z" />
    <glyph glyph-name="Euro" unicode="&#x20ac;" horiz-adv-x="593" 
d="M535 239q13 0 13 -18q0 -46 -14.5 -87.5t-44 -74t-75 -51t-103.5 -18.5q-46 0 -91 14t-79.5 48.5t-55 90.5t-20.5 137v19h-44q-21 0 -21 21v6q0 21 21 21h44v60h-44q-21 0 -21 21v6q0 21 21 21h44v15q0 64 14.5 117.5t44.5 92t77.5 59.5t109.5 21q43 0 86 -12.5
t76.5 -41.5t54 -74t20.5 -103q0 -18 -13 -18h-144q-17 0 -18 16q-4 36 -21.5 51.5t-40.5 15.5q-32 0 -49 -26t-17 -98v-15h164q21 0 21 -21v-6q0 -21 -21 -21h-164v-60h164q21 0 21 -21v-6q0 -21 -21 -21h-164v-19q0 -72 17 -98t49 -26q23 0 40.5 15.5t21.5 51.5q1 16 18 16
h144z" />
    <glyph glyph-name="trademark" unicode="&#x2122;" horiz-adv-x="755" 
d="M277 750q15 0 15 -16v-66q0 -16 -15 -16h-46q-3 0 -8.5 -1.5t-5.5 -12.5v-172q0 -16 -16 -16h-69q-16 0 -16 16v172q0 3 -1.5 8.5t-12.5 5.5h-46q-16 0 -16 16v66q0 16 16 16h221zM715 466q3 -16 -14 -16h-69q-8 0 -12.5 3.5t-5.5 12.5l-14 102q-1 4 -5 4.5t-5 -3.5
l-41 -104q-1 -3 -4.5 -9t-14.5 -6h-40q-3 0 -9 1.5t-10 13.5l-41 104q-1 4 -5 3.5t-5 -4.5l-14 -102q-1 -3 -3.5 -9.5t-14.5 -6.5h-69q-17 0 -14 16l42 268q1 3 3.5 9.5t13.5 6.5h69q3 0 8.5 -1.5t10.5 -14.5l53 -135q1 -4 5 -4t5 4l53 135l5 10q3 6 14 6h69q8 0 12 -4
t5 -12z" />
    <glyph glyph-name="partialdiff" unicode="&#x2202;" horiz-adv-x="526" 
d="M263 -10q-39 0 -77.5 13t-70.5 41.5t-51 74.5t-19 107v78q0 43 11.5 82t37 65t59.5 38.5t71 8.5q51 -6 87 -42v22q0 18 -3.5 43t-17.5 44.5t-43.5 31.5t-93.5 12q-21 0 -21 21v99q0 21 21 21q72 0 134 -9.5t105 -40.5t66 -96t23 -197v-181q0 -46 -13 -90t-42 -76t-71 -51
t-92 -19zM263 140q19 0 33.5 14.5t14.5 43.5v94q0 29 -14.5 43.5t-33.5 14.5t-33.5 -14.5t-14.5 -43.5v-94q0 -29 14.5 -43.5t33.5 -14.5z" />
    <glyph glyph-name="emptyset" unicode="&#x2205;" horiz-adv-x="574" 
d="M478 392q26 -31 41 -72t15 -84q0 -49 -19 -94.5t-53 -79.5t-79.5 -53t-95.5 -19q-43 0 -83.5 14.5t-71.5 40.5l-47 -47q-15 -15 -30 0l-5 5q-15 15 0 30l46 46q-56 69 -56 157q0 49 19 94.5t53 79.5t79.5 53t95.5 19q43 0 83.5 -14.5t72.5 -40.5l47 47q15 15 30 0l5 -5
q15 -15 0 -30zM200 236q0 -8 3 -22t6 -22l125 126q-20 14 -47 14q-19 0 -39.5 -10t-34 -34t-13.5 -52zM287 140q19 0 39.5 10t34 34t13.5 52q0 24 -9 43l-125 -125q20 -14 47 -14z" />
    <glyph glyph-name="product" unicode="&#x220f;" horiz-adv-x="603" 
d="M532 750q21 0 21 -21v-708q0 -21 -21 -21h-140q-21 0 -21 21v550q0 4 -2 11.5t-17 7.5h-103q-4 0 -11.5 -2t-7.5 -17v-550q0 -21 -21 -21h-138q-21 0 -21 21v708q0 21 21 21h461z" />
    <glyph glyph-name="summation" unicode="&#x2211;" horiz-adv-x="580" 
d="M40 727q0 23 21 23h458q21 0 21 -21v-118q0 -21 -21 -21h-189q-5 0 -6.5 -4t3.5 -8l193 -159q12 -9 16 -14t4 -15v-30q0 -10 -4 -15t-16 -14l-193 -159q-5 -4 -3.5 -8t6.5 -4h189q21 0 21 -21v-118q0 -21 -21 -21h-458q-21 0 -21 23v118q0 4 3 11.5t18 19.5l247 197
q8 6 0 12l-247 197q-10 8 -15.5 15t-5.5 16v118z" />
    <glyph glyph-name="minus" unicode="&#x2212;" horiz-adv-x="529" 
d="M478 423q21 0 21 -21v-82q0 -21 -21 -21h-427q-21 0 -21 21v82q0 21 21 21h427z" />
    <glyph glyph-name="radical" unicode="&#x221a;" horiz-adv-x="823" 
d="M772 750q21 0 21 -21v-118q0 -21 -21 -21h-175q-15 0 -23 -19l-230 -551q-3 -7 -7 -13.5t-19 -6.5h-66q-5 0 -12 1.5t-14 18.5l-194 420q-4 10 0 15t13 5h135q16 0 24 -20l74 -168q2 -4 6 -4.5t6 4.5l176 458q8 20 27 20h279z" />
    <glyph glyph-name="infinity" unicode="&#x221e;" horiz-adv-x="600" 
d="M409 497q55 0 95.5 -40.5t40.5 -95.5t-40.5 -95.5t-95.5 -40.5q-33 0 -63 16t-48 42q-19 -26 -49 -42t-63 -16q-55 0 -95.5 40.5t-40.5 95.5t40.5 95.5t95.5 40.5q33 0 63 -16t49 -42q18 26 48 42t63 16zM186 324q15 0 26.5 11t11.5 26t-11.5 26t-26.5 11t-26.5 -11
t-11.5 -26t11.5 -26t26.5 -11zM409 324q15 0 26.5 11t11.5 26t-11.5 26t-26.5 11t-26.5 -11t-11.5 -26t11.5 -26t26.5 -11z" />
    <glyph glyph-name="integral" unicode="&#x222b;" horiz-adv-x="610" 
d="M572 681q14 -18 0 -30l-83 -70q-4 -4 -9 -5t-22 10q-13 9 -28 9t-25 -10.5t-10 -27.5v-609q0 -40 -15.5 -74.5t-43 -60t-63 -39.5t-73.5 -14q-29 0 -62 10t-59.5 30.5t-40.5 38.5t0 30l83 70q4 4 9 5t22 -10q14 -9 28 -9q15 0 25 10.5t10 27.5v609q0 40 15.5 74.5t43 60
t63 39.5t73.5 14q29 0 62 -10t59.5 -30.5t40.5 -38.5z" />
    <glyph glyph-name="approxequal" unicode="&#x2248;" horiz-adv-x="524" 
d="M364 460q-37 -3 -102.5 15t-68.5 18q-42 7 -64 -22q-9 -12 -21 -5l-70 44q-3 2 -6.5 6t1.5 15q12 27 36.5 45.5t49 25.5t41.5 8q37 3 102.5 -15t68.5 -18q42 -7 64 22q9 12 21 5l70 -44q3 -2 6.5 -6t-1.5 -15q-12 -27 -36.5 -45.5t-49 -25.5t-41.5 -8zM364 265
q-37 -3 -102.5 15t-68.5 18q-42 7 -64 -22q-9 -12 -21 -5l-70 44q-3 2 -6.5 6t1.5 15q12 27 36.5 45.5t49 25.5t41.5 8q37 3 102.5 -15t68.5 -18q42 -7 64 22q9 12 21 5l70 -44q3 -2 6.5 -6t-1.5 -15q-12 -27 -36.5 -45.5t-49 -25.5t-41.5 -8z" />
    <glyph glyph-name="notequal" unicode="&#x2260;" horiz-adv-x="429" 
d="M378 399h-96l-24 -76h120q21 0 21 -21v-82q0 -21 -21 -21h-161l-25 -76q-7 -21 -27 -21h-72q-8 0 -11.5 5.5t-0.5 15.5l25 76h-55q-21 0 -21 21v82q0 21 21 21h96l24 76h-120q-21 0 -21 21v82q0 21 21 21h161l25 76q7 21 27 21h72q8 0 11.5 -5.5t0.5 -15.5l-25 -76h55
q21 0 21 -21v-82q0 -21 -21 -21z" />
    <glyph glyph-name="lessequal" unicode="&#x2264;" horiz-adv-x="379" 
d="M334 490l-86 -57q-4 -3 -4 -8t4 -8l86 -57q4 -3 9 -8.5t5 -21.5v-125q0 -7 -5.5 -9.5t-13.5 3.5l-291 211q-8 6 -8 15t8 15l291 211q8 6 13.5 3.5t5.5 -9.5v-125q0 -5 -1 -13.5t-13 -16.5zM51 132h277q21 0 21 -21v-82q0 -21 -21 -21h-277q-21 0 -21 21v82q0 21 21 21z
" />
    <glyph glyph-name="greaterequal" unicode="&#x2265;" horiz-adv-x="379" 
d="M45 490q-4 3 -9 8.5t-5 21.5v125q0 7 5.5 9.5t13.5 -3.5l291 -211q8 -6 8 -15t-8 -15l-291 -211q-8 -6 -13.5 -3.5t-5.5 9.5v125q0 5 1 13.5t13 16.5l86 57q4 3 4 8t-4 8zM328 132q21 0 21 -21v-82q0 -21 -21 -21h-277q-21 0 -21 21v82q0 21 21 21h277z" />
    <glyph glyph-name="lozenge" unicode="&#x25ca;" horiz-adv-x="544" 
d="M508 394q6 -9 6 -19t-6 -19l-221 -358q-5 -8 -15 -8t-15 8l-221 358q-6 9 -6 19t6 19l221 358q5 8 15 8t15 -8zM339 361l5 10q3 6 -5 18l-59 90q-4 6 -8 6t-8 -6l-59 -90l-5 -10q-3 -6 5 -18l59 -90q4 -6 8 -6t8 6z" />
    <glyph glyph-name="i.locl" horiz-adv-x="250" 
d="M125 640q-19 0 -41.5 9.5t-39 33.5t-16.5 53q0 18 9.5 40.5t34 39t53.5 16.5q18 0 40.5 -9.5t39 -33.5t16.5 -53q0 -18 -9.5 -40.5t-33.5 -39t-53 -16.5zM189 560q21 0 21 -21v-518q0 -21 -21 -21h-128q-21 0 -21 21v518q0 21 21 21h128z" />
    <glyph glyph-name="zero.oldstyle" horiz-adv-x="506" 
d="M253 -10q-39 0 -77.5 13t-70.5 41.5t-51 74.5t-19 107v108q0 46 13 90t42 76t71 51t92 19q39 0 77.5 -13t70.5 -41.5t51 -74.5t19 -107v-108q0 -46 -13 -90t-42 -76t-71 -51t-92 -19zM253 140q19 0 33.5 14.5t14.5 43.5v164q0 29 -14.5 43.5t-33.5 14.5t-33.5 -14.5
t-14.5 -43.5v-164q0 -29 14.5 -43.5t33.5 -14.5z" />
    <glyph glyph-name="one.oldstyle" horiz-adv-x="403" 
d="M324 560q19 0 19 -19v-521q0 -20 -19 -20h-132q-19 0 -19 20v335l-39 -40q-14 -14 -28 0l-68 72q-8 8 -7.5 14.5t7.5 13.5l132 133q3 3 8.5 7.5t14.5 4.5h131z" />
    <glyph glyph-name="two.oldstyle" horiz-adv-x="470" 
d="M50 0q-20 0 -20 20v87q0 20 18 33q120 88 154 125.5t46 65t12 51.5q0 21 -12 33.5t-30 12.5q-17 0 -28 -12t-13 -33q-1 -13 -17 -13h-117q-13 0 -13 18q0 60 25 100t69 61t102 21q87 0 144.5 -48.5t56.5 -132.5q-1 -67 -44 -128.5t-143 -120.5h170q20 0 20 -20v-100
q0 -20 -20 -20h-360z" />
    <glyph glyph-name="three.oldstyle" horiz-adv-x="497" 
d="M242 -190q-84 0 -135.5 45.5t-61.5 134.5q-2 18 13 18h117q13 0 17 -13q4 -14 15 -24.5t27 -10.5q19 0 33.5 14.5t14.5 43.5v53q0 29 -14.5 43.5t-33.5 14.5h-41q-21 0 -21 21v90q0 21 21 21h41q19 0 33.5 14.5t14.5 43.5v43q0 29 -14.5 43.5t-33.5 14.5q-16 0 -27 -10.5
t-15 -24.5q-4 -13 -17 -13h-117q-15 0 -13 18q10 89 61.5 134.5t135.5 45.5q66 0 112.5 -27t72 -79t25.5 -130v-10q0 -78 -51 -134q51 -56 51 -134v-10q0 -78 -25.5 -130t-72 -79t-112.5 -27z" />
    <glyph glyph-name="four.oldstyle" horiz-adv-x="567" 
d="M528 140q19 0 19 -19v-102q0 -19 -19 -19h-58q-4 0 -11 -2t-7 -16v-142q0 -20 -19 -20h-122q-19 0 -19 20v142q0 10 -4 14t-13 4h-225q-20 0 -20 19v99q0 10 12 29l247 401q7 12 22 12h122q19 0 19 -19v-383q0 -4 2 -11t16 -7h58zM292 158v129l-90 -147h73q4 0 10.5 2
t6.5 16z" />
    <glyph glyph-name="five.oldstyle" horiz-adv-x="499" 
d="M289 340q47 2 84 -23t59 -75.5t22 -127.5v-68q0 -78 -25.5 -130t-72 -79t-112.5 -27q-84 0 -135.5 45.5t-61.5 134.5q-2 18 13 18h117q13 0 17 -13q4 -14 15 -24.5t27 -10.5q19 0 33.5 14.5t14.5 43.5v124q0 29 -14.5 43.5t-33.5 14.5q-16 0 -27 -10.5t-15 -24.5
q-4 -13 -17 -13h-110q-21 0 -21 21l-1 366q0 21 21 21h347q21 0 21 -21v-118q0 -21 -21 -21h-203q-4 0 -11.5 -2t-7.5 -17v-91q37 47 98 50z" />
    <glyph glyph-name="six.oldstyle" horiz-adv-x="526" 
d="M302 438q29 2 60 -6t58 -29.5t44 -61.5t17 -97v-18q0 -46 -13 -90t-42 -76t-71 -51t-92 -19q-39 0 -77.5 13t-70.5 41.5t-51 74.5t-19 107v238q0 78 25.5 130t72 79t112.5 27q84 0 135.5 -45.5t61.5 -134.5q2 -18 -13 -18h-117q-13 0 -17 13q-4 14 -15 24.5t-27 10.5
q-19 0 -33.5 -14.5t-14.5 -43.5v-96q38 38 87 42zM311 198v34q0 29 -14.5 43.5t-33.5 14.5t-33.5 -14.5t-14.5 -43.5v-34q0 -29 14.5 -43.5t33.5 -14.5t33.5 14.5t14.5 43.5z" />
    <glyph glyph-name="seven.oldstyle" horiz-adv-x="439" 
d="M390 560q21 0 21 -21v-100q0 -18 -6 -39l-138 -559q-6 -21 -27 -21h-146q-7 0 -11 5.5t-1 15.5l133 547q3 12 -7 12h-157q-21 0 -21 21v118q0 21 21 21h339z" />
    <glyph glyph-name="eight.oldstyle" horiz-adv-x="526" 
d="M263 -10q-66 0 -115.5 27.5t-76 73.5t-26.5 109v1q0 39 17 79t55 73q-25 22 -41 58t-16 82v1q0 34 9.5 65t26 55.5t39.5 42.5t55.5 30.5t72.5 12.5q19 0 44 -4.5t51 -17.5t51 -37t41 -62.5t16 -84.5v-1q0 -46 -16 -82t-41 -58q38 -33 55 -73t17 -79v-1q0 -63 -26.5 -109
t-76 -73.5t-115.5 -27.5zM263 434q19 0 33.5 14.5t14.5 43.5v5q0 29 -14.5 43.5t-33.5 14.5t-33.5 -14.5t-14.5 -43.5v-5q0 -29 14.5 -43.5t33.5 -14.5zM263 140q19 0 33.5 14.5t14.5 43.5v13q0 32 -14.5 47.5t-33.5 15.5t-33.5 -15.5t-14.5 -47.5v-13q0 -29 14.5 -43.5
t33.5 -14.5z" />
    <glyph glyph-name="nine.oldstyle" horiz-adv-x="540" 
d="M224 72q-29 -2 -60 6t-58 29.5t-44 61.5t-17 97v68q0 46 13 90t42 76t71 51t92 19q39 0 77.5 -13t70.5 -41.5t51 -74.5t19 -107v-288q0 -78 -25.5 -130t-72 -79t-112.5 -27q-84 0 -135.5 45.5t-61.5 134.5q-2 18 13 18h117q13 0 17 -13q4 -14 15 -24.5t27 -10.5
q19 0 33.5 14.5t14.5 43.5v96q-38 -38 -87 -42zM215 362v-84q0 -29 14.5 -43.5t33.5 -14.5t33.5 14.5t14.5 43.5v84q0 29 -14.5 43.5t-33.5 14.5t-33.5 -14.5t-14.5 -43.5z" />
    <glyph glyph-name="glyph405" horiz-adv-x="600" 
 />
    <glyph glyph-name="glyph406" horiz-adv-x="544" 
d="M326 280v82q0 29 -14.5 43.5t-33.5 14.5t-33.5 -14.5t-14.5 -43.5v-68h-72v101q3 27 22.5 64.5t50.5 66t73 39.5q36 9 70.5 1t62 -30.5t43.5 -58.5t16 -79v-118h-170z" />
    <glyph glyph-name="glyph407" horiz-adv-x="600" 
d="M205 418q85 58 165 58q33 0 63 -11t53 -32t36 -52t13 -69v-126h-170v63q0 37 -16.5 57t-45.5 20q-35 0 -73 -25l-16 75z" />
    <glyph glyph-name="glyph408" horiz-adv-x="600" 
d="M205 418q85 58 165 58q33 0 63 -11t53 -32t36 -52t13 -69v-126h-170v63q0 37 -16.5 57t-45.5 20q-35 0 -73 -25z" />
    <glyph glyph-name="glyph409" horiz-adv-x="600" 
d="M326 280h170v-118q0 -33 -11 -67t-36.5 -59.5t-64 -38.5t-84.5 -3q-18 4 -43 16t-48 36t-40.5 58t-20.5 61v101h82v-68q0 -29 14.5 -43.5t33.5 -14.5t33.5 14.5t14.5 43.5v82z" />
    <glyph glyph-name="glyph410" horiz-adv-x="600" 
d="M189 750q21 0 21 -21v-579l-29 -127q-5 -23 -23 -23h-97q-21 0 -21 21v708q0 21 21 21h128z" />
    <glyph glyph-name="glyph411" horiz-adv-x="600" 
d="M158 560q18 0 23 -23l29 -127v-389q0 -21 -21 -21h-128q-21 0 -21 21v518q0 21 21 21h97z" />
    </font>
</defs>
</svg>
